<svg width="350" height="350" viewbox="0 0 350 350" fill="none" xmlns="http://www.w3.org/2000/svg"><path d="M309 257.92C280.6 302.46 230.75 332 174 332c-88.37 0-160-71.63-160-160S85.63 12 174 12c32.94 0 63.55 9.95 89 27.02M317.42 243A159.34 159.34 0 0 0 334 172c0-42.86-16.85-81.78-44.29-110.5" stroke="#3843D0" stroke-width="3" stroke-linecap="round"/><path d="M175 315.46c77.32 0 140-62.56 140-139.73C315 98.56 252.32 36 175 36S35 98.56 35 175.73c0 77.17 62.68 139.73 140 139.73Z" fill="#6AC7B7"/><path fill-rule="evenodd" clip-rule="evenodd" d="M311.11 152.15c-4.73.3-9.35-1.65-13.28-4.29-2.36-1.6-4.73-3.54-7.4-4.48-2.67-.94-6.12-.85-8.1 1.25-3.36 3.54 0 9.92 4.72 11.31 2.3.67 4.73.59 7.03 1.32 2.3.73 4.47 2.73 4.2 5.08a6.24 6.24 0 0 1-2.36 3.7c-4.4 3.83-11.11 5.95-16.11 2.92-7.02-4.25-7.19-16.13-14.95-18.8-2.13-.73-5-.25-5.84 1.84-.3.95-.34 1.97-.1 2.95 2.12 12.68 14.53 22.8 27.41 22.4 1.19-.11 2.38-.06 3.55.17 3.19.88 4.6 4.89 3.84 8.1-.77 3.23-3.05 5.8-5.2 8.33a151.94 151.94 0 0 0-22.58 35.95c-3.28 7.33-6.39 15.42-13.2 19.69a10.1 10.1 0 0 1-5.74 1.8c-4.6-.2-7.74-4.62-9.8-8.74a84.98 84.98 0 0 1-8.6-29.1c-.93-8.8-1.18-19.13-8.41-24.26-5.22-3.7-12.22-3.17-18.52-4.38-11.81-2.27-22.45-12.98-21.27-24.96.97-9.74 9.36-17.54 18.7-20.52 9.36-2.99 19.5-2.06 29.17-.43 9.68 1.63 19.37 3.93 29.18 3.54 2.87-.12 6.49-1.18 6.72-4.03.36-4.39-7.89-6.63-6.3-10.72 1.28-3.27 6.79-1.68 9.26-4.18 1.6-1.63 1.18-4.52-.4-6.2a10.52 10.52 0 0 0-6.16-2.72 17.11 17.11 0 0 0-7.66.31c-7.09 2.17-10.86 10.33-17.87 12.66-6.06 2.01-12.88-.94-19.02.8-5.73 1.6-11 7.07-16.55 5.1a6.76 6.76 0 0 1-.61-12.46c3.41-1.63 7.61-.23 11.17-1.5a1.53 1.53 0 0 0 1.04-.82c.18-.56-.25-1.1-.57-1.59-1.87-2.87-.3-6.94 2.36-9.03 2.67-2.09 6.27-2.72 9.63-3.4 7.48-1.5 14.84-3.52 22.04-6.02 2.45-.85 5.43-2.81 4.54-5.24-.52-1.45-2.25-2.1-3.8-2.15-4.1-.14-7.72 2.46-11.4 4.26-3.7 1.8-8.7 2.64-11.5-.35-2.57-2.75-1.72-7.45.81-10.24 2.53-2.8 6.23-4.14 9.77-5.4a41.14 41.14 0 0 1 11.6-2.88c3.99-.2 8.28.92 10.95 3.86 1.52 1.65 2.76 3.97 5 4.32a7.62 7.62 0 0 0 3.06-.42 47.16 47.16 0 0 1 16.43-1.18A140.04 140.04 0 0 0 176.47 36.1 140.3 140.3 0 0 0 72 81.17c6 .63 11.95 2.48 17.99 2.26 4.63-.17 9.24-1.55 13.81-.89 1.92.27 4.26 1.84 3.43 3.54-.31.56-.8 1-1.4 1.26-1.67.9-3.6 1.34-5.16 2.42-1.56 1.09-2.7 3.2-1.8 4.88.88 1.68 3.08 1.95 4.92 1.76 4.34-.45 8.27-2.52 12.31-4.22 4.05-1.7 8.47-3.04 12.68-1.97 4.22 1.07 7.86 5.44 6.66 9.62-.83 2.9-3.64 4.84-6.55 5.65-2.9.82-5.98.72-9 .97-1.17.1-2.76.48-3.04 1.7a2.1 2.1 0 0 0 .34 1.6c1.75 2.75 6.76 2.1 8.05 5.09 1.06 2.47-1.47 5-3.9 6.16-3.85 1.84-8.13 2.58-12.22 3.83s-8.27 3.17-10.64 6.67c-3 4.3-3.17 10.52-7.37 13.65-3.01 2.25-7.2 2.1-10.87 1.28-3.68-.82-7.28-2.26-11.06-2.25-3.78.01-7.92 1.98-8.86 5.61-.7 2.72.56 5.6 2.43 7.67 2 1.95 4.2 3.71 6.53 5.25 6.03 4.56 15.84 16.06 14.26 18.81-1.59 2.75-11.2-3.91-16.8-5.9a31.8 31.8 0 0 1-6.48-2.7c-4.1-2.57-6.78-6.84-9.92-10.5-4.03-4.72-9.02-8.64-12.74-13.52a139.47 139.47 0 0 0 28.84 115.05 140.2 140.2 0 0 0 215.18 2.32 139.63 139.63 0 0 0 31.32-114.4c-.6.15-1.21.25-1.83.28ZM206.07 95.74a5.48 5.48 0 0 1 4.45.39c.7.28 1.33.68 1.88 1.18.7.74 1.18 1.66 1.36 2.66a7.87 7.87 0 0 1-.54 5.3 5.9 5.9 0 0 1-4.17 3.17c-.75.16-1.52.03-2.18-.35a1.72 1.72 0 0 1-.74-1.96c.23-.64.9-1 1.29-1.58a3.05 3.05 0 0 0-.25-3.08 23.3 23.3 0 0 1-1.7-2.77c-.4-1.03-1.68-2.44.6-2.96Zm-7.41 8.26c.12-.78.46-1.52.97-2.11a1.68 1.68 0 0 1 2.14-.31c.4.62.68 1.31.81 2.04.06.97-.12 1.94-.53 2.82a2.1 2.1 0 0 1-2.45 1.06c-1.21-.5-1.24-2.22-.94-3.5Zm-75.51-33.76c.26-.72.72-1.35 1.33-1.82a10.15 10.15 0 0 1 4.48-2.19l-.47-.86c-1.54-.78-1.44-3.2-.23-4.41a7.74 7.74 0 0 1 4.73-1.71c3.47-.48 6.98-.41 10.42.21 1.7.37 3.67 1.34 3.67 3.08a3.14 3.14 0 0 1-2.12 2.62c-1.1.46-2.36.56-3.45.93-2.23.7-4.02 2.36-6.01 3.6a18.43 18.43 0 0 1-10.57 2.8c-.4 0-.8-.08-1.18-.24a1.8 1.8 0 0 1-.6-2Zm12.3 15c-.79.52-1.72.75-2.66.68-1.57 0-3.32-.12-4.4-1.28-.45-.61-.84-1.26-1.18-1.94-1.18-1.92-4.72.9-7.68-2.26-2.95-3.15-2.48-5-1.28-5.39 4.1-1.34 6.35-.21 9.46.51 3.13.62 5.9 2.4 7.78 4.97.94 1.43 1.3 3.62-.04 4.71Zm21.53 137.67c-4.73 9.43-13.22 16.45-20.95 23.72-7.73 7.26-15.27 15.74-17.08 26.18-.83 4.82-.55 10.26-3.77 13.95a3.04 3.04 0 0 1-1.98 1.18c-1.4.1-2.37-1.32-2.95-2.56-5.35-11.06-7.09-23.58-7.29-35.82.06-2.91-.14-5.83-.59-8.71a43.65 43.65 0 0 0-1.8-6.03 39.26 39.26 0 0 0-5.18-8.6c-4.33-5.7-8.1-12-9.66-18.97-1.54-6.97-.62-14.75 3.7-20.46a20.5 20.5 0 0 1 22.67-6.72c4.73 1.71 8.61 5.1 12.44 8.35 6.5 5.5 13.58 10.92 21.96 12.47 2.43.46 5 .59 7.22 1.67a11.39 11.39 0 0 1 5.84 9.3c.17 3.85-.72 7.67-2.58 11.05Zm9.45-133.1c-1.93.61-3.97 1.08-5.9 1.86a27.02 27.02 0 0 0-6.6 4.18c-1.93 1.38-4.73-.89-4.8-3.26-.1-2.37 1.53-4.43 2.98-6.3 1.45-1.88 2.93-4.08 2.59-6.44-.34-2.36-2.67-4.25-5.01-5.25a4.72 4.72 0 0 1-2.45-1.59c-.73-1.18-.1-2.77.76-3.87 2.72-3.53 7.33-4.9 11.64-5.9 3.69-.88 7.39-1.66 11.1-2.35 6.98-1.32 14.52-2.36 20.91.78a6.42 6.42 0 0 1 2.97 2.46c.46.92.66 1.95.58 2.97-.22 5.36-4.54 9.6-8.9 12.74a72.06 72.06 0 0 1-19.9 9.97h.03Z" fill="#3843D0"/><path d="M130.24 291.62a54.62 54.62 0 1 1-109.24 0 54.62 54.62 0 0 1 109.24 0Z" fill="#FEC14C"/><path d="M339.13 95.18a46.06 46.06 0 1 1-92.13 0 46.06 46.06 0 0 1 92.13 0Z" fill="#FFAEBC"/><path d="M106.16 48.78a31.38 31.38 0 1 1-62.76 0 31.38 31.38 0 0 1 62.76 0Z" fill="#FEC14C"/><path d="M280.36 98.8a15.23 15.23 0 1 0 30.47 0 15.23 15.23 0 0 0-30.47 0Z" fill="#fff"/><path fill-rule="evenodd" clip-rule="evenodd" d="M282.91 74.56c-8.35-2.8-11.13-2.37-8.48 5.46 1.72 5.1 4.57 8.67 9.05 10.39 4.77 1.83 18.18-1.04 22.69-3.15-1.32 4.74 2.92 18.55 4.57 18.55 1.65 0 9.15-12.09 2.74-24.85-2.6-5.16-11.02-9.45-17.24-11.16-6.32-1.73-4.93 3.46-5.7 3.43-1.28-.03-3.78-2.83-4.79-2.57-3.6.95-.2 4.79-2.84 3.9Z" fill="#BF5878"/><path fill-rule="evenodd" clip-rule="evenodd" d="M295.43 81.56c0-.77-.63-1.4-1.4-1.4a18.12 18.12 0 1 0 16.6 10.86 1.4 1.4 0 1 0-2.56 1.12 15.32 15.32 0 1 1-14.04-9.18c.77 0 1.4-.63 1.4-1.4Z" fill="#040237"/><path fill-rule="evenodd" clip-rule="evenodd" d="M287.94 93.13a1.4 1.4 0 0 0-1.65 1.1l-1.5 7.64a4.4 4.4 0 0 0 4.42 5.25l2.5-.06a1.4 1.4 0 1 0-.06-2.8l-2.5.06a1.6 1.6 0 0 1-1.61-1.91l1.5-7.64a1.4 1.4 0 0 0-1.1-1.64Z" fill="#040237"/><path d="M89.36 283.07a15.6 15.6 0 1 1-31.2 0 15.6 15.6 0 0 1 31.2 0Z" fill="#fff"/><path fill-rule="evenodd" clip-rule="evenodd" d="M90.74 291.67c1.23 8.69 2.95 18.1-6.08 22.43-4.74 2.27-12.72 1.82-17.19-.97-3.28-2.05-5.7-5.27-7.37-8.76-1.67-3.48-2.65-7.26-3.54-11.02-1.18-5.03-2.14-11.48-.5-16.39 1.34-4.02 4.38-7.3 7.8-9.8 5.75-4.22 12.75-5.51 19.88-5.64 1.1-.01 2.31.06 3.16.77 1.13.95 1.08 7.89.35 9.85-9.3 1.9-18.14 2.48-27.43 4.38-.72 4.17-.91 8.44-.55 12.65.18.35 4.66.56 8.03 1.3 2.59.55 4.87 2 7.24 3.16 1.94.95 4.66 2.14 6.8 1.83 2.94-.43 5.69-3.74 8.26-3.88.62-.03 1.07-.37 1.14.09Z" fill="#FF7029"/><path fill-rule="evenodd" clip-rule="evenodd" d="M74.1 267.88c0-.77.63-1.4 1.4-1.4a18.12 18.12 0 1 1-16.6 10.86 1.4 1.4 0 1 1 2.56 1.12 15.32 15.32 0 1 0 14.04-9.18 1.4 1.4 0 0 1-1.4-1.4Z" fill="#040237"/><path fill-rule="evenodd" clip-rule="evenodd" d="M81.59 279.45a1.4 1.4 0 0 1 1.64 1.1l2.24 11.31a1.4 1.4 0 0 1-1.4 1.68l-6.26-.16a1.4 1.4 0 0 1 .07-2.8l4.5.11-1.9-9.6a1.4 1.4 0 0 1 1.1-1.64Z" fill="#040237"/><path d="M75.03 64.06c6.84 0 12.38-6.25 12.38-13.96 0-7.71-5.54-13.96-12.38-13.96-6.84 0-12.38 6.25-12.38 13.96 0 7.7 5.54 13.96 12.38 13.96Z" fill="#fff"/><path fill-rule="evenodd" clip-rule="evenodd" d="M86.2 33.3a9.66 9.66 0 0 0-5.06-2.35A22.28 22.28 0 0 0 68.6 32.7c-2.1.9-4 2.18-5.64 3.76-.91.97-1.64 2.09-2.15 3.31a16.46 16.46 0 0 0-1.23 3.6c-.97 4.61.34 9.2 2.55 13.25a45.5 45.5 0 0 0 3.94 5.88c.7.9 1.4 1.8 2.13 2.68l.88 1.1.45.56.14.18.1.13.05.07a1.26 1.26 0 0 0 1.36.56 1.2 1.2 0 0 0 .88-1.16c-1.04-8.06 2.21-16.3 8.23-21.72a23.35 23.35 0 0 1 5.63-3.73 1.01 1.01 0 0 0 .52-.65 1.1 1.1 0 0 0 1.33-.52c1.36-2.3.23-5.01-1.57-6.7Z" fill="#6AC7B7"/><path fill-rule="evenodd" clip-rule="evenodd" d="M76.38 36c0-.6.48-1.07 1.07-1.07a13.71 13.71 0 1 1-12.57 8.22 1.07 1.07 0 0 1 1.96.85 11.58 11.58 0 1 0 10.6-6.94c-.58 0-1.06-.47-1.06-1.06Z" fill="#040237"/><path fill-rule="evenodd" clip-rule="evenodd" d="M82.05 44.74c.58-.12 1.14.26 1.26.84l1.68 8.55a1.07 1.07 0 0 1-1.07 1.28l-4.73-.11a1.07 1.07 0 0 1 .05-2.14l3.4.08L81.2 46c-.12-.58.26-1.14.84-1.25Z" fill="#040237"/><circle cx="237.5" cy="25.5" r="6.5" fill="#3843D0"/><circle cx="158.5" cy="331.5" r="6.5" fill="#FEC14C"/><circle cx="325.5" cy="224.5" r="6.5" fill="#6AC7B7"/></svg>