<?xml version="1.0" encoding="UTF-8"?>
<svg width="149px" height="27px" viewBox="0 0 149 27" version="1.1" xmlns="http://www.w3.org/2000/svg" xmlns:xlink="http://www.w3.org/1999/xlink">
    <title>booking-com</title>
    <defs>
        <polygon id="path-1" points="0 0 148.919753 0 148.919753 24.9613879 0 24.9613879"></polygon>
        <polygon id="path-3" points="0 0 148.919753 0 148.919753 24.9613879 0 24.9613879"></polygon>
        <polygon id="path-5" points="0 0 148.919753 0 148.919753 24.9613879 0 24.9613879"></polygon>
        <polygon id="path-7" points="0 0 148.919753 0 148.919753 24.9613879 0 24.9613879"></polygon>
        <polygon id="path-9" points="0 0 148.919753 0 148.919753 24.9613879 0 24.9613879"></polygon>
        <polygon id="path-11" points="0 0 148.919753 0 148.919753 24.9613879 0 24.9613879"></polygon>
        <polygon id="path-13" points="0 0 148.919753 0 148.919753 24.9613879 0 24.9613879"></polygon>
        <polygon id="path-15" points="0 0 148.919753 0 148.919753 24.9613879 0 24.9613879"></polygon>
        <polygon id="path-17" points="0 0 148.919753 0 148.919753 24.9613879 0 24.9613879"></polygon>
        <polygon id="path-19" points="0 0 148.919753 0 148.919753 24.9613879 0 24.9613879"></polygon>
        <polygon id="path-21" points="0 0 148.919753 0 148.919753 24.9613879 0 24.9613879"></polygon>
        <polygon id="path-23" points="0 0 148.919753 0 148.919753 24.9613879 0 24.9613879"></polygon>
        <polygon id="path-25" points="0 0 148.919753 0 148.919753 24.9613879 0 24.9613879"></polygon>
        <polygon id="path-27" points="0 0 148.919753 0 148.919753 24.9613879 0 24.9613879"></polygon>
    </defs>
    <g id="ðŸ-Logos" stroke="none" stroke-width="1" fill="none" fill-rule="evenodd">
        <g id="booking-com" transform="translate(0.000000, 0.500000)">
            <g id="Clipped" transform="translate(0.000000, 0.500000)">
                <mask id="mask-2" fill="white">
                    <use xlink:href="#path-1"></use>
                </mask>
                <g id="a"></g>
                <path d="M128.42534,5.93682639 C128.452395,5.90502034 128.490273,5.91138155 128.525445,5.91138155 C129.17838,5.92228648 129.831315,5.87503177 130.481545,5.94682257 C131.127266,6.01770463 131.788318,6.37574987 131.957864,7.16817489 C131.977705,7.26177555 132.010171,7.35264997 132.031816,7.44625064 C132.05346,7.54076004 132.076908,7.60618963 132.186031,7.48805287 C132.551278,7.08820539 132.930954,6.70380656 133.389993,6.40755592 C134.436797,5.71589872 135.705531,5.45143858 136.938751,5.66783808 C138.210351,5.87594052 139.176227,6.53568887 139.77956,7.70342527 C139.923856,7.98331851 139.937383,7.98967972 140.122261,7.74159253 C140.6374,7.05172848 141.311579,6.49871476 142.086478,6.13038892 C143.091531,5.65631189 144.213683,5.49373864 145.310572,5.66329436 C146.838296,5.88593671 147.941252,6.67290925 148.498592,8.16779359 C148.719543,8.75847738 148.825059,9.36915353 148.890894,9.99164337 C148.894501,10.0198144 148.890894,10.0516205 148.919753,10.0716129 L148.919753,19.6352377 C148.266818,19.6352377 147.612079,19.6452339 146.960045,19.6279677 C146.433368,19.6116103 145.929237,19.4934736 145.565794,19.0590938 C145.312034,18.7510927 145.176355,18.3615771 145.183412,17.9613307 C145.174393,15.88485 145.174393,13.8083693 145.17259,11.7318887 C145.17259,11.2193569 145.151847,10.7068251 145.035509,10.2051983 C144.900233,9.61178826 144.54671,9.16377733 143.799983,9.12197509 C142.674481,9.06018048 141.890778,9.60724453 141.300972,10.5105363 C140.949253,11.048513 140.774295,11.6555541 140.639018,12.2771352 C140.542809,12.7494206 140.498053,13.2308777 140.505545,13.7129512 C140.506447,15.6204054 140.503741,17.5269509 140.510956,19.4344052 C140.510956,19.6070666 140.460453,19.6388726 140.30263,19.6379639 C139.188259,19.6318439 138.073864,19.6318439 136.959493,19.6379639 C136.812493,19.6379639 136.755676,19.6170628 136.755676,19.4462189 C136.762891,16.8199479 136.766498,14.1936769 136.758382,11.5692234 C136.756578,11.0403343 136.715093,10.5132626 136.502258,10.0152707 C136.196533,9.3028152 135.607629,9.06563294 134.896975,9.11016141 C134.110567,9.1592336 133.546012,9.58725216 133.099599,10.2006546 C132.693769,10.7549886 132.447566,11.3847483 132.293351,12.0554016 C132.155588,12.6781313 132.090215,13.3149006 132.098552,13.9528597 C132.10216,15.7830707 132.09765,17.6123729 132.103963,19.4416751 C132.103963,19.6034316 132.061577,19.6388726 131.905557,19.6388726 C130.791489,19.6323437 129.677391,19.6323437 128.563322,19.6388726 C128.413616,19.6388726 128.358604,19.6125191 128.359495,19.4444014 C128.365818,17.754137 128.363113,16.0638726 128.364917,14.3736083 C128.364917,14.3136312 128.349585,14.2527453 128.382953,14.1964032 C128.408205,14.2191218 128.408205,14.2491103 128.408205,14.2809164 C128.408205,16.0111655 128.408205,17.7432321 128.4055,19.4734812 C128.403696,19.4980173 128.443377,19.4752987 128.420831,19.4789337 C128.414518,19.4789337 128.411812,19.4771162 128.410911,19.4698462 C128.4055,19.4162303 128.409107,19.3626144 128.409107,19.3089985 L128.409107,6.15219878 C128.409107,6.07949924 128.391972,6.00679969 128.42534,5.93864387" id="Path" fill="#0093CF" fill-rule="nonzero" mask="url(#mask-2)"></path>
            </g>
            <g id="Clipped" transform="translate(0.000000, 0.500000)">
                <mask id="mask-4" fill="white">
                    <use xlink:href="#path-3"></use>
                </mask>
                <g id="c"></g>
                <path d="M61.0133773,0 C61.2830287,0.0872394509 61.5598949,0.152669039 61.8097058,0.299885613 C62.6266724,0.78585655 63.0636384,1.72746858 62.9099559,2.67079944 C62.7514889,3.59938031 62.0472048,4.33677717 61.1324207,4.53190773 C59.8698386,4.79089985 58.6803059,3.99302237 58.4386117,2.68533935 C58.2099126,1.45441844 59.0124635,0.269015355 60.2332819,0.0345322827 C60.267552,0.0272623284 60.3054295,0.0345322827 60.3306811,0 L61.0133773,0 Z" id="Path" fill="#00327B" fill-rule="nonzero" mask="url(#mask-4)"></path>
            </g>
            <g id="Clipped" transform="translate(0.000000, 0.500000)">
                <mask id="mask-6" fill="white">
                    <use xlink:href="#path-5"></use>
                </mask>
                <g id="e"></g>
                <path d="M57.7559155,19.6370552 C56.5212906,19.6079753 55.3245431,19.6734049 54.1277957,19.6007054 C53.4586272,19.5598119 52.9517907,19.2263027 52.6000714,18.6583376 C52.2149838,18.034939 51.9047494,17.3706469 51.559343,16.7245297 C51.1318419,15.9253585 50.7109665,15.1226064 50.2967609,14.3163574 C50.1976518,14.1058074 49.9935709,13.9654704 49.7628691,13.9492247 C49.5904626,13.9253737 49.4165083,13.9147411 49.2425049,13.9174187 C48.9674424,13.9246886 49.0017124,13.8747077 49.0008106,14.1527834 L49.0008106,19.0236528 C49.0008106,19.1745043 48.9953995,19.3262646 49.0026143,19.4771162 C49.0089272,19.5888917 48.9818719,19.6334202 48.8556137,19.6334202 C47.639631,19.628884 46.4236359,19.628884 45.2076533,19.6334202 C45.0949227,19.6334202 45.0606527,19.6007054 45.0660637,19.4916561 C45.0732785,19.3171772 45.0687693,19.1417895 45.0687693,18.9654931 L45.0687693,0.819687341 C45.0687693,0.548881546 45.0417139,0.583413828 45.2951322,0.586140061 C46.0075892,0.593410015 46.7200463,0.559786477 47.4325033,0.611584901 C48.2513779,0.672470768 48.7401776,1.04323843 48.9241538,1.75660269 C48.9845774,1.99651118 48.9999088,2.24459837 49.0008106,2.49268556 L49.0008106,10.2442743 C49.0008106,10.4887265 49.0008106,10.4914527 49.253327,10.4878177 C49.4571438,10.486909 49.6600588,10.479639 49.8638756,10.4660079 C50.1795212,10.4560117 50.4681113,10.284259 50.6304433,10.010727 C51.478177,8.67032918 52.3403402,7.33901881 53.193485,6.00316472 C53.2530067,5.9104728 53.3098229,5.87048805 53.4207497,5.8713968 C54.80959,5.87412303 56.2011358,5.87321429 57.590878,5.87321429 C57.6188352,5.87321429 57.6476942,5.87684926 57.7045104,5.87866675 L57.3987851,6.34394382 C56.2841055,8.01330707 55.1712296,9.68357905 54.0556481,11.3511248 C53.8797208,11.6173318 53.6788951,11.8659482 53.4559217,12.0935689 C53.4108294,12.1390061 53.3639335,12.1735384 53.43067,12.238968 C53.9429176,12.743321 54.2161764,13.4021607 54.5291164,14.0291942 C55.394887,15.7621695 56.4193822,17.402453 57.411411,19.0609113 L57.7559155,19.6370552" id="Path" fill="#00327B" fill-rule="nonzero" mask="url(#mask-6)"></path>
            </g>
            <g id="Clipped" transform="translate(0.000000, 0.500000)">
                <mask id="mask-8" fill="white">
                    <use xlink:href="#path-7"></use>
                </mask>
                <g id="g"></g>
                <path d="M68.8278585,7.42898449 C69.0533196,7.21542959 69.2526272,6.99096975 69.4844012,6.79922471 C70.4223193,6.01861337 71.5045325,5.62694459 72.7130039,5.57423742 C73.5445044,5.53788765 74.3633791,5.61240468 75.1479837,5.90956406 C76.4015473,6.38483732 77.1807408,7.30721276 77.5811597,8.57491103 C77.7932955,9.27320365 77.8976251,10.0002102 77.8904923,10.7304525 C77.8950015,12.0099644 77.8904923,13.2894764 77.8931979,14.5708058 C77.8959034,16.1820094 77.9031181,17.793213 77.9076274,19.4053254 C77.9076274,19.666135 77.9346827,19.6325114 77.6731478,19.6297852 C77.0093904,19.6225153 76.3438293,19.65523 75.67917,19.6061579 C74.6447545,19.5307321 74.0360096,18.9100597 73.9918192,17.8622776 C73.9485307,16.8490277 73.9773897,15.8357778 73.9746842,14.8207105 C73.970175,13.6793277 73.9791934,12.5397623 73.9710768,11.3983795 C73.9741836,11.0543752 73.9351084,10.7113015 73.8547389,10.3769509 C73.6635479,9.62723691 73.1909814,9.2637392 72.4217082,9.23738561 C70.8957876,9.18740468 69.5267879,10.0734304 69.0713565,11.8963714 C68.9620659,12.3352898 68.9066392,12.7860635 68.906319,13.2385867 C68.9018097,15.2978012 68.9018097,17.3551983 68.9072208,19.4144128 C68.9072208,19.584348 68.8756563,19.6370552 68.6952874,19.6361579 C67.52712,19.6263016 66.3588926,19.6259987 65.1907203,19.6352377 C65.0374067,19.6352377 65.0058422,19.5898005 65.0058422,19.4444014 C65.0085477,15.4404741 65.0058422,11.4383643 65.0040385,7.4353457 C65.0040385,6.95825496 64.9995293,6.48116421 64.9977256,6.00498221 C64.9977256,5.93228266 64.9823942,5.8632181 65.099634,5.86685308 C65.7940541,5.88684545 66.4911798,5.82686833 67.1828944,5.89865913 C67.9431492,5.98044611 68.6060048,6.36938866 68.7836681,7.30176029 C68.7908829,7.3408363 68.8098216,7.37809481 68.8278585,7.42898449" id="Path" fill="#00327B" fill-rule="nonzero" mask="url(#mask-8)"></path>
            </g>
            <g id="Clipped" transform="translate(0.000000, 0.500000)">
                <mask id="mask-10" fill="white">
                    <use xlink:href="#path-9"></use>
                </mask>
                <g id="i"></g>
                <path d="M111.676287,9.51455262 C111.676287,9.84079181 111.671778,10.1661223 111.679894,10.4923615 C111.681698,10.6059545 111.656446,10.6523005 111.531992,10.6495742 C110.909719,10.643213 110.285643,10.6632054 109.662469,10.6423043 C108.9933,10.6204944 108.482856,10.2742628 108.28896,9.55453737 C108.212303,9.27282664 107.962492,9.14832867 107.716288,9.06018048 C106.41132,8.60126462 104.82227,9.02383071 103.935757,10.0988752 C103.56102,10.5579342 103.298455,11.0992212 103.169189,11.6791815 C103.014734,12.3133683 102.998734,12.9737809 103.122293,13.6148068 C103.349558,14.7707295 103.972733,15.6403978 105.038713,16.1565646 C105.837747,16.5436896 106.689088,16.6463777 107.553055,16.5073399 C108.41612,16.3692107 109.187197,15.9857206 109.888831,15.4577402 C110.188244,15.2305541 110.477736,14.9924631 110.724841,14.7062087 C110.789774,14.6316917 110.82224,14.6171518 110.879958,14.7134786 C111.375973,15.5477059 111.876496,16.3801157 112.376118,17.2134342 C112.434738,17.3106698 112.407683,17.3806431 112.333732,17.4642476 C111.869282,17.9985892 111.314647,18.4220641 110.71943,18.7937405 C110.067207,19.2004332 109.35661,19.5032764 108.612722,19.6915798 C107.588613,19.9464063 106.525958,20.0040616 105.480616,19.861515 C104.358722,19.7197509 103.317092,19.3617056 102.371959,18.741942 C101.150839,17.9555791 100.220887,16.7856824 99.7259476,15.4132117 C99.3905744,14.503961 99.2349402,13.5373882 99.2678107,12.5679334 C99.3255287,10.6677491 99.9676419,9.00838205 101.329427,7.66434926 C102.10994,6.89836186 103.059312,6.32942542 104.099893,6.00407346 C104.862809,5.75982547 105.65617,5.6255162 106.456412,5.60513472 C107.538702,5.56219472 108.617382,5.75595781 109.618278,6.1730999 C110.3623,6.48843416 111.017941,6.93371886 111.412948,7.6816154 C111.597827,8.03420819 111.686207,8.40861083 111.679894,8.80845831 C111.675385,9.04382308 111.678993,9.27918785 111.678993,9.51455262 L111.676287,9.51455262 L111.676287,9.51455262 Z" id="Path" fill="#0093CF" fill-rule="nonzero" mask="url(#mask-10)"></path>
            </g>
            <g id="Clipped" transform="translate(0.000000, 0.500000)">
                <mask id="mask-12" fill="white">
                    <use xlink:href="#path-11"></use>
                </mask>
                <g id="k"></g>
                <path d="M58.8742025,12.754226 L58.8742025,6.03587951 C58.8742025,5.95681876 58.8471471,5.86594433 58.9896386,5.87048805 C59.7020956,5.88866294 60.4154545,5.838682 61.1261078,5.89865913 C62.0730444,5.97953737 62.6502247,6.56658617 62.7449184,7.5234939 C62.7629553,7.69706406 62.77017,7.87063421 62.77017,8.0469306 C62.77017,11.8427555 62.7692682,15.6376716 62.7737774,19.4344052 C62.7737774,19.5925267 62.7395073,19.6361464 62.5780772,19.6343829 C61.4101888,19.6261502 60.2423003,19.6252415 59.0744119,19.6343829 C58.9084726,19.6361464 58.8814172,19.5861655 58.8823191,19.4325877 C58.8868283,17.2061642 58.8859265,14.9797407 58.8859265,12.7533172 L58.8742025,12.7533172" id="Path" fill="#00327B" fill-rule="nonzero" mask="url(#mask-12)"></path>
            </g>
            <g id="Clipped" transform="translate(0.000000, 0.500000)">
                <mask id="mask-14" fill="white">
                    <use xlink:href="#path-13"></use>
                </mask>
                <g id="m"></g>
                <path d="M96.3773995,19.7815455 C95.1734373,19.826074 94.0957333,18.7864705 94.1002285,17.4906012 C94.1047518,16.2001843 95.1608115,15.206018 96.3656756,15.1978393 C97.6129263,15.1887519 98.6617713,16.2610702 98.6581732,17.4969624 C98.6545565,18.7237672 97.6309632,19.8233477 96.3764977,19.7815455" id="Path" fill="#0093CF" fill-rule="nonzero" mask="url(#mask-14)"></path>
            </g>
            <g id="Clipped" transform="translate(0.000000, 0.500000)">
                <mask id="mask-16" fill="white">
                    <use xlink:href="#path-15"></use>
                </mask>
                <g id="o"></g>
                <path d="M92.5644016,18.9455008 C92.527426,18.8400864 92.5445611,18.7310371 92.5445611,18.6238053 L92.5445611,6.11584901 C92.5445611,5.86685308 92.5445611,5.86685308 92.2920447,5.86685308 L90.5839515,5.86685308 C90.6344547,5.8159634 90.6975839,5.838682 90.7553019,5.838682 C91.3117399,5.83686451 91.8690797,5.84049949 92.4255176,5.83413828 C92.5454629,5.83322954 92.5896533,5.85685689 92.5896533,5.9904423 C92.5842422,10.2251906 92.5842422,14.4590302 92.5806348,18.6946873 C92.5806348,18.7782918 92.5707146,18.8618963 92.5644016,18.9455008" id="Path" fill="#002F5F" fill-rule="nonzero" mask="url(#mask-16)"></path>
            </g>
            <g id="Clipped" transform="translate(0.000000, 0.500000)">
                <mask id="mask-18" fill="white">
                    <use xlink:href="#path-17"></use>
                </mask>
                <g id="q"></g>
                <path d="M128.42534,5.93682639 L128.42534,19.5988879 C128.373033,19.5034698 128.39107,19.4371314 128.39107,19.3735193 L128.389266,14.4326767 C128.389266,14.3527072 128.385659,14.2745552 128.383855,14.1964032 L128.380248,9.30735892 C128.380248,8.26866421 128.379346,7.22906075 128.382052,6.19218353 C128.382052,6.10767031 128.347782,6.01134342 128.42534,5.93773513" id="Path" fill="#0085A7" fill-rule="nonzero" mask="url(#mask-18)"></path>
            </g>
            <g id="Clipped" transform="translate(0.000000, 0.500000)">
                <mask id="mask-20" fill="white">
                    <use xlink:href="#path-19"></use>
                </mask>
                <g id="s"></g>
                <path d="M8.7857676,15.4813676 C8.32853252,16.0684164 7.69453594,16.3165036 6.97847154,16.3310435 C5.90527677,16.3528533 4.83388568,16.3346784 3.76159276,16.3401309 C3.64615668,16.3401309 3.62451242,16.3001462 3.62631611,16.1956406 C3.62992349,15.5440709 3.6281198,14.8915925 3.6281198,14.2400229 L3.63353086,14.2400229 C3.63353086,13.617533 3.62090504,12.9950432 3.6362364,12.3734621 C3.65517513,11.5983033 4.07092537,11.2020907 4.83568937,11.2020907 C5.51207263,11.2020907 6.19025958,11.1893683 6.86664284,11.2066345 C7.7342171,11.2275356 8.47012208,11.5283299 8.94629589,12.3043976 C9.50453754,13.2113244 9.43058631,14.6535015 8.7857676,15.4813676 M3.62721795,6.47207677 L3.63262902,6.47207677 C3.63262902,5.95318378 3.62090504,5.43338205 3.63533455,4.91630656 C3.6587825,4.16204881 4.00509073,3.76856253 4.75091601,3.72948653 C5.47239148,3.69131927 6.19927802,3.65587824 6.91804796,3.76401881 C7.81448124,3.89851296 8.40068007,4.46375191 8.57293234,5.35613879 C8.72354034,6.13947636 8.62253377,6.88464667 8.12201016,7.53076385 C7.72159128,8.04874809 7.1588404,8.24867184 6.52845121,8.25685053 C5.6130792,8.26775547 4.69680534,8.25685053 3.78053149,8.26321174 C3.65156775,8.26321174 3.62270873,8.22504448 3.62451242,8.10145526 C3.63172717,7.55802618 3.6281198,7.01550585 3.6281198,6.47298551 M10.6769352,9.77536223 C10.5443641,9.70357143 10.4163022,9.62451068 10.2738108,9.54181495 C10.37121,9.45730173 10.4514741,9.38460219 10.5344438,9.31644637 C10.8383653,9.06018048 11.1269555,8.78937468 11.367748,8.47131418 C12.0892234,7.51077148 12.3669915,6.4193696 12.3020587,5.22982334 C12.2091687,3.52138409 11.4209568,2.24550712 9.94373574,1.40946238 C8.90661474,0.82150483 7.77119271,0.610676157 6.59699138,0.598862481 C5.05185705,0.586463016 3.50665044,0.586160093 1.96151145,0.597953737 C1.33292594,0.600679969 0.819776509,0.865124555 0.41935762,1.35675521 C0.198405756,1.6293785 0.0937918118,1.95107397 0,2.28185689 L0,19.5625381 C0.0649327928,19.5607206 0.131669274,19.5570857 0.198405756,19.5570857 L6.63035962,19.5570857 C7.55311224,19.564478 8.47069934,19.4176954 9.34581294,19.1227059 C10.6390577,18.6765125 11.7050377,17.9277072 12.3841265,16.7036286 C13.0560006,15.4895463 13.2048049,14.1854982 12.9216258,12.8369217 C12.636643,11.4810752 11.9097564,10.4369281 10.6787389,9.77445348" id="Shape" fill="#00327B" fill-rule="nonzero" mask="url(#mask-20)"></path>
            </g>
            <g id="Clipped" transform="translate(0.000000, 0.500000)">
                <mask id="mask-22" fill="white">
                    <use xlink:href="#path-21"></use>
                </mask>
                <g id="u"></g>
                <path d="M88.4754394,14.2790989 C88.1029777,15.2968925 87.2813975,15.8821238 86.2000861,15.8966637 C84.8473196,15.9148386 83.9057941,15.2496378 83.4819273,13.9546772 C83.1094655,12.8187468 83.0941342,11.6755465 83.5342342,10.5559736 C83.929242,9.55181113 84.6931042,9.0401881 85.7617898,9.00474708 C86.3227369,8.9847547 86.8746657,9.04109685 87.3860114,9.30099771 C88.0912537,9.66176919 88.4366601,10.291529 88.6170289,11.0321556 C88.7279558,11.4865277 88.7595204,11.9481698 88.7631277,12.4543404 C88.7550111,13.0495679 88.6954894,13.6766014 88.4754394,14.2790989 M92.3966586,5.84776945 C91.965577,5.85685689 91.5335936,5.84958693 91.102512,5.85231317 C90.9302597,5.85413066 90.7562037,5.83413828 90.5839515,5.86594433 C89.8705926,5.87684926 89.3790874,6.22671581 89.0805769,6.87737672 C88.819606,6.63306773 88.5322192,6.41907924 88.2238248,6.23943823 C87.0369977,5.57151118 85.7554768,5.41248094 84.4360786,5.59422979 C82.1381792,5.91501652 80.5761848,7.21452084 79.7555064,9.38187595 C79.0818287,11.1602885 79.06289,12.988682 79.5679228,14.815258 C79.9106237,16.055694 80.5473258,17.1261947 81.5339435,17.9631482 C82.7622555,19.0045691 84.2006972,19.4053254 85.7843359,19.3289908 C86.8259661,19.2790099 87.7828229,18.9863943 88.5980902,18.3030186 C88.6188326,18.2866612 88.6395751,18.2557639 88.6828636,18.2775737 C88.7009005,18.5192997 88.6900783,18.7646607 88.6639249,19.0082041 C88.5620164,19.9605681 88.1174072,20.6821111 87.2372071,21.0865023 C86.2794484,21.5272433 85.2747938,21.5045247 84.2611208,21.3545819 C83.6983699,21.2709774 83.1617725,21.0828673 82.6179604,20.9238371 C81.9533011,20.7293658 81.5050845,20.9429207 81.1993592,21.5645018 C81.1705002,21.6235702 81.1407393,21.6826385 81.1154877,21.7444331 C80.8837137,22.3305732 80.6573508,22.9194395 80.4201657,23.5028533 C80.3705643,23.6246251 80.3949141,23.6736973 80.5085465,23.7354919 C81.5113974,24.2807384 82.5809848,24.6260613 83.7010754,24.8196238 C84.0230339,24.8741484 84.346796,24.9150419 84.6705581,24.9613879 L86.1441718,24.9613879 C86.1676197,24.9250381 86.2073009,24.9323081 86.2415709,24.9304906 C86.7122906,24.895762 87.1791092,24.8197455 87.6367241,24.7033045 C88.8524103,24.3988752 89.9562678,23.8763472 90.8563085,22.9803254 C91.9718899,21.8734748 92.4805301,20.4994535 92.5644016,18.9455008 C92.5589906,18.87371 92.5616961,18.8001017 92.5616961,18.7283109 L92.5616961,6.13038892 C92.5616961,6.09403915 92.5571869,6.05768937 92.5616961,6.0213396 C92.5833404,5.88866294 92.5346408,5.84504321 92.3966586,5.84867819" id="Shape" fill="#00327B" fill-rule="nonzero" mask="url(#mask-22)"></path>
            </g>
            <g id="Clipped" transform="translate(0.000000, 0.500000)">
                <mask id="mask-24" fill="white">
                    <use xlink:href="#path-23"></use>
                </mask>
                <g id="w"></g>
                <path d="M123.185625,12.6124619 C123.183821,13.6338904 122.989924,14.4672089 122.465953,15.2014743 C122.045353,15.8045561 121.417267,16.2285354 120.703749,16.3910206 C119.959727,16.5682257 119.22743,16.5264235 118.531206,16.2156329 C117.827767,15.9012074 117.322734,15.3632308 116.989052,14.6634977 C116.682629,14.0151901 116.539819,13.3006697 116.573302,12.5833821 C116.612983,11.5237862 116.902475,10.5477949 117.693392,9.79353711 C118.404046,9.11470513 119.267111,8.86661795 120.226673,8.96930605 C121.601084,9.11470513 122.470462,9.91803508 122.943028,11.1848246 C123.127906,11.6800902 123.210876,12.2071619 123.184723,12.6115531 M126.819155,10.8740341 C126.686303,10.2970963 126.477001,9.74079862 126.196883,9.22011947 C125.606455,8.08835465 124.701756,7.1543148 123.593258,6.53205389 C122.705843,6.0295183 121.751692,5.74599009 120.738921,5.63512328 C120.054458,5.56045849 119.363428,5.57205868 118.681814,5.66965557 C117.95132,5.77143493 117.239765,5.98771607 116.575105,6.31122903 C115.438782,6.86647178 114.512587,7.66798424 113.838008,8.7466637 C113.077753,9.95983732 112.726936,11.2929652 112.74858,12.7269637 C112.755795,13.0831914 112.763009,13.4348754 112.809905,13.7911032 C112.908939,14.5698549 113.133443,15.3270994 113.474565,16.0329753 C113.971713,17.0711127 114.732422,17.9583432 115.679574,18.6047217 C116.716695,19.3189947 117.875565,19.7024847 119.121012,19.8197128 C120.344295,19.9432141 121.579218,19.7731874 122.724782,19.3235384 C123.837541,18.8926065 124.813212,18.1651492 125.547555,17.2188866 C126.072657,16.5462526 126.465664,15.7788985 126.705523,14.9579309 C126.858837,14.4217717 126.958039,13.8710727 127.003132,13.3149212 C127.069868,12.4970513 127.007641,11.6728203 126.819155,10.8749428" id="Shape" fill="#0093CF" fill-rule="nonzero" mask="url(#mask-24)"></path>
            </g>
            <g id="Clipped" transform="translate(0.000000, 0.500000)">
                <mask id="mask-26" fill="white">
                    <use xlink:href="#path-25"></use>
                </mask>
                <g id="y"></g>
                <path d="M39.8534034,12.7396861 C39.8479923,13.6847801 39.6432737,14.573532 39.0435472,15.3250635 C38.3563418,16.1892794 37.4382643,16.5373284 36.3542474,16.4918912 C34.826523,16.4282791 33.6604383,15.3405122 33.3384799,13.7293086 C33.1085096,12.5752034 33.2122217,11.4556304 33.8371998,10.4332931 C34.5271107,9.30372395 35.6877844,8.79028343 36.9882439,8.97294103 C38.4357041,9.17468226 39.2861433,10.0788828 39.6919733,11.4519954 C39.815526,11.8709265 39.86152,12.3025801 39.8534034,12.7396861 M39.9057104,6.36120996 C38.0406963,5.43974326 36.0836941,5.34341637 34.114066,5.97862862 C32.0939347,6.63019827 30.6798427,7.97423106 29.9024529,9.9698335 C29.3613463,11.3656647 29.2711619,12.8096594 29.5597521,14.2709202 C29.8907289,15.9611845 30.7159165,17.3588332 32.0849162,18.4057067 C33.3961979,19.4080516 34.8977687,19.8297089 36.5264996,19.8415226 C37.1431083,19.8482076 37.7582168,19.7789324 38.3581455,19.6352377 C40.4341912,19.1281584 42.0024985,17.9504258 42.9530424,16.009348 C43.7232175,14.4354029 43.8729237,12.7687659 43.5076767,11.0612354 C43.0486379,8.92296009 41.8573015,7.32357016 39.9057104,6.36120996" id="Shape" fill="#00327B" fill-rule="nonzero" mask="url(#mask-26)"></path>
            </g>
            <g id="Clipped" transform="translate(0.000000, 0.500000)">
                <mask id="mask-28" fill="white">
                    <use xlink:href="#path-27"></use>
                </mask>
                <g id="A"></g>
                <path d="M24.0729311,14.8706914 C23.5435484,15.8584964 22.6867963,16.3855681 21.5748222,16.4837125 C19.7819557,16.6427428 18.470674,15.4931812 18.088292,13.827453 C18.059433,13.69932 18.0395924,13.5675521 18.0170463,13.4366929 C17.9789599,13.1982018 17.9635587,12.9565912 17.9710522,12.71515 C17.9737578,11.7437023 18.1947096,10.838593 18.8232952,10.0761566 C19.577237,9.15741612 20.573775,8.82118073 21.7218229,8.97384977 C23.0177732,9.14560244 23.8790345,9.90894764 24.3128217,11.1275737 C24.7655475,12.3998157 24.7141424,13.6702402 24.0720292,14.8706914 M24.6672465,6.37484113 C22.9916197,5.52970895 21.2158882,5.37976614 19.4076903,5.81414591 C17.254086,6.33394764 15.6776621,7.60891586 14.7631919,9.65813421 C14.154447,11.0176157 14.0173666,12.4497966 14.2338093,13.9183274 C14.4700925,15.5358922 15.1591016,16.9235447 16.3666712,18.0258516 C17.7528059,19.2944586 19.4176106,19.8251652 21.2636859,19.8406139 C21.9770448,19.8497013 22.6886,19.7561007 23.3758054,19.5616294 C25.3706851,18.9891205 26.8569246,17.7877605 27.740732,15.8830325 C28.4405632,14.3772433 28.5830546,12.7887583 28.2583907,11.1684672 C27.8237017,8.99929461 26.6404819,7.3717336 24.6663447,6.37484113" id="Shape" fill="#00327B" fill-rule="nonzero" mask="url(#mask-28)"></path>
            </g>
        </g>
    </g>
</svg>