<svg xmlns="http://www.w3.org/2000/svg" width="1441" height="465" viewBox="0 0 1441 465" fill="none"><rect x="0.648438" y="0.337891" width="1440" height="464" fill="#F5768F"></rect><mask id="mask0_1052_104525" style="mask-type:alpha" maskUnits="userSpaceOnUse" x="0" y="0" width="1441" height="465"><rect x="0.648438" y="0.337891" width="1440" height="464" fill="#F5768F"></rect></mask><g mask="url(#mask0_1052_104525)"><path fill-rule="evenodd" clip-rule="evenodd" d="M58.4062 -31.248H82.4729C84.4059 -31.248 85.9729 -29.681 85.9729 -27.748V-3.74256C85.9729 -1.80957 84.4059 -0.242565 82.4729 -0.242565H58.4062C56.4733 -0.242565 54.9062 -1.80957 54.9062 -3.74257V-27.748C54.9062 -29.681 56.4733 -31.248 58.4062 -31.248ZM54.4062 -27.748C54.4062 -29.9572 56.1971 -31.748 58.4062 -31.748H82.4729C84.682 -31.748 86.4729 -29.9572 86.4729 -27.748V-3.74256C86.4729 -1.53342 84.682 0.257435 82.4729 0.257435H58.4062C56.1971 0.257435 54.4062 -1.53343 54.4062 -3.74257V-27.748ZM634.617 -15.7453C634.617 -7.18462 641.587 -0.242565 650.151 -0.242565C658.714 -0.242565 665.684 -7.18462 665.684 -15.7453C665.684 -24.306 658.714 -31.248 650.151 -31.248C641.587 -31.248 634.617 -24.306 634.617 -15.7453ZM650.151 -31.748C641.312 -31.748 634.117 -24.5834 634.117 -15.7453C634.117 -6.9888 641.18 0.125053 649.906 0.255608V40.5814C641.18 40.712 634.117 47.8258 634.117 56.5823C634.117 65.4204 641.312 72.5851 650.151 72.5851C658.989 72.5851 666.184 65.4204 666.184 56.5823C666.184 47.8297 659.127 40.7182 650.406 40.5816V0.255432C659.127 0.118816 666.184 -6.99264 666.184 -15.7453C666.184 -24.5834 658.989 -31.748 650.151 -31.748ZM517.877 -31.248H492.549C490.964 -31.248 489.68 -29.9635 489.68 -28.379V-15.7759C489.68 -7.19704 496.634 -0.242538 505.213 -0.242538C513.792 -0.242538 520.746 -7.19704 520.746 -15.7759V-28.379C520.746 -29.9635 519.462 -31.248 517.877 -31.248ZM492.549 -31.748C490.688 -31.748 489.18 -30.2397 489.18 -28.379V-15.7759C489.18 -6.9209 496.358 0.257462 505.213 0.257462C514.068 0.257462 521.246 -6.9209 521.246 -15.7759V-28.379C521.246 -30.2397 519.738 -31.748 517.877 -31.748H492.549ZM303.864 -15.7453C303.864 -6.96127 296.756 0.169756 287.992 0.25666V40.5796H299.864C302.073 40.5796 303.864 42.3705 303.864 44.5796V68.5851C303.864 70.7942 302.073 72.5851 299.864 72.5851H275.797C273.588 72.5851 271.797 70.7942 271.797 68.5851V44.5796C271.797 42.3705 273.588 40.5796 275.797 40.5796H287.492V0.253963C278.809 0.0740719 271.797 -7.02015 271.797 -15.7453C271.797 -24.5834 278.992 -31.748 287.83 -31.748C296.668 -31.748 303.864 -24.5834 303.864 -15.7453ZM215.352 72.0851V72.0657L215.852 72.0657V72.0775C224.189 71.8186 230.895 64.9791 230.895 56.5823C230.895 48.0217 223.925 41.0796 215.361 41.0796C206.798 41.0796 199.828 48.0217 199.828 56.5823C199.828 65.1397 206.793 72.0797 215.352 72.0851ZM215.352 72.5851C206.518 72.5797 199.328 65.4171 199.328 56.5823C199.328 47.7443 206.523 40.5796 215.361 40.5796C224.2 40.5796 231.395 47.7443 231.395 56.5823C231.395 65.2565 224.464 72.3187 215.852 72.5777V112.651H215.352V72.5851ZM1300.77 217.239V257.571C1292.19 257.86 1285.32 264.91 1285.32 273.564C1285.32 282.402 1292.48 289.567 1301.32 289.567H1373.85C1382.69 289.567 1389.85 282.402 1389.85 273.564C1389.85 264.726 1382.69 257.561 1373.85 257.561H1301.32L1301.27 257.562V217.239H1313.41C1315.62 217.239 1317.41 215.448 1317.41 213.239V189.234C1317.41 187.025 1315.62 185.234 1313.41 185.234H1289.34C1287.13 185.234 1285.34 187.025 1285.34 189.234V213.239C1285.34 215.448 1287.13 217.239 1289.34 217.239H1300.77ZM1313.39 402.216H1301.27V361.893L1301.35 361.894C1310.19 361.894 1317.39 354.729 1317.39 345.891C1317.39 337.053 1310.19 329.888 1301.35 329.888C1292.52 329.888 1285.32 337.053 1285.32 345.891C1285.32 354.535 1292.2 361.578 1300.77 361.883V402.216H1289.32C1287.11 402.216 1285.32 404.007 1285.32 406.216V417.968H1244.92C1244.79 409.246 1237.67 402.216 1228.92 402.216H1156.39C1147.56 402.216 1140.39 409.38 1140.39 418.219C1140.39 427.057 1147.56 434.221 1156.39 434.221H1228.92C1237.67 434.221 1244.79 427.191 1244.92 418.468H1285.32V430.221C1285.32 432.43 1287.11 434.221 1289.32 434.221H1313.39C1315.6 434.221 1317.39 432.43 1317.39 430.221V418.468H1357.79C1357.93 427.191 1365.07 434.221 1373.82 434.221C1382.66 434.221 1389.86 427.057 1389.86 418.219C1389.86 409.38 1382.66 402.216 1373.82 402.216C1365.07 402.216 1357.93 409.246 1357.79 417.968H1317.39V406.216C1317.39 404.007 1315.6 402.216 1313.39 402.216ZM721.938 474.544H733.676C735.885 474.544 737.676 476.335 737.676 478.544V502.55C737.676 504.759 735.885 506.55 733.676 506.55H709.609C707.4 506.55 705.609 504.759 705.609 502.55V478.544C705.609 476.335 707.4 474.544 709.609 474.544H721.438V434.22C712.677 434.11 705.609 426.974 705.609 418.188V403.857C705.609 402.951 706.344 402.216 707.251 402.216H736.035C736.941 402.216 737.676 402.951 737.676 403.857V418.188C737.676 426.944 730.656 434.061 721.938 434.219V474.544ZM199.289 129.421H158.925C158.639 138.025 151.574 144.912 142.901 144.912C134.227 144.912 127.162 138.025 126.876 129.421H86.7202V128.921H126.867L126.867 128.878V115.573C126.867 114.1 128.061 112.906 129.534 112.906H156.267C157.74 112.906 158.934 114.1 158.934 115.573V128.878L158.934 128.921H199.289V129.421ZM142.901 144.412C134.503 144.412 127.662 137.749 127.376 129.421H127.383V128.921H127.367L127.367 128.878V115.573C127.367 114.377 128.337 113.406 129.534 113.406H156.267C157.464 113.406 158.434 114.377 158.434 115.573V128.878C158.434 137.457 151.479 144.412 142.901 144.412ZM1156.42 289.067C1147.86 289.067 1140.89 282.125 1140.89 273.564C1140.89 265.004 1147.86 258.061 1156.42 258.061C1164.99 258.061 1171.96 265.004 1171.96 273.564C1171.96 282.125 1164.99 289.067 1156.42 289.067ZM1140.39 273.564C1140.39 264.726 1147.59 257.561 1156.42 257.561C1165.26 257.561 1172.46 264.726 1172.46 273.564C1172.46 282.402 1165.26 289.567 1156.42 289.567C1147.59 289.567 1140.39 282.402 1140.39 273.564ZM1228.91 216.739C1220.35 216.739 1213.38 209.797 1213.38 201.237C1213.38 192.676 1220.35 185.734 1228.91 185.734C1237.47 185.734 1244.44 192.676 1244.44 201.237C1244.44 209.797 1237.47 216.739 1228.91 216.739ZM1212.88 201.237C1212.88 192.399 1220.07 185.234 1228.91 185.234C1237.75 185.234 1244.94 192.399 1244.94 201.237C1244.94 210.075 1237.75 217.239 1228.91 217.239C1220.07 217.239 1212.88 210.075 1212.88 201.237ZM1316.89 406.216C1316.89 404.283 1315.32 402.716 1313.39 402.716H1289.32C1287.39 402.716 1285.82 404.283 1285.82 406.216V430.221C1285.82 432.154 1287.39 433.721 1289.32 433.721H1313.39C1315.32 433.721 1316.89 432.154 1316.89 430.221V406.216ZM577.682 -0.242538C569.119 -0.242538 562.148 -7.18459 562.148 -15.7453C562.148 -24.306 569.119 -31.248 577.682 -31.248C586.245 -31.248 593.215 -24.306 593.215 -15.7453C593.215 -7.18459 586.245 -0.242538 577.682 -0.242538ZM561.648 -15.7453C561.648 -24.5834 568.844 -31.748 577.682 -31.748C586.52 -31.748 593.715 -24.5834 593.715 -15.7453C593.715 -6.90721 586.52 0.257462 577.682 0.257462C568.844 0.257462 561.648 -6.90721 561.648 -15.7453ZM1213.35 273.564C1213.35 282.125 1220.32 289.067 1228.88 289.067C1237.45 289.067 1244.42 282.125 1244.42 273.564C1244.42 265.004 1237.45 258.061 1228.88 258.061C1220.32 258.061 1213.35 265.004 1213.35 273.564ZM1228.88 257.561C1220.05 257.561 1212.85 264.726 1212.85 273.564C1212.85 282.402 1220.05 289.567 1228.88 289.567C1237.72 289.567 1244.92 282.402 1244.92 273.564C1244.92 264.726 1237.72 257.561 1228.88 257.561ZM1143.78 185.734H1169.11C1170.7 185.734 1171.98 187.018 1171.98 188.603V201.206C1171.98 209.785 1165.03 216.739 1156.45 216.739C1147.87 216.739 1140.91 209.785 1140.91 201.206V188.603C1140.91 187.018 1142.2 185.734 1143.78 185.734ZM1140.41 188.603C1140.41 186.742 1141.92 185.234 1143.78 185.234H1169.11C1170.97 185.234 1172.48 186.742 1172.48 188.603V201.206C1172.48 210.061 1165.3 217.239 1156.45 217.239C1147.59 217.239 1140.41 210.061 1140.41 201.206V188.603ZM1228.92 402.716H1156.39C1147.83 402.716 1140.89 409.657 1140.89 418.219C1140.89 426.78 1147.83 433.721 1156.39 433.721H1228.92C1237.48 433.721 1244.42 426.78 1244.42 418.219C1244.42 409.657 1237.48 402.716 1228.92 402.716ZM710.586 -31.248H734.653C736.586 -31.248 738.153 -29.681 738.153 -27.748V-3.74254C738.153 -1.80954 736.586 -0.242538 734.653 -0.242538H710.586C708.653 -0.242538 707.086 -1.80954 707.086 -3.74254V-27.748C707.086 -29.681 708.653 -31.248 710.586 -31.248ZM706.586 -27.748C706.586 -29.9572 708.377 -31.748 710.586 -31.748H734.653C736.862 -31.748 738.653 -29.9572 738.653 -27.748V-3.74254C738.653 -1.5334 736.862 0.257462 734.653 0.257462H710.586C708.377 0.257462 706.586 -1.5334 706.586 -3.74254V-27.748ZM1373.85 258.061H1301.32C1292.76 258.061 1285.82 265.002 1285.82 273.564C1285.82 282.126 1292.76 289.067 1301.32 289.067H1373.85C1382.41 289.067 1389.35 282.126 1389.35 273.564C1389.35 265.002 1382.41 258.061 1373.85 258.061ZM1289.34 185.734H1313.41C1315.34 185.734 1316.91 187.301 1316.91 189.234V213.239C1316.91 215.172 1315.34 216.739 1313.41 216.739H1289.34C1287.41 216.739 1285.84 215.172 1285.84 213.239V189.234C1285.84 187.301 1287.41 185.734 1289.34 185.734ZM1358.29 418.219C1358.29 426.779 1365.26 433.721 1373.82 433.721C1382.39 433.721 1389.36 426.779 1389.36 418.219C1389.36 409.658 1382.39 402.716 1373.82 402.716C1365.26 402.716 1358.29 409.658 1358.29 418.219ZM489.68 44.5796C489.68 42.6466 491.247 41.0796 493.18 41.0796H517.246C519.179 41.0796 520.746 42.6466 520.746 44.5796V68.5851C520.746 70.5181 519.179 72.0851 517.246 72.0851H493.18C491.247 72.0851 489.68 70.5181 489.68 68.5851V44.5796ZM489.18 44.5796C489.18 42.3705 490.971 40.5796 493.18 40.5796H517.246C519.455 40.5796 521.246 42.3705 521.246 44.5796V68.5851C521.246 70.7942 519.455 72.5851 517.246 72.5851H493.18C490.971 72.5851 489.18 70.7942 489.18 68.5851V44.5796ZM1144.39 330.388C1142.46 330.388 1140.89 331.955 1140.89 333.888V357.894C1140.89 359.827 1142.46 361.394 1144.39 361.394H1168.46C1170.39 361.394 1171.96 359.827 1171.96 357.894V333.888C1171.96 331.955 1170.39 330.388 1168.46 330.388H1144.39ZM1144.39 329.888C1142.18 329.888 1140.39 331.679 1140.39 333.888V357.894C1140.39 360.103 1142.18 361.894 1144.39 361.894H1168.46C1170.67 361.894 1172.46 360.103 1172.46 357.894V333.888C1172.46 331.679 1170.67 329.888 1168.46 329.888H1144.39ZM1140.89 478.544C1140.89 476.611 1142.46 475.044 1144.39 475.044H1168.46C1170.39 475.044 1171.96 476.611 1171.96 478.544V502.55C1171.96 504.483 1170.39 506.05 1168.46 506.05H1144.39C1142.46 506.05 1140.89 504.483 1140.89 502.55V478.544ZM1140.39 478.544C1140.39 476.335 1142.18 474.544 1144.39 474.544H1168.46C1170.67 474.544 1172.46 476.335 1172.46 478.544V502.55C1172.46 504.759 1170.67 506.55 1168.46 506.55H1144.39C1142.18 506.55 1140.39 504.759 1140.39 502.55V478.544ZM634.617 56.5823C634.617 65.143 641.587 72.0851 650.151 72.0851C658.714 72.0851 665.684 65.143 665.684 56.5823C665.684 48.0217 658.714 41.0796 650.151 41.0796C641.587 41.0796 634.617 48.0217 634.617 56.5823ZM1301.35 361.394C1292.79 361.394 1285.82 354.452 1285.82 345.891C1285.82 337.33 1292.79 330.388 1301.35 330.388C1309.92 330.388 1316.89 337.33 1316.89 345.891C1316.89 354.452 1309.92 361.394 1301.35 361.394ZM1285.82 490.547C1285.82 499.108 1292.79 506.05 1301.35 506.05C1309.92 506.05 1316.89 499.108 1316.89 490.547C1316.89 481.986 1309.92 475.044 1301.35 475.044C1292.79 475.044 1285.82 481.986 1285.82 490.547ZM1301.35 474.544C1292.52 474.544 1285.32 481.709 1285.32 490.547C1285.32 499.385 1292.52 506.55 1301.35 506.55C1310.19 506.55 1317.39 499.385 1317.39 490.547C1317.39 481.709 1310.19 474.544 1301.35 474.544ZM562.148 44.5796C562.148 42.6466 563.715 41.0796 565.648 41.0796H589.715C591.648 41.0796 593.215 42.6466 593.215 44.5796V68.5851C593.215 70.5181 591.648 72.0851 589.715 72.0851H565.648C563.715 72.0851 562.148 70.5181 562.148 68.5851V44.5796ZM561.648 44.5796C561.648 42.3705 563.439 40.5796 565.648 40.5796H589.715C591.924 40.5796 593.715 42.3705 593.715 44.5796V68.5851C593.715 70.7942 591.924 72.5851 589.715 72.5851H565.648C563.439 72.5851 561.648 70.7942 561.648 68.5851V44.5796ZM1216.22 330.388C1214.64 330.388 1213.35 331.673 1213.35 333.257V345.86C1213.35 354.439 1220.31 361.394 1228.88 361.394C1237.46 361.394 1244.42 354.439 1244.42 345.86V333.257C1244.42 331.673 1243.13 330.388 1241.55 330.388H1216.22ZM1216.22 329.888C1214.36 329.888 1212.85 331.396 1212.85 333.257V345.86C1212.85 354.715 1220.03 361.894 1228.88 361.894C1237.74 361.894 1244.92 354.715 1244.92 345.86V333.257C1244.92 331.396 1243.41 329.888 1241.55 329.888H1216.22ZM1228.88 506.05C1220.32 506.05 1213.35 499.108 1213.35 490.547C1213.35 481.986 1220.32 475.044 1228.88 475.044C1237.45 475.044 1244.42 481.986 1244.42 490.547C1244.42 499.108 1237.45 506.05 1228.88 506.05ZM1212.85 490.547C1212.85 481.709 1220.05 474.544 1228.88 474.544C1237.72 474.544 1244.92 481.709 1244.92 490.547C1244.92 499.385 1237.72 506.55 1228.88 506.55C1220.05 506.55 1212.85 499.385 1212.85 490.547ZM734.653 41.0796H710.586C708.653 41.0796 707.086 42.6466 707.086 44.5796V68.5851C707.086 70.5181 708.653 72.0851 710.586 72.0851H734.653C736.586 72.0851 738.153 70.5181 738.153 68.5851V44.5796C738.153 42.6466 736.586 41.0796 734.653 41.0796ZM710.586 40.5796C708.377 40.5796 706.586 42.3705 706.586 44.5796V68.5851C706.586 70.7942 708.377 72.5851 710.586 72.5851H734.653C736.862 72.5851 738.653 70.7942 738.653 68.5851V44.5796C738.653 42.3705 736.862 40.5796 734.653 40.5796H710.586ZM1361.79 330.388H1385.86C1387.79 330.388 1389.36 331.955 1389.36 333.888V357.894C1389.36 359.827 1387.79 361.394 1385.86 361.394H1361.79C1359.86 361.394 1358.29 359.827 1358.29 357.894V333.888C1358.29 331.955 1359.86 330.388 1361.79 330.388ZM1357.79 333.888C1357.79 331.679 1359.58 329.888 1361.79 329.888H1385.86C1388.06 329.888 1389.86 331.679 1389.86 333.888V357.894C1389.86 360.103 1388.06 361.894 1385.86 361.894H1361.79C1359.58 361.894 1357.79 360.103 1357.79 357.894V333.888ZM1358.29 490.547C1358.29 499.108 1365.26 506.05 1373.82 506.05C1382.39 506.05 1389.36 499.108 1389.36 490.547C1389.36 481.986 1382.39 475.044 1373.82 475.044C1365.26 475.044 1358.29 481.986 1358.29 490.547ZM1373.82 474.544C1364.98 474.544 1357.79 481.709 1357.79 490.547C1357.79 499.385 1364.98 506.55 1373.82 506.55C1382.66 506.55 1389.86 499.385 1389.86 490.547C1389.86 481.709 1382.66 474.544 1373.82 474.544ZM203.328 -31.248H227.395C229.328 -31.248 230.895 -29.681 230.895 -27.748V-3.74254C230.895 -1.80954 229.328 -0.242538 227.395 -0.242538H203.328C201.395 -0.242538 199.828 -1.80954 199.828 -3.74254V-27.748C199.828 -29.681 201.395 -31.248 203.328 -31.248ZM199.328 -27.748C199.328 -29.9572 201.119 -31.748 203.328 -31.748H227.395C229.604 -31.748 231.395 -29.9572 231.395 -27.748V-3.74254C231.395 -1.5334 229.604 0.257462 227.395 0.257462H203.328C201.119 0.257462 199.328 -1.5334 199.328 -3.74254V-27.748ZM154.934 -31.248H130.867C128.934 -31.248 127.367 -29.681 127.367 -27.748V-3.74254C127.367 -1.80954 128.934 -0.242538 130.867 -0.242538H154.934C156.867 -0.242538 158.434 -1.80954 158.434 -3.74254V-27.748C158.434 -29.681 156.867 -31.248 154.934 -31.248ZM130.867 -31.748C128.658 -31.748 126.867 -29.9572 126.867 -27.748V-3.74254C126.867 -1.5334 128.658 0.257462 130.867 0.257462H154.934C157.143 0.257462 158.934 -1.5334 158.934 -3.74254V-27.748C158.934 -29.9572 157.143 -31.748 154.934 -31.748H130.867ZM199.828 128.909C199.828 137.47 206.798 144.412 215.361 144.412C223.925 144.412 230.895 137.47 230.895 128.909C230.895 120.348 223.925 113.406 215.361 113.406C206.798 113.406 199.828 120.348 199.828 128.909ZM215.361 112.906C206.523 112.906 199.328 120.071 199.328 128.909C199.328 137.747 206.523 144.912 215.361 144.912C224.2 144.912 231.395 137.747 231.395 128.909C231.395 120.071 224.2 112.906 215.361 112.906ZM866.565 433.721C858.001 433.721 851.031 426.779 851.031 418.219C851.031 409.658 858.001 402.716 866.565 402.716C875.128 402.716 882.098 409.658 882.098 418.219C882.098 426.779 875.128 433.721 866.565 433.721ZM850.531 418.219C850.531 409.38 857.727 402.216 866.565 402.216C875.403 402.216 882.598 409.38 882.598 418.219C882.598 427.057 875.403 434.221 866.565 434.221C857.727 434.221 850.531 427.057 850.531 418.219ZM782.07 402.716H806.137C808.07 402.716 809.637 404.283 809.637 406.216V430.221C809.637 432.154 808.07 433.721 806.137 433.721H782.07C780.137 433.721 778.57 432.154 778.57 430.221V406.216C778.57 404.283 780.137 402.716 782.07 402.716ZM778.07 406.216C778.07 404.007 779.861 402.216 782.07 402.216H806.137C808.346 402.216 810.137 404.007 810.137 406.216V430.221C810.137 432.43 808.346 434.221 806.137 434.221H782.07C779.861 434.221 778.07 432.43 778.07 430.221V406.216ZM54.9062 128.909C54.9062 137.47 61.8764 144.412 70.4396 144.412C79.0027 144.412 85.9729 137.47 85.9729 128.909C85.9729 120.348 79.0027 113.406 70.4396 113.406C61.8764 113.406 54.9062 120.348 54.9062 128.909ZM70.4396 112.906C61.6015 112.906 54.4062 120.071 54.4062 128.909C54.4062 137.747 61.6015 144.912 70.4396 144.912C79.2776 144.912 86.4729 137.747 86.4729 128.909C86.4729 120.071 79.2776 112.906 70.4396 112.906ZM707.251 402.716H736.035C736.665 402.716 737.176 403.227 737.176 403.857V418.188C737.176 426.767 730.221 433.721 721.643 433.721C713.064 433.721 706.109 426.767 706.109 418.188V403.857C706.109 403.227 706.62 402.716 707.251 402.716ZM372.317 -31.248H348.25C346.317 -31.248 344.75 -29.681 344.75 -27.748V-3.74254C344.75 -1.80954 346.317 -0.242538 348.25 -0.242538H372.317C374.25 -0.242538 375.817 -1.80954 375.817 -3.74254V-27.748C375.817 -29.681 374.25 -31.248 372.317 -31.248ZM348.25 -31.748C346.041 -31.748 344.25 -29.9572 344.25 -27.748V-3.74254C344.25 -1.5334 346.041 0.257462 348.25 0.257462H372.317C374.526 0.257462 376.317 -1.5334 376.317 -3.74254V-27.748C376.317 -29.9572 374.526 -31.748 372.317 -31.748H348.25ZM1011.49 289.067C1002.92 289.067 995.953 282.125 995.953 273.564C995.953 265.004 1002.92 258.061 1011.49 258.061C1020.05 258.061 1027.02 265.004 1027.02 273.564C1027.02 282.125 1020.05 289.067 1011.49 289.067ZM995.453 273.564C995.453 264.726 1002.65 257.561 1011.49 257.561C1020.32 257.561 1027.52 264.726 1027.52 273.564C1027.52 282.402 1020.32 289.567 1011.49 289.567C1002.65 289.567 995.453 282.402 995.453 273.564ZM348.25 113.406C346.317 113.406 344.75 114.973 344.75 116.906V140.912C344.75 142.845 346.317 144.412 348.25 144.412H372.317C374.25 144.412 375.817 142.845 375.817 140.912V116.906C375.817 114.973 374.25 113.406 372.317 113.406H348.25ZM348.25 112.906C346.041 112.906 344.25 114.697 344.25 116.906V140.912C344.25 143.121 346.041 144.912 348.25 144.912H372.317C374.526 144.912 376.317 143.121 376.317 140.912V116.906C376.317 114.697 374.526 112.906 372.317 112.906H348.25ZM995.953 406.216C995.953 404.283 997.52 402.716 999.453 402.716H1023.52C1025.45 402.716 1027.02 404.283 1027.02 406.216V430.221C1027.02 432.154 1025.45 433.721 1023.52 433.721H999.453C997.52 433.721 995.953 432.154 995.953 430.221V406.216ZM995.453 406.216C995.453 404.007 997.244 402.216 999.453 402.216H1023.52C1025.73 402.216 1027.52 404.007 1027.52 406.216V430.221C1027.52 432.43 1025.73 434.221 1023.52 434.221H999.453C997.244 434.221 995.453 432.43 995.453 430.221V406.216ZM272.297 -15.7453C272.297 -7.18459 279.267 -0.242538 287.83 -0.242538C296.393 -0.242538 303.364 -7.18459 303.364 -15.7453C303.364 -24.306 296.393 -31.248 287.83 -31.248C279.267 -31.248 272.297 -24.306 272.297 -15.7453ZM303.364 128.94V201.207C303.364 209.786 296.409 216.74 287.83 216.74C279.251 216.74 272.297 209.786 272.297 201.207V128.94C272.297 120.361 279.251 113.406 287.83 113.406C296.409 113.406 303.364 120.361 303.364 128.94ZM271.797 128.94C271.797 120.085 278.975 112.906 287.83 112.906C296.685 112.906 303.864 120.085 303.864 128.94V201.207C303.864 210.062 296.685 217.24 287.83 217.24C278.975 217.24 271.797 210.062 271.797 201.207V128.94ZM923.492 418.219C923.492 426.779 930.462 433.721 939.026 433.721C947.589 433.721 954.559 426.779 954.559 418.219C954.559 409.658 947.589 402.716 939.026 402.716C930.462 402.716 923.492 409.658 923.492 418.219ZM939.026 402.216C930.187 402.216 922.992 409.38 922.992 418.219C922.992 427.057 930.187 434.221 939.026 434.221C947.864 434.221 955.059 427.057 955.059 418.219C955.059 409.38 947.864 402.216 939.026 402.216ZM432.752 -0.242538C424.189 -0.242538 417.219 -7.18459 417.219 -15.7453C417.219 -24.306 424.189 -31.248 432.752 -31.248C441.315 -31.248 448.285 -24.306 448.285 -15.7453C448.285 -7.18459 441.315 -0.242538 432.752 -0.242538ZM416.719 -15.7453C416.719 -24.5834 423.914 -31.748 432.752 -31.748C441.59 -31.748 448.785 -24.5834 448.785 -15.7453C448.785 -6.90721 441.59 0.257462 432.752 0.257462C423.914 0.257462 416.719 -6.90721 416.719 -15.7453ZM1095.99 258.061H1071.92C1069.99 258.061 1068.42 259.629 1068.42 261.561V285.567C1068.42 287.5 1069.99 289.067 1071.92 289.067H1095.99C1097.92 289.067 1099.49 287.5 1099.49 285.567V261.561C1099.49 259.629 1097.92 258.061 1095.99 258.061ZM1071.92 257.561C1069.71 257.561 1067.92 259.352 1067.92 261.561V285.567C1067.92 287.776 1069.71 289.567 1071.92 289.567H1095.99C1098.2 289.567 1099.99 287.776 1099.99 285.567V261.561C1099.99 259.352 1098.2 257.561 1095.99 257.561H1071.92ZM432.752 144.412C424.189 144.412 417.219 137.47 417.219 128.909C417.219 120.348 424.189 113.406 432.752 113.406C441.315 113.406 448.285 120.348 448.285 128.909C448.285 137.47 441.315 144.412 432.752 144.412ZM416.719 128.909C416.719 120.071 423.914 112.906 432.752 112.906C441.59 112.906 448.785 120.071 448.785 128.909C448.785 137.747 441.59 144.912 432.752 144.912C423.914 144.912 416.719 137.747 416.719 128.909ZM1068.42 418.219C1068.42 426.779 1075.39 433.721 1083.96 433.721C1092.52 433.721 1099.49 426.779 1099.49 418.219C1099.49 409.658 1092.52 402.716 1083.96 402.716C1075.39 402.716 1068.42 409.658 1068.42 418.219ZM1083.96 402.216C1075.12 402.216 1067.92 409.38 1067.92 418.219C1067.92 427.057 1075.12 434.221 1083.96 434.221C1092.79 434.221 1099.99 427.057 1099.99 418.219C1099.99 409.38 1092.79 402.216 1083.96 402.216ZM127.367 56.5823C127.367 65.143 134.337 72.0851 142.901 72.0851C151.464 72.0851 158.434 65.143 158.434 56.5823C158.434 48.0217 151.464 41.0796 142.901 41.0796C134.337 41.0796 127.367 48.0217 127.367 56.5823ZM142.901 40.5796C134.062 40.5796 126.867 47.7443 126.867 56.5823C126.867 65.4204 134.062 72.5851 142.901 72.5851C151.739 72.5851 158.934 65.4204 158.934 56.5823C158.934 47.7443 151.739 40.5796 142.901 40.5796ZM57.0734 41.0796H83.8058C85.0026 41.0796 85.9729 42.0499 85.9729 43.2467V56.5518C85.9729 65.1306 79.0184 72.0851 70.4396 72.0851C61.8608 72.0851 54.9062 65.1306 54.9062 56.5518V43.2467C54.9062 42.0499 55.8765 41.0796 57.0734 41.0796ZM54.4062 43.2467C54.4062 41.7737 55.6004 40.5796 57.0734 40.5796H83.8058C85.2788 40.5796 86.4729 41.7737 86.4729 43.2467V56.5518C86.4729 65.4067 79.2945 72.5851 70.4396 72.5851C61.5846 72.5851 54.4062 65.4067 54.4062 56.5518V43.2467ZM203.328 185.734C201.395 185.734 199.828 187.301 199.828 189.234V213.239C199.828 215.172 201.395 216.739 203.328 216.739H227.395C229.328 216.739 230.895 215.172 230.895 213.239V189.234C230.895 187.301 229.328 185.734 227.395 185.734H203.328ZM203.328 185.234C201.119 185.234 199.328 187.025 199.328 189.234V213.239C199.328 215.448 201.119 217.239 203.328 217.239H227.395C229.604 217.239 231.395 215.448 231.395 213.239V189.234C231.395 187.025 229.604 185.234 227.395 185.234H203.328ZM851.031 478.544C851.031 476.611 852.598 475.044 854.531 475.044H878.598C880.531 475.044 882.098 476.611 882.098 478.544V502.55C882.098 504.483 880.531 506.05 878.598 506.05H854.531C852.598 506.05 851.031 504.483 851.031 502.55V478.544ZM850.531 478.544C850.531 476.335 852.322 474.544 854.531 474.544H878.598C880.807 474.544 882.598 476.335 882.598 478.544V502.55C882.598 504.759 880.807 506.55 878.598 506.55H854.531C852.322 506.55 850.531 504.759 850.531 502.55V478.544ZM127.367 201.237C127.367 209.797 134.337 216.739 142.901 216.739C151.464 216.739 158.434 209.797 158.434 201.237C158.434 192.676 151.464 185.734 142.901 185.734C134.337 185.734 127.367 192.676 127.367 201.237ZM142.901 185.234C134.062 185.234 126.867 192.399 126.867 201.237C126.867 210.075 134.062 217.239 142.901 217.239C151.739 217.239 158.934 210.075 158.934 201.237C158.934 192.399 151.739 185.234 142.901 185.234ZM782.07 475.044H806.137C808.07 475.044 809.637 476.611 809.637 478.544V502.55C809.637 504.483 808.07 506.05 806.137 506.05H782.07C780.137 506.05 778.57 504.483 778.57 502.55V478.544C778.57 476.611 780.137 475.044 782.07 475.044ZM778.07 478.544C778.07 476.335 779.861 474.544 782.07 474.544H806.137C808.346 474.544 810.137 476.335 810.137 478.544V502.55C810.137 504.759 808.346 506.55 806.137 506.55H782.07C779.861 506.55 778.07 504.759 778.07 502.55V478.544ZM58.4062 185.734C56.4733 185.734 54.9062 187.301 54.9062 189.234V213.239C54.9062 215.172 56.4733 216.739 58.4062 216.739H82.4729C84.4059 216.739 85.9729 215.172 85.9729 213.239V189.234C85.9729 187.301 84.4059 185.734 82.4729 185.734H58.4062ZM58.4062 185.234C56.1971 185.234 54.4062 187.025 54.4062 189.234V213.239C54.4062 215.448 56.1971 217.239 58.4062 217.239H82.4729C84.682 217.239 86.4729 215.448 86.4729 213.239V189.234C86.4729 187.025 84.682 185.234 82.4729 185.234H58.4062ZM706.109 478.544C706.109 476.611 707.676 475.044 709.609 475.044H733.676C735.609 475.044 737.176 476.611 737.176 478.544V502.55C737.176 504.483 735.609 506.05 733.676 506.05H709.609C707.676 506.05 706.109 504.483 706.109 502.55V478.544ZM344.75 56.5823C344.75 65.143 351.72 72.0851 360.283 72.0851C368.846 72.0851 375.817 65.143 375.817 56.5823C375.817 48.0217 368.846 41.0796 360.283 41.0796C351.72 41.0796 344.75 48.0217 344.75 56.5823ZM360.283 40.5796C351.445 40.5796 344.25 47.7443 344.25 56.5823C344.25 65.4204 351.445 72.5851 360.283 72.5851C369.121 72.5851 376.317 65.4204 376.317 56.5823C376.317 47.7443 369.121 40.5796 360.283 40.5796ZM999.453 330.388H1023.52C1025.45 330.388 1027.02 331.955 1027.02 333.888V357.894C1027.02 359.827 1025.45 361.394 1023.52 361.394H999.453C997.52 361.394 995.953 359.827 995.953 357.894V333.888C995.953 331.955 997.52 330.388 999.453 330.388ZM995.453 333.888C995.453 331.679 997.244 329.888 999.453 329.888H1023.52C1025.73 329.888 1027.52 331.679 1027.52 333.888V357.894C1027.52 360.103 1025.73 361.894 1023.52 361.894H999.453C997.244 361.894 995.453 360.103 995.453 357.894V333.888ZM348.25 185.734C346.317 185.734 344.75 187.301 344.75 189.234V213.239C344.75 215.172 346.317 216.739 348.25 216.739H372.317C374.25 216.739 375.817 215.172 375.817 213.239V189.234C375.817 187.301 374.25 185.734 372.317 185.734H348.25ZM348.25 185.234C346.041 185.234 344.25 187.025 344.25 189.234V213.239C344.25 215.448 346.041 217.239 348.25 217.239H372.317C374.526 217.239 376.317 215.448 376.317 213.239V189.234C376.317 187.025 374.526 185.234 372.317 185.234H348.25ZM995.953 476.752C995.953 475.809 996.717 475.044 997.66 475.044H1025.31C1026.26 475.044 1027.02 475.809 1027.02 476.752V490.516C1027.02 499.095 1020.07 506.05 1011.49 506.05C1002.91 506.05 995.953 499.095 995.953 490.516V476.752ZM995.453 476.752C995.453 475.533 996.441 474.544 997.66 474.544H1025.31C1026.53 474.544 1027.52 475.533 1027.52 476.752V490.516C1027.52 499.371 1020.34 506.55 1011.49 506.55C1002.63 506.55 995.453 499.371 995.453 490.516V476.752ZM275.797 41.0796C273.864 41.0796 272.297 42.6466 272.297 44.5796V68.5851C272.297 70.5181 273.864 72.0851 275.797 72.0851H299.864C301.797 72.0851 303.364 70.5181 303.364 68.5851V44.5796C303.364 42.6466 301.797 41.0796 299.864 41.0796H275.797ZM926.992 475.044H951.059C952.992 475.044 954.559 476.611 954.559 478.544V502.55C954.559 504.483 952.992 506.05 951.059 506.05H926.992C925.059 506.05 923.492 504.483 923.492 502.55V478.544C923.492 476.611 925.059 475.044 926.992 475.044ZM922.992 478.544C922.992 476.335 924.783 474.544 926.992 474.544H951.059C953.268 474.544 955.059 476.335 955.059 478.544V502.55C955.059 504.759 953.268 506.55 951.059 506.55H926.992C924.783 506.55 922.992 504.759 922.992 502.55V478.544ZM445.416 41.0796H420.088C418.503 41.0796 417.219 42.3641 417.219 43.9486V56.5518C417.219 65.1306 424.173 72.0851 432.752 72.0851C441.331 72.0851 448.285 65.1306 448.285 56.5518V43.9486C448.285 42.3641 447.001 41.0796 445.416 41.0796ZM420.088 40.5796C418.227 40.5796 416.719 42.088 416.719 43.9486V56.5518C416.719 65.4067 423.897 72.5851 432.752 72.5851C441.607 72.5851 448.785 65.4067 448.785 56.5518V43.9486C448.785 42.088 447.277 40.5796 445.416 40.5796H420.088ZM1071.92 330.388H1095.99C1097.92 330.388 1099.49 331.955 1099.49 333.888V357.894C1099.49 359.827 1097.92 361.394 1095.99 361.394H1071.92C1069.99 361.394 1068.42 359.827 1068.42 357.894V333.888C1068.42 331.955 1069.99 330.388 1071.92 330.388ZM1067.92 333.888C1067.92 331.679 1069.71 329.888 1071.92 329.888H1095.99C1098.2 329.888 1099.99 331.679 1099.99 333.888V357.894C1099.99 360.103 1098.2 361.894 1095.99 361.894H1071.92C1069.71 361.894 1067.92 360.103 1067.92 357.894V333.888ZM420.719 185.734C418.786 185.734 417.219 187.301 417.219 189.234V213.239C417.219 215.172 418.786 216.739 420.719 216.739H444.785C446.718 216.739 448.285 215.172 448.285 213.239V189.234C448.285 187.301 446.718 185.734 444.785 185.734H420.719ZM420.719 185.234C418.51 185.234 416.719 187.025 416.719 189.234V213.239C416.719 215.448 418.51 217.239 420.719 217.239H444.785C446.995 217.239 448.785 215.448 448.785 213.239V189.234C448.785 187.025 446.995 185.234 444.785 185.234H420.719ZM1068.42 478.544C1068.42 476.611 1069.99 475.044 1071.92 475.044H1095.99C1097.92 475.044 1099.49 476.611 1099.49 478.544V502.55C1099.49 504.483 1097.92 506.05 1095.99 506.05H1071.92C1069.99 506.05 1068.42 504.483 1068.42 502.55V478.544ZM1067.92 478.544C1067.92 476.335 1069.71 474.544 1071.92 474.544H1095.99C1098.2 474.544 1099.99 476.335 1099.99 478.544V502.55C1099.99 504.759 1098.2 506.55 1095.99 506.55H1071.92C1069.71 506.55 1067.92 504.759 1067.92 502.55V478.544Z" fill="url(#paint0_linear_1052_104525)"></path></g><defs><linearGradient id="paint0_linear_1052_104525" x1="308.623" y1="104.37" x2="1143.31" y2="307.93" gradientUnits="userSpaceOnUse"><stop stop-color="white"></stop><stop offset="0.567708" stop-color="#F5768F"></stop><stop offset="1" stop-color="white"></stop></linearGradient></defs></svg>