<svg width="151" height="19" viewBox="0 0 151 19" fill="none" xmlns="http://www.w3.org/2000/svg">
<path d="M25.0284 8.1066C24.5433 7.05268 24.292 6.50587 23.9524 5.68567C23.6393 6.50587 23.5335 6.75723 22.9426 8.16833L21.7873 11.0082H26.3337L25.0284 8.1066ZM20.482 14.5227L18.8592 18.1034H14.1188L22.3738 0.715954H26.3733L34.6239 18.1034H29.954L28.1901 14.5227H20.482ZM46.433 8.25212C47.3988 8.25212 47.8 8.19038 48.1969 7.97871C48.5072 7.79958 48.7656 7.54274 48.9465 7.23346C49.1274 6.92418 49.2247 6.57313 49.2288 6.21484C49.223 5.85692 49.125 5.50653 48.9442 5.19755C48.7635 4.88856 48.5061 4.63142 48.1969 4.45097C47.8177 4.2393 47.4164 4.19521 46.433 4.19521H40.6431V8.21684L46.433 8.25212ZM40.6431 18.1034H36.2863V0.715954H47.6325C49.6521 0.715954 50.7457 0.971711 51.7776 1.59789C52.4329 2.01353 52.9717 2.58895 53.3435 3.27007C53.7153 3.9512 53.9079 4.71567 53.903 5.49165C53.903 7.55538 52.8315 9.08995 50.8736 9.90134C52.5978 10.5143 53.1269 11.48 53.1666 14.1964C53.2504 16.3659 53.3783 16.9965 53.903 18.1122H49.1053C48.7878 17.1421 48.7261 16.7452 48.7702 15.0783C48.7702 12.556 48.0734 11.7755 45.8421 11.7755H40.6431V18.1034ZM74.2758 18.1034V0.715954H90.186V4.2437H78.6326V7.50688H88.841V11.0346H78.6326V14.6153H90.186V18.143L74.2758 18.1034ZM102.815 18.1034H98.4586V4.23048H92.4393V0.702726H108.813V4.23048H102.815V18.1034ZM130.155 11.3036C128.912 16.2513 125.525 18.734 119.907 18.734C113.509 18.734 109.465 15.1753 109.465 9.57943C109.465 3.84683 113.632 0.107422 120.009 0.107422C123.065 0.107422 125.463 0.905575 127.355 2.61212C128.641 3.68209 129.537 5.14716 129.904 6.77928H125.208C124.326 4.57444 122.602 3.49406 119.991 3.49406C116.494 3.49406 114.078 5.95908 114.078 9.49565C114.078 12.944 116.477 15.3473 119.907 15.3473C122.685 15.3473 124.348 14.1038 125.358 11.3036H130.155ZM145.669 0.715954V7.49365H136.708V0.715954H132.351V18.1034H136.708V11.0082H145.655V18.1034H150.008V0.715954H145.669ZM0.0078125 18.1034V0.715954H15.2653V4.2437H4.36459V7.50688H14.3614V11.0346H4.36459V18.1034H0.0078125ZM56.7649 18.1034V0.715954H72.0269V4.2437H61.1217V7.50688H71.1405V11.0346H61.1217V18.1034H56.7649Z" fill="black"/>
</svg>
