<svg xmlns="http://www.w3.org/2000/svg" width="117" height="78" viewBox="0 0 117 78" fill="none"><path fill-rule="evenodd" clip-rule="evenodd" d="M2.98869 61.4645V63.0928H2.17479C1.54298 63.0033 1.00039 63.3639 0.819219 63.9973C0.72909 64.6325 1.09052 65.1738 1.72324 65.3545H2.98869V76.485C2.98869 77.1184 3.44024 77.6615 4.16309 77.6615H4.25413C4.88594 77.6615 5.42854 77.2088 5.42854 76.5762V65.1747H8.04865C8.68137 65.0852 9.0428 64.45 8.95267 63.8175C8.86163 63.3648 8.50112 63.0033 8.04865 62.9121H5.42854V61.2829C5.42854 59.8353 5.97022 58.1158 8.59124 58.1158C9.22397 58.1158 9.67552 57.7535 9.76565 57.1209C9.67552 56.3963 9.13293 55.9436 8.50021 55.9436H8.50111C4.52452 55.9436 2.98869 58.7501 2.98869 61.4645ZM13.7422 64.5404V63.9078C13.7422 63.2744 13.1997 62.7305 12.5678 62.7305C11.9351 62.7305 11.3925 63.2744 11.3925 63.9078V76.3043C11.3925 76.9377 11.8441 77.4816 12.5669 77.4816H12.658C13.2898 77.4816 13.8324 77.0289 13.8324 76.3955V69.3375C13.8324 66.4415 15.3682 64.7211 17.809 64.7211C18.4408 64.7211 18.8923 64.2693 18.9834 63.635V63.5455C18.8022 63.0928 18.3507 62.6401 17.7179 62.6401C16.1821 62.5506 14.6454 63.2744 13.7422 64.5404ZM30.8221 64.8123C30.2616 64.069 29.5226 63.4735 28.671 63.0789C27.8194 62.6842 26.8817 62.5028 25.9415 62.5506C21.8748 62.5506 19.526 65.265 19.526 70.0613C19.526 74.8567 21.8748 77.6615 26.3029 77.6615C28.1101 77.7527 29.8271 77.1184 31.1826 75.8516C31.453 75.6717 31.6342 75.3989 31.5441 75.0374C31.5441 74.4944 31.0925 74.0417 30.549 74.0417C30.2795 74.0417 30.0975 74.1329 29.9181 74.3145C28.9282 75.1257 27.682 75.5733 26.3931 75.5805C23.773 75.5805 22.056 73.7706 21.9658 70.9658H30.641C31.9965 70.7842 31.9965 69.5165 31.9965 68.7041C31.9965 67.346 31.6342 65.9888 30.8221 64.8123ZM29.7369 68.7041H21.8748C22.1461 66.1704 23.5918 64.7211 26.0307 64.7211C28.4715 64.7211 29.645 66.0783 29.7369 68.7041ZM36.6951 66.4415C36.6951 65.1738 38.3219 64.8132 39.226 64.8132C39.8083 64.7726 40.3927 64.8566 40.9387 65.0596C41.4848 65.2625 41.9795 65.5796 42.3887 65.9888C42.8402 66.4415 43.472 66.4415 43.9245 65.9888C44.1048 65.8072 44.2859 65.4449 44.2859 65.1738C44.2859 64.9027 44.1949 64.6316 44.0146 64.4491C42.8402 63.0928 41.1232 62.2778 39.226 62.4594C36.2435 62.4594 34.4364 63.9982 34.4364 66.3503C34.4364 69.2454 37.0565 70.1508 39.2251 70.9667C40.9411 71.508 42.3887 71.9598 42.3887 73.3179C42.3887 74.5856 40.4896 75.3085 39.3161 75.3085C37.9596 75.3989 36.6049 74.8558 35.6108 73.8618C35.4296 73.6811 35.0673 73.4986 34.7978 73.4986C34.2552 73.4986 33.8037 73.9513 33.8037 74.4944C33.8037 74.7663 33.8938 75.0383 34.075 75.219C35.4296 76.7561 37.3269 77.6615 39.4062 77.6615C42.8402 77.6615 44.8285 76.0332 44.8285 73.4986C44.8285 70.9667 42.1174 69.6981 39.8578 68.8848C38.0506 68.2514 36.6951 67.7075 36.6951 66.4415ZM49.9777 64.2684V56.3954C49.9777 55.7637 49.5261 55.2198 48.8042 55.2198H48.7132C48.0814 55.2198 47.6298 55.6725 47.5388 56.3059V76.485C47.5388 77.1184 47.9912 77.6615 48.7132 77.6615C49.3468 77.6615 49.8885 77.2088 49.8885 76.485V68.8848C49.8885 66.1704 51.1539 64.8123 53.774 64.8123C56.3951 64.8123 57.2071 65.9888 57.2071 68.7041V76.485C57.2071 77.1184 57.6596 77.6615 58.3834 77.6615H58.4735C59.1062 77.6615 59.5578 77.2088 59.6479 76.5762V68.2523C59.5578 64.45 57.6596 62.5515 53.8651 62.5515V62.5506C52.4194 62.4594 50.9728 63.0928 49.9777 64.2684ZM72.2095 56.2164V64.1789C71.1252 63.1832 69.7697 62.5506 68.2329 62.5506C64.0761 62.5506 61.9976 65.0843 61.9976 70.0613C61.9976 75.0383 64.2572 77.6615 68.4141 77.6615C72.57 77.6615 74.5592 75.3085 74.5592 71.508V56.4875C74.5592 55.6725 74.0166 55.1303 73.3848 55.1303H73.3839C72.7512 55.1303 72.2996 55.583 72.2095 56.2164ZM64.3474 70.0613C64.3474 66.4415 65.7029 64.6316 68.4141 64.6316C70.04 64.7211 71.4866 65.7177 72.2996 67.1644V71.3273C72.2086 73.9513 70.7629 75.4901 68.4141 75.4901C65.7029 75.4901 64.3474 73.6811 64.3474 70.0613ZM88.5656 64.8123C88.0052 64.069 87.2664 63.4735 86.415 63.0789C85.5636 62.6842 84.626 62.5028 83.6859 62.5506C79.6192 62.5506 77.2695 65.265 77.2695 70.0613C77.2695 74.8567 79.6192 77.6615 84.0473 77.6615C85.8545 77.7527 87.5715 77.1184 88.927 75.8516C89.1983 75.6717 89.3786 75.3989 89.2876 75.0374C89.2876 74.4944 88.836 74.0417 88.2952 74.0417C88.023 74.0417 87.8428 74.1329 87.6616 74.3145C86.6722 75.1254 85.4267 75.5729 84.1384 75.5805C81.5164 75.5805 79.7994 73.7706 79.7093 70.9658H88.3835C89.74 70.7842 89.74 69.5165 89.74 68.7041H89.7391C89.7391 67.346 89.3786 65.9888 88.5656 64.8123ZM87.3912 68.7041H79.5291C79.7995 66.1704 81.2461 64.7211 83.6859 64.7211C86.1249 64.7211 87.3002 66.0783 87.3912 68.7041ZM94.4395 66.4415C94.4395 65.1738 96.0654 64.8132 96.9686 64.8132C97.5509 64.7724 98.1354 64.8563 98.6814 65.0593C99.2275 65.2623 99.7222 65.5794 100.131 65.9888C100.313 66.1704 100.675 66.3503 100.946 66.3503C101.487 66.3503 101.938 65.8976 101.938 65.3545C101.938 65.0843 101.849 64.8123 101.669 64.6316C100.495 63.2744 98.7757 62.4594 96.8793 62.6401C93.8969 62.6401 92.0907 64.1789 92.0907 66.5319C92.0907 69.427 94.7099 70.3315 96.8793 71.1474C98.5963 71.6887 100.042 72.1414 100.042 73.4986C100.042 74.7663 98.1448 75.4901 96.9686 75.4901C95.613 75.5796 94.2574 75.0383 93.2651 74.0417C93.0839 73.8618 92.7225 73.6811 92.4503 73.6811C91.9095 73.6811 91.4579 74.1329 91.4579 74.6751C91.4579 74.9471 91.5472 75.219 91.7283 75.3998C93.0839 76.9377 95.0722 77.7527 97.1506 77.6615C100.583 77.6615 102.572 76.0332 102.572 73.4986C102.572 70.9667 99.8618 69.6981 97.6022 68.8848C95.7951 68.2514 94.4395 67.7075 94.4395 66.4415ZM111.067 68.7041L115.856 64.8123C116.128 64.6316 116.308 64.2693 116.308 63.8166C116.308 63.1832 115.856 62.7305 115.224 62.6401H115.133C114.862 62.6401 114.501 62.7305 114.32 63.0024L107.361 68.612V56.2164C107.361 55.583 106.82 55.0391 106.186 55.0391C105.554 55.0391 105.102 55.4909 105.012 56.1243V76.2148C105.012 76.8491 105.554 77.3904 106.186 77.3904C106.82 77.3904 107.271 76.9386 107.361 76.3052V71.4194L108.988 70.1517L114.32 76.9386C114.59 77.2097 114.862 77.4825 115.314 77.4825C115.946 77.4825 116.397 77.0298 116.488 76.3964V76.3052C116.67 76.1244 116.579 75.7621 116.397 75.5805L111.067 68.7041Z" fill="#4D4D4D"></path><g clip-path="url(#clip0_3607_409310)"><path fill-rule="evenodd" clip-rule="evenodd" d="M67.3156 34.1524V34.4846C67.3183 35.0769 67.201 35.6639 66.9703 36.2117C66.7397 36.7595 66.4003 37.2572 65.9718 37.6762C65.5433 38.0951 65.0342 38.4269 64.4737 38.6525C63.9133 38.8782 63.3127 38.9931 62.7066 38.9907H59.1224C58.7825 38.9907 58.6126 38.6552 58.4409 38.3213C58.4409 37.9891 58.7808 37.823 59.1224 37.823H62.7083C64.5846 37.823 66.2908 36.3216 66.2908 34.3201V34.1524H63.3898V25.4791H67.8272V22.9777C67.4873 18.4733 63.9014 14.9687 59.4657 14.8043C54.5151 14.4688 50.2477 18.1411 50.0778 22.9777V25.4791H54.5134V34.3201H51.2725C50.279 34.3119 49.3286 33.9225 48.6261 33.2359C47.9235 32.5493 47.5251 31.6205 47.5167 30.6495V22.9777C47.5167 16.8057 52.6372 11.6336 59.1241 11.6336C65.6093 11.6336 70.7299 16.638 70.7299 22.9777V30.4851H70.2166C70.2166 32.1526 69.0219 33.8202 67.3156 34.1524ZM58.6109 0.625C44.7856 0.791092 33.5215 11.7997 33.5215 25.3113C33.5215 38.8246 44.7856 49.8332 58.6109 49.8332H58.7808C72.6061 49.8332 83.872 38.8246 83.872 25.3113V6.62924C83.872 3.29244 80.9692 0.626662 77.5567 0.626662V0.625H58.6109Z" fill="#25C16F"></path></g><defs><clipPath id="clip0_3607_409310"><rect width="50.3505" height="49.2082" fill="white" transform="translate(33.5215 0.625)"></rect></clipPath></defs></svg>