<svg xmlns="http://www.w3.org/2000/svg" width="226" height="46" viewBox="0 0 226 46" fill="none"><path d="M32.6694 26.1761V11.967C32.6694 11.8055 32.8309 11.644 32.9924 11.644H36.7061C36.8676 11.644 37.029 11.8055 37.029 11.967V26.1761C37.029 28.2751 38.4822 29.8898 40.7428 29.8898C43.0033 29.8898 44.4565 28.4366 44.4565 26.1761V11.967C44.4565 11.8055 44.618 11.644 44.7795 11.644H48.4932C48.6547 11.644 48.8161 11.8055 48.8161 11.967V26.1761C48.8161 30.6971 45.5868 33.6035 40.7428 33.6035C35.8988 33.6035 32.6694 30.5357 32.6694 26.1761ZM51.5611 28.921V28.5981C51.5611 28.4366 51.7225 28.2751 51.884 28.2751H55.2748C55.4363 28.2751 55.5977 28.4366 55.5977 28.5981C55.5977 29.5669 56.728 30.2127 58.3427 30.2127C59.7959 30.2127 60.7647 29.5669 60.7647 28.7595C60.7647 27.4678 58.3427 27.4678 56.0821 26.6605C53.9831 26.0146 51.7225 24.8843 51.7225 22.1394C51.7225 19.0715 54.306 17.1339 58.3427 17.1339C62.3793 17.1339 64.9628 19.233 64.9628 22.1394C64.9628 22.3009 64.8013 22.4623 64.6399 22.4623H61.2491C61.0876 22.4623 60.9261 22.3009 60.9261 22.1394C60.9261 21.1706 59.9573 20.5247 58.3427 20.5247C57.0509 20.5247 56.0821 21.0091 56.0821 21.9779C56.0821 23.2697 58.1812 23.2697 60.6032 24.077C63.0252 24.7229 65.4472 25.8531 65.4472 28.7595C65.4472 31.8274 62.7023 33.6035 58.6656 33.6035C54.306 33.6035 51.5611 31.6659 51.5611 28.921ZM82.0783 26.3375C82.0783 26.6605 81.9168 26.6605 81.5939 26.6605H71.9059C71.7444 26.6605 71.7444 26.6605 71.7444 26.8219C71.7444 27.3063 71.9059 27.6293 72.0674 28.1137C72.5518 29.2439 73.5206 29.8898 75.2967 29.8898C76.7499 29.8898 77.7187 29.2439 78.526 28.2751C78.6875 28.1137 78.849 27.9522 79.0104 28.2751L81.271 30.5357C81.4325 30.6971 81.4325 30.8586 81.271 31.0201C79.8178 32.7962 77.5572 33.765 74.9738 33.765C71.4215 33.765 68.9995 31.9889 67.8692 29.0825C67.3848 27.9522 67.2234 26.8219 67.2234 25.2073C67.2234 24.077 67.3848 22.9467 67.7078 21.9779C68.6766 19.0715 71.0986 17.1339 74.4894 17.1339C78.6875 17.1339 81.271 19.8789 81.7554 23.7541C82.0783 24.5614 82.0783 25.3687 82.0783 26.3375ZM72.0674 22.6238C71.9059 22.9467 71.9059 23.2697 71.9059 23.5926C71.9059 23.7541 71.9059 23.7541 72.0674 23.7541H77.3958C77.5572 23.7541 77.5572 23.7541 77.5572 23.5926C77.5572 23.2697 77.3958 22.9467 77.3958 22.7853C77.0728 21.4935 76.104 20.8477 74.6508 20.8477C73.3591 20.8477 72.5518 21.4935 72.0674 22.6238ZM94.6727 17.6183C94.8342 17.7798 94.8342 17.9413 94.8342 18.1027L94.1883 21.655C94.1883 21.9779 94.0269 21.9779 93.7039 21.8165C93.2195 21.655 92.5737 21.655 91.9278 21.655C90.4746 21.8165 89.1828 22.7853 89.1828 24.3999V32.9577C89.1828 33.1191 89.0214 33.2806 88.8599 33.2806H85.1462C84.9847 33.2806 84.8232 33.1191 84.8232 32.9577V17.7798C84.8232 17.6183 84.9847 17.4569 85.1462 17.4569H88.8599C89.0214 17.4569 89.1828 17.6183 89.1828 17.7798V18.9101C89.1828 19.0715 89.3443 19.0715 89.3443 19.0715C90.1517 17.9413 91.2819 17.1339 92.7351 17.1339C93.7039 17.1339 94.1883 17.2954 94.6727 17.6183ZM95.9645 28.921V28.5981C95.9645 28.4366 96.1259 28.2751 96.2874 28.2751H99.6782C99.8397 28.2751 100.001 28.4366 100.001 28.5981C100.001 29.5669 101.131 30.2127 102.746 30.2127C104.199 30.2127 105.168 29.5669 105.168 28.7595C105.168 27.4678 102.746 27.4678 100.486 26.6605C98.3865 26.0146 96.1259 24.8843 96.1259 22.1394C96.1259 19.0715 98.7094 17.1339 102.746 17.1339C106.783 17.1339 109.366 19.233 109.366 22.1394C109.366 22.3009 109.205 22.4623 109.043 22.4623H105.652C105.491 22.4623 105.33 22.3009 105.33 22.1394C105.33 21.1706 104.361 20.5247 102.746 20.5247C101.454 20.5247 100.486 21.0091 100.486 21.9779C100.486 23.2697 102.585 23.2697 105.007 24.077C107.429 24.7229 109.851 25.8531 109.851 28.7595C109.851 31.8274 107.106 33.6035 103.069 33.6035C98.7094 33.6035 95.9645 31.6659 95.9645 28.921ZM119.622 33.1153V12.1246C119.622 11.9632 119.783 11.8017 119.945 11.8017H123.658C123.82 11.8017 123.981 11.9632 123.981 12.1246V29.5631C123.981 29.7245 123.981 29.7245 124.143 29.7245H134.315C134.477 29.7245 134.638 29.886 134.638 30.0474V33.1153C134.638 33.2768 134.477 33.4382 134.315 33.4382H119.945C119.783 33.4382 119.622 33.2768 119.622 33.1153ZM137.222 28.5942C136.899 27.6254 136.737 26.4952 136.737 25.3649C136.737 24.2346 136.899 22.9429 137.222 22.1356C138.191 19.0677 140.774 17.2916 144.326 17.2916C147.717 17.2916 150.301 19.2292 151.269 22.1356C151.592 23.1044 151.754 24.2346 151.754 25.3649C151.754 26.4952 151.592 27.6254 151.269 28.4328C150.301 31.6621 147.717 33.5997 144.326 33.5997C140.774 33.7612 138.029 31.8236 137.222 28.5942ZM147.071 27.6254C147.233 26.9796 147.394 26.1722 147.394 25.5264C147.394 24.719 147.233 23.9117 147.071 23.2658C146.587 21.8126 145.618 21.0053 144.326 21.0053C142.873 21.0053 141.904 21.8126 141.581 23.2658C141.258 23.7502 141.258 24.5576 141.258 25.5264C141.258 26.3337 141.258 27.141 141.42 27.6254C141.904 29.0786 142.873 29.886 144.326 29.886C145.618 30.0474 146.587 29.0786 147.071 27.6254ZM157.728 33.1153L152.723 17.776C152.561 17.453 152.723 17.2916 153.045 17.2916H157.082C157.244 17.2916 157.405 17.453 157.567 17.6145L160.15 26.9796C160.15 27.141 160.311 27.141 160.311 26.9796L162.895 17.6145C162.895 17.453 163.056 17.2916 163.379 17.2916H167.416C167.739 17.2916 167.9 17.453 167.739 17.776L162.733 32.9539C162.733 33.1153 162.572 33.2768 162.249 33.2768H158.212C157.889 33.4382 157.728 33.4383 157.728 33.1153ZM183.24 26.4952C183.24 26.8181 183.078 26.8181 182.755 26.8181H173.067C172.906 26.8181 172.906 26.8181 172.906 26.9796C172.906 27.464 173.067 27.7869 173.229 28.2713C173.713 29.4016 174.682 30.0474 176.458 30.0474C177.911 30.0474 178.88 29.4016 179.688 28.4328C179.849 28.2713 180.01 28.1098 180.172 28.4328L182.432 30.6933C182.594 30.8548 182.594 31.0163 182.432 31.1777C180.979 32.9539 178.719 33.9227 176.135 33.9227C172.583 33.9227 170.161 32.1465 169.031 29.2401C168.546 28.1098 168.385 26.9796 168.385 25.3649C168.385 24.2346 168.546 23.1044 168.869 22.1356C169.838 19.2292 172.26 17.2916 175.651 17.2916C179.849 17.2916 182.432 20.0365 182.917 23.9117C183.24 24.719 183.24 25.5264 183.24 26.4952ZM173.229 22.7814C173.067 23.1044 173.067 23.4273 173.067 23.7502C173.067 23.9117 173.067 23.9117 173.229 23.9117H178.557C178.719 23.9117 178.719 23.9117 178.719 23.7502C178.719 23.4273 178.557 23.1044 178.557 22.9429C178.234 21.6512 177.266 21.0053 175.812 21.0053C174.359 21.0053 173.552 21.6512 173.229 22.7814ZM192.282 26.3337V12.1246C192.282 11.9632 192.443 11.8017 192.605 11.8017H196.319C196.48 11.8017 196.642 11.9632 196.642 12.1246V26.3337C196.642 28.4328 198.095 30.0474 200.355 30.0474C202.616 30.0474 204.069 28.5942 204.069 26.3337V12.1246C204.069 11.9632 204.23 11.8017 204.392 11.8017H208.106C208.267 11.8017 208.429 11.9632 208.429 12.1246V26.3337C208.429 30.8548 205.199 33.7612 200.355 33.7612C195.511 33.7612 192.282 30.6933 192.282 26.3337ZM211.174 29.0786V28.7557C211.174 28.5943 211.335 28.4328 211.496 28.4328H214.887C215.049 28.4328 215.21 28.5943 215.21 28.7557C215.21 29.7245 216.34 30.3704 217.955 30.3704C219.408 30.3704 220.377 29.7245 220.377 28.9172C220.377 27.6254 217.955 27.6254 215.695 26.8181C213.596 26.1722 211.335 25.042 211.335 22.297C211.335 19.2292 213.919 17.2916 217.955 17.2916C221.992 17.2916 224.575 19.3906 224.575 22.297C224.575 22.4585 224.414 22.62 224.252 22.62H220.862C220.7 22.62 220.539 22.4585 220.539 22.297C220.539 21.3282 219.57 20.6824 217.955 20.6824C216.663 20.6824 215.695 21.1668 215.695 22.1356C215.695 23.4273 217.794 23.4273 220.216 24.2346C222.638 24.8805 225.06 26.0108 225.06 28.9172C225.06 31.9851 222.315 33.7612 218.278 33.7612C213.918 33.7612 211.174 31.8236 211.174 29.0786Z" fill="#252530"></path><path d="M0 44.9844L224.56 44.9844C224.836 44.9844 225.06 45.2082 225.06 45.4844C225.06 45.7605 224.836 45.9844 224.56 45.9844H0V44.9844Z" fill="#040237"></path><path d="M0 0L224.56 0C224.836 0 225.06 0.223858 225.06 0.5C225.06 0.776142 224.836 1 224.56 1H0V0Z" fill="#040237"></path><path d="M10.9613 16.0388C11.4121 16.0388 11.8628 16.0388 12.3135 16.1514L10.9613 18.7432C8.93299 18.6305 7.13003 20.2081 7.01734 22.2364C6.90466 24.2648 8.48225 26.0677 10.5106 26.1804H10.9613C11.8628 26.1804 12.7643 25.8424 13.4404 25.2789L14.9053 27.758C13.7784 28.5468 12.4262 28.9975 10.9613 28.9975C7.3554 29.1102 4.3129 26.4058 4.20022 22.7999C4.08753 19.1939 6.79197 16.1514 10.3979 16.0388H10.9613ZM15.5814 21.5603L17.2717 24.3775L15.5814 27.0819L14.0038 24.3775H10.7359L12.4262 21.5603H15.5814ZM12.877 20.5462C12.877 20.0954 12.9897 19.6447 13.215 19.3066C13.4404 18.9686 13.8911 18.6305 14.2292 18.4051L14.4546 18.2925C14.9053 18.0671 15.018 17.9544 15.018 17.729C15.018 17.5037 14.6799 17.2783 14.4546 17.2783C14.0038 17.2783 13.6658 17.5037 13.4404 17.9544L12.877 17.391C12.9896 17.1656 13.215 16.9402 13.4404 16.7149C13.7784 16.4895 14.1165 16.4895 14.4546 16.4895C14.7926 16.4895 15.2434 16.6022 15.4687 16.8276C15.6941 17.0529 15.9195 17.391 15.9195 17.729C15.9195 18.2925 15.5814 18.7432 14.9053 18.9686L14.5672 19.1939C14.2292 19.4193 14.0038 19.532 13.8911 19.8701H15.9195V20.6588L12.877 20.5462ZM10.9613 34.6318L21.6664 28.5468V11.644H0.143555V28.4341L10.9613 34.6318Z" fill="#FF492C"></path></svg>