<?xml version="1.0" encoding="UTF-8"?>
<svg width="160px" height="100px" viewBox="0 0 160 100" version="1.1" xmlns="http://www.w3.org/2000/svg" xmlns:xlink="http://www.w3.org/1999/xlink">
    <title>Intercom-100</title>
    <g id="ðŸ-Logos" stroke="none" stroke-width="1" fill="none" fill-rule="evenodd">
        <g id="Intercom">
            <path d="M57.9439283,0.0227946205 C55.9610015,0.0227946205 54.0592882,0.81053042 52.6571473,2.21270891 C51.2550063,3.6148874 50.4672897,5.51664973 50.4672897,7.4996296 L50.4672897,52.3590399 C50.4672897,54.3420198 51.2550063,56.243784 52.6571473,57.6459625 C54.0592882,59.048141 55.9610015,59.8358787 57.9439283,59.8358787 L102.803729,59.8358787 C104.786656,59.8358787 106.688375,59.048141 108.090516,57.6459625 C109.492657,56.243784 110.280374,54.3420198 110.280374,52.3590399 L110.280374,7.4996296 C110.280374,5.51650299 109.491875,3.61474465 108.089481,2.21261203 C106.687086,0.810479412 104.785207,0.0227946205 102.802134,0.0227946205 L102.803729,0.0227946205 L57.9439283,0.0227946205 Z M88.960022,9.62885233 C89.3317316,9.27171297 89.8272068,9.07225579 90.3426771,9.07225579 C90.8581474,9.07225579 91.3536226,9.27171297 91.7253322,9.62885233 C92.0970417,9.98599169 92.3161518,10.4731087 92.3367665,10.9881805 L92.3367665,37.6257018 C92.3161518,38.1407736 92.0970417,38.6278914 91.7253322,38.9850307 C91.3536226,39.3421701 90.8581474,39.5416273 90.3426771,39.5416273 C89.8272068,39.5416273 89.3317316,39.3421701 88.960022,38.9850307 C88.5883125,38.6278914 88.3692024,38.1407736 88.3485877,37.6257018 L88.3485877,10.9881805 C88.3692024,10.4731087 88.5883125,9.98599169 88.960022,9.62885233 Z M78.9911706,8.62299993 C79.3628801,8.26586057 79.8583615,8.06640338 80.3738318,8.06640338 C80.8893021,8.06640338 81.3847773,8.26586057 81.7564868,8.62299993 C82.1281964,8.98013929 82.3473065,9.46725633 82.3679212,9.98232806 L82.3679212,38.8917972 C82.3473065,39.4068689 82.1281964,39.8939867 81.7564868,40.2511261 C81.3847773,40.6082654 80.8893021,40.8077226 80.3738318,40.8077226 C79.8583615,40.8077226 79.3628801,40.6082654 78.9911706,40.2511261 C78.6194611,39.8939867 78.400357,39.4068689 78.3797424,38.8917972 L78.3797424,9.98232806 C78.400357,9.46725633 78.6194611,8.98013929 78.9911706,8.62299993 Z M68.996082,9.57923827 C69.3697467,9.20556353 69.8765447,8.99563488 70.4049865,8.99563488 C70.9334282,8.99563488 71.4402262,9.20556353 71.8138909,9.57923827 C72.1875556,9.95291301 72.3974741,10.4597246 72.3974741,10.9881805 L72.3974741,37.6257018 C72.3974741,38.1541577 72.1875556,38.6609693 71.8138909,39.034644 C71.4402262,39.4083188 70.9334282,39.6182459 70.4049865,39.6182459 C69.8765447,39.6182459 69.3697467,39.4083188 68.996082,39.034644 C68.6224173,38.6609693 68.4124927,38.1541577 68.4124927,37.6257018 L68.4124927,10.9881805 C68.4124927,10.4597246 68.6224173,9.95291301 68.996082,9.57923827 Z M59.0272306,13.5675224 C59.4008953,13.1938476 59.9076933,12.983919 60.436135,12.983919 C60.9645768,12.983919 61.4713748,13.1938476 61.8450395,13.5675224 C62.2187042,13.9411971 62.4286288,14.4480087 62.4286288,14.9764646 L62.4286288,32.9077761 C62.4286288,34.0094237 61.5345619,34.9019189 60.4329437,34.9019189 C59.3313255,34.9019189 58.4436474,34.0094237 58.4436474,32.9077761 L58.4436474,14.9764646 C58.4436474,14.4480087 58.6535658,13.9411971 59.0272306,13.5675224 Z M80.3722361,51.8513289 C66.8287191,51.8513289 59.44468,45.6565529 59.1365462,45.3883256 C58.7585536,45.0384288 58.5306104,44.5558405 58.5004581,44.0416376 C58.4703059,43.5274347 58.6402852,43.0215091 58.9747927,42.6298298 C59.3093001,42.2381505 59.7823867,41.991101 60.2949608,41.9404297 C60.8075349,41.8897584 61.3198345,42.0393964 61.7245542,42.3579982 C61.8426987,42.4553902 68.4364384,47.8630433 80.3690387,47.8630433 C92.4517142,47.8630433 98.9432777,42.4154728 99.0087362,42.3627853 C99.2072437,42.1924448 99.4373739,42.0628923 99.6859706,41.9815315 C99.9345674,41.9001707 100.196765,41.8685979 100.457569,41.8886147 C100.718373,41.9086315 100.972668,41.979848 101.205939,42.0981922 C101.439209,42.2165364 101.646879,42.3796873 101.817069,42.5783254 C101.988821,42.7761054 102.119724,43.0059332 102.202222,43.2545518 C102.28472,43.5031704 102.317174,43.7656628 102.297731,44.0268894 C102.278288,44.2881161 102.207323,44.542908 102.088929,44.7765734 C101.970535,45.0102389 101.807053,45.2181525 101.607914,45.3883256 L101.607914,45.3883256 C101.301377,45.6533597 93.9141574,51.8513289 80.3722361,51.8513289 Z M101.722023,34.3199127 C101.348358,34.6935875 100.84156,34.9035146 100.313118,34.9035146 C99.7846764,34.9035146 99.2778784,34.6935875 98.9042136,34.3199127 C98.5305489,33.946238 98.3206243,33.4394264 98.3206243,32.9109705 L98.3206243,14.9764646 C98.3206243,14.4480087 98.5305489,13.9411971 98.9042136,13.5675224 C99.2778784,13.1938476 99.7846764,12.983919 100.313118,12.983919 C100.84156,12.983919 101.348358,13.1938476 101.722023,13.5675224 C102.095687,13.9411971 102.305612,14.4480087 102.305612,14.9764646 L102.305612,32.9109705 L102.305612,32.9109705 C102.305612,33.4394264 102.095687,33.946238 101.722023,34.3199127 Z" id="Vector" fill="#286EFA"></path>
            <g id="Wordmark" transform="translate(0.000000, 78.527468)" fill="#000000">
                <path d="M1.79910156,20.2281221 C1.56179917,20.2318472 1.3261383,20.1898066 1.10613355,20.1045 C0.886128799,20.0191934 0.686273245,19.8923629 0.518452598,19.7315518 C0.350631951,19.5707407 0.218273307,19.3792332 0.129248304,19.1684176 C0.0402233007,18.957602 -0.00364996173,18.7317846 3.54607836e-14,18.5043938 L3.54607836e-14,2.08610313 C3.54607836e-14,1.14157307 0.754290607,0.362374025 1.82626019,0.362374025 C2.87107105,0.362374025 3.62512408,1.14310389 3.62512408,2.08610313 L3.62512408,18.5043938 C3.62512408,19.4489239 2.87107115,20.2281221 1.79910156,20.2281221 Z M27.0502944,17.0883639 C27.0502944,19.1167308 25.9208127,20.2541468 24.1235462,20.2541468 L23.9797647,20.2541468 C22.2671694,20.2541468 21.4572029,19.3096173 20.7319061,17.9196119 L17.0782636,11.1134834 L13.8320001,4.08691489 L13.9182688,10.8915112 L13.9486227,18.4768378 C13.9486227,19.419837 13.1961677,20.199036 12.1226006,20.199036 C11.885568,20.2025485 11.6502134,20.160402 11.4305029,20.0750971 C11.2107923,19.9897922 11.0112025,19.8630668 10.8435751,19.7024409 C10.6759478,19.541815 10.5436986,19.3505616 10.4546754,19.1400279 C10.3656521,18.9294942 10.3216686,18.7039699 10.3253341,18.4768378 L10.3253341,3.47457757 C10.3253341,1.61307264 11.4548153,0.308794484 13.4278145,0.308794484 L13.571596,0.308794484 C15.3976187,0.308794484 16.1532698,1.25179389 16.8769691,2.64333008 L20.471502,9.3943473 L23.5452266,15.9509475 L23.4573598,9.66989877 L23.4270074,2.08610313 C23.4270074,1.14157307 24.1810599,0.362374025 25.2530295,0.362374025 C26.2978404,0.362374025 27.0502944,1.14004225 27.0502944,2.08610313 L27.0502944,2.08610313 L27.0502944,17.0883639 Z M39.7509784,20.199036 C39.5139459,20.2025485 39.2785898,20.160402 39.0588792,20.0750971 C38.8391687,19.9897922 38.6395789,19.8630668 38.4719515,19.7024409 C38.3043241,19.541815 38.1720765,19.3505616 38.0830532,19.1400279 C37.99403,18.9294942 37.9500464,18.7039699 37.953712,18.4768378 L37.953712,3.6123533 L33.4597445,3.6123533 C32.5331539,3.6123533 31.7791006,2.9464369 31.7791006,1.97435166 C31.7740868,1.76147852 31.8141217,1.54983749 31.8967866,1.35219261 C31.9794515,1.15454773 32.1030355,0.974994057 32.260086,0.824360168 C32.4171365,0.673726279 32.604398,0.555133314 32.8105793,0.475733419 C33.0167606,0.396333525 33.2375879,0.357771852 33.4597445,0.362374025 L46.070965,0.362374025 C46.9975557,0.362374025 47.7516089,1.02982161 47.7516089,2.00190685 C47.7564039,2.21465277 47.7162103,2.42612741 47.6334475,2.62359261 C47.5506848,2.82105781 47.4270664,3.00042739 47.2700385,3.15089656 C47.1130106,3.30136573 46.9258218,3.41982063 46.7197493,3.49912659 C46.5136769,3.57843254 46.2929842,3.61694806 46.070965,3.6123533 L41.5770006,3.6123533 L41.5770006,18.4768378 C41.5770006,19.419837 40.8245456,20.199036 39.7509784,20.199036 Z M52.4804212,2.50096178 C52.4804212,1.05584606 53.3207423,0.250622455 54.8560073,0.308794484 L65.2929346,0.308794484 C66.2195253,0.308794484 66.9739594,1.00379725 66.9739594,1.94679648 C66.9783705,2.1595424 66.9381769,2.37101705 66.8554141,2.56848225 C66.7726513,2.76594745 66.6490299,2.94531703 66.492002,3.0957862 C66.3349741,3.24625536 66.1477884,3.36471026 65.9417159,3.44401622 C65.7356435,3.52332218 65.5149539,3.5618377 65.2929346,3.55724294 L56.0733574,3.55724294 L56.0733574,8.33653487 L64.2209628,8.33653487 C64.4356887,8.33148843 64.6492442,8.36832015 64.848658,8.44479346 C65.0480717,8.52126677 65.2291793,8.63578552 65.3809843,8.78139317 C65.5327894,8.92700082 65.6521221,9.10065842 65.7317326,9.29181819 C65.811343,9.48297796 65.8495698,9.68764952 65.8440922,9.89340169 C65.8493498,10.0990268 65.81096,10.3035325 65.7312511,10.4945122 C65.6515422,10.6854919 65.5321754,10.8589647 65.3803932,11.0044072 C65.228611,11.1498498 65.0475783,11.264231 64.848274,11.3406106 C64.6489698,11.4169902 64.4355508,11.4537765 64.2209628,11.4487385 L56.0733574,11.4487385 L56.0733574,16.9490563 L65.2913319,16.9490563 C66.2211177,16.9490563 66.9739594,17.6440592 66.9739594,18.5885892 C66.9783705,18.8013351 66.9381769,19.01281 66.8554141,19.2102752 C66.7726513,19.4077404 66.6490299,19.5871107 66.492002,19.7375798 C66.3349741,19.888049 66.1477884,20.0065041 65.9417159,20.0858101 C65.7356435,20.165116 65.5149539,20.2036308 65.2929346,20.199036 L54.7697371,20.199036 C53.2632284,20.199036 52.4213111,19.3938128 52.4804212,17.9211419 L52.4804212,17.9211419 L52.4804212,2.50096178 Z" id="Vector"></path>
                <path d="M86.7196437,20.2832306 C86.2826943,20.5047122 85.7733476,20.5559031 85.29795,20.426115 C84.8225524,20.2963268 84.4178505,19.9955921 84.1683293,19.5866973 L80.1376712,12.4483774 L76.3099024,12.4483774 L76.3402517,18.5059218 C76.3402517,19.4504517 75.5878017,20.2296513 74.5142371,20.2296513 C74.2770685,20.2331691 74.0415793,20.1909746 73.8217617,20.1055752 C73.6019442,20.0201758 73.4022803,19.8933133 73.2346312,19.7325234 C73.0669821,19.5717335 72.9347698,19.3802959 72.8458436,19.1695834 C72.7569173,18.9588709 72.7130932,18.7331816 72.7169749,18.5059218 L72.7169749,2.50096154 C72.7169749,1.05584597 73.5572932,0.250622462 75.0941521,0.308794485 L81.963686,0.308794485 C86.6892872,0.308794485 88.6622837,3.25260505 88.6622837,6.25305689 C88.6622837,9.11573283 86.9209354,11.2267642 83.9366814,11.7824601 L87.5599651,17.948696 L87.5599651,17.948696 C88.0536131,18.7539193 87.7356958,19.7811142 86.7196437,20.2832306 Z M82.0499559,9.30708799 C83.9925966,9.30708799 85.007054,8.11303051 85.007054,6.4183876 C85.007054,4.72374469 83.9350817,3.55724257 82.0211972,3.55724257 L76.3114991,3.55724257 L76.3114991,9.30708799 L76.3082996,9.30708799 L82.0499559,9.30708799 Z" id="Vector"></path>
                <path d="M92.9835176,10.282454 C92.9835176,6.58853184 93.9420536,3.69983285 96.0859882,1.86282226 C97.4199563,0.752961701 99.2172226,0.00284905766 101.826049,0.00284905766 C104.115362,0.00284905766 105.885466,0.501903544 107.217837,1.58727058 C108.37767,2.47515897 109.217985,3.72585747 109.711634,5.47561 C109.973634,6.3941153 109.305851,7.30955843 108.20353,7.50550623 C107.158722,7.67389886 106.318406,7.0324759 105.998893,6.11703234 C105.649025,5.22914395 105.184126,4.59078262 104.636161,4.14530755 C103.883707,3.50847723 102.955529,3.22833317 101.736586,3.22833317 C100.432971,3.22833317 99.3002925,3.589612 98.4599724,4.39483498 C97.2426265,5.5613367 96.7186244,7.6448128 96.7186244,10.2855155 C96.7186244,12.897132 97.2138737,14.9806089 98.4871344,16.1471106 C99.3274545,16.9523336 100.429768,17.3120809 101.706224,17.3120809 C103.040192,17.3120809 104.05465,16.9783577 104.896568,16.2297759 C105.329508,15.840942 105.709725,15.3418868 105.968531,14.758636 C106.345557,13.8983027 107.128365,13.2584107 108.142819,13.4803828 C109.157274,13.7023549 109.796312,14.6453546 109.476798,15.5623289 C108.955992,17.0901094 108.054962,18.3132522 106.839214,19.1475612 C105.505246,20.0660665 103.853359,20.5360343 101.763742,20.5360343 C99.1005978,20.5314418 97.4183576,19.7813296 96.1434994,18.7281102 L96.1434994,18.7281102 C93.9692112,16.8666062 92.9835176,13.9488208 92.9835176,10.282454 Z" id="Vector"></path>
                <path d="M122.758801,0 C128.992506,0 131.689205,3.9449818 131.689205,10.2796088 C131.689205,16.6984319 128.96375,20.5607477 122.758801,20.5607477 C116.43723,20.5607477 113.798048,16.6984319 113.798048,10.2796088 L113.798048,10.2796088 C113.798048,4.05826398 116.465986,0 122.758801,0 Z M122.728452,3.2530407 C119.336818,3.2530407 117.539554,5.55848984 117.539554,10.2796088 C117.539554,15.0022586 119.280903,17.307707 122.728452,17.307707 C126.150439,17.3107687 127.976452,15.00532 127.976452,10.2811396 L127.976452,10.2796088 C127.976452,5.55848984 126.177598,3.2530407 122.728452,3.2530407 Z" id="Vector"></path>
                <path d="M157.985341,20.1992256 C157.748306,20.202738 157.512948,20.1605916 157.293235,20.0752865 C157.073523,19.9899815 156.873934,19.8632546 156.706305,19.7026285 C156.538676,19.5420024 156.406428,19.3507488 156.317404,19.1402149 C156.22838,18.929681 156.184393,18.704158 156.188058,18.4770255 L156.188058,11.0309975 L156.275926,3.78091836 L153.753336,11.1427491 L151.201994,18.3928286 C150.769048,19.6710837 149.868011,20.170138 148.738519,20.170138 C147.549916,20.170138 146.680825,19.6419991 146.217526,18.363744 L143.608677,11.1396876 L141.202708,3.88960811 L141.290576,11.0309975 L141.290576,18.4770255 C141.290576,19.4200257 140.536519,20.1992256 139.46454,20.1992256 C139.227505,20.202738 138.992147,20.1605916 138.772435,20.0752865 C138.552722,19.9899815 138.353134,19.8632546 138.185505,19.7026285 C138.017876,19.5420024 137.885627,19.3507488 137.796603,19.1402149 C137.707579,18.929681 137.663592,18.704158 137.667046,18.4770255 L137.667046,3.61252527 C137.667046,1.55813197 138.82551,0.362542587 140.85604,0.362542587 C142.768348,0.362542587 143.843523,1.33615955 144.450605,3.11347001 L147.120165,10.6988043 L148.743309,15.8638729 L150.396814,10.6988043 L153.064778,3.11347001 C153.675055,1.33615955 154.719877,0.362542587 156.633783,0.362542587 C158.662715,0.362542587 159.792203,1.52904602 159.792203,3.61252527 L159.812973,18.4770255 L159.811376,18.4770255 C159.811376,19.4200257 159.058917,20.1992256 157.985341,20.1992256 Z" id="Vector"></path>
            </g>
        </g>
    </g>
</svg>