<?xml version="1.0" encoding="UTF-8"?>
<svg width="144px" height="22px" viewBox="0 0 144 22" version="1.1" xmlns="http://www.w3.org/2000/svg" xmlns:xlink="http://www.w3.org/1999/xlink">
    <title>kongregate</title>
    <g id="ðŸ-Logos" stroke="none" stroke-width="1" fill="none" fill-rule="evenodd">
        <g id="kongregate" fill-rule="nonzero">
            <polygon id="Path" fill="#990000" points="0 0 142.714099 0 142.714099 21.340426 0 21.340426"></polygon>
            <path d="M11.3332905,17.1836159 L11.3332905,15.0023195 L12.1838589,15.0023195 L12.2425451,14.9200064 L10.1145998,11.5032518 L8.41193863,13.1083567 L8.41193863,14.7546181 L8.45004654,14.8376933 L9.70760736,15.2904152 L9.70760736,17.1836159 L4.07983216,17.1836159 L4.07983216,15.0023195 L5.22078279,15.0023195 L5.2787068,14.9200064 L5.2787068,6.81140668 L5.2405989,6.72909361 L4.00209203,6.21463691 L4.00209203,4.32143627 L9.68931556,4.32143627 L9.68931556,6.50273267 L8.47062481,6.50273267 L8.41270079,6.58504574 L8.41270079,10.6801211 L12.5131112,6.70851534 L12.5131112,6.62620227 L11.8751849,6.42041959 L11.2372586,6.21463691 L11.2372586,4.32143627 L17.1363621,4.32143627 L17.1363621,6.50273267 L16.3635338,6.50273267 L16.1699456,6.56446747 L12.3012313,9.96064384 L15.7637154,14.7546181 L15.8795634,14.8582716 L17.2148644,15.2904152 L17.2148644,17.1836159 L11.3332905,17.1836159 L11.3332905,17.1836159 Z M24.1390704,17.5128682 C19.6895916,17.5128682 18.2971288,15.2081022 18.2971288,11.0711081 C18.2971288,5.3915062 21.0241304,4.03334051 24.7579428,4.03334051 C29.2074216,4.03334051 30.5998844,6.33810652 30.5998844,10.4751005 C30.5998844,16.1547025 27.8721207,17.5128682 24.1390704,17.5128682 L24.1390704,17.5128682 Z M24.4286905,6.25579345 C22.2237672,6.25579345 21.5469708,7.49048953 21.5469708,10.4133657 C21.5469708,14.508441 22.0301791,15.269837 24.4683227,15.269837 C26.673246,15.269837 27.3500424,14.0351409 27.3500424,11.1130268 C27.3500424,7.03776763 26.9057042,6.25579345 24.4294527,6.25579345 L24.4286905,6.25579345 Z M45.8049379,6.50273267 L44.662463,6.50273267 L44.604539,6.58504574 L44.604539,17.3695824 L40.8516726,17.3695824 L36.1895517,7.45009515 L35.8999316,7.45009515 L35.8999316,14.6944076 L35.9380395,14.7767207 L37.5439066,15.2911774 L37.5439066,17.184378 L32.3017834,17.184378 L32.3017834,15.0030816 L33.442734,15.0030816 L33.500658,14.9207686 L33.500658,6.81140668 L33.4625501,6.72909361 L32.2240433,6.21539907 L32.2240433,4.32143627 L37.5240905,4.32143627 L41.8965913,13.7874395 L42.1862114,13.7874395 L42.1862114,6.81140668 L42.1481035,6.72909361 L40.5422365,6.21539907 L40.5422365,4.32143627 L45.8041758,4.32143627 L45.8041758,6.50273267 L45.8049379,6.50273267 Z M59.2882764,12.6769752 L58.0497695,12.6769752 L57.9918455,12.7592883 L57.9918455,14.3026584 L59.1716662,14.6936455 L59.1716662,16.4008795 C57.411081,17.0182276 55.5155939,17.5128682 53.2138765,17.5128682 C48.7445816,17.5128682 47.2751409,15.269837 47.2751409,11.0711081 C47.2751409,5.45400316 49.9251645,4.03334051 53.6201068,4.03334051 C54.8387976,4.03334051 55.3608758,4.21854493 55.9797482,4.4243276 L58.0886396,3.82755783 L58.0886396,8.6634508 L55.9995643,8.6634508 L55.4378538,6.72909361 C54.7610574,6.42041959 54.219163,6.25655561 53.2908545,6.25655561 C51.3176273,6.25655561 50.5242207,7.59338087 50.5242207,10.4126036 C50.5242207,14.4467062 51.0859312,15.2492587 53.5423667,15.2492587 C54.1810551,15.2492587 54.7221874,15.1463674 55.1482337,14.9817412 L55.1482337,12.8827579 L55.1101258,12.8004448 L53.4653887,12.3888795 L53.4653887,10.4949166 L59.2882764,10.4949166 L59.2882764,12.6769752 L59.2882764,12.6769752 Z M69.2694985,17.1836159 L68.2055258,14.9611629 L66.774193,12.0802054 L65.4587081,12.2859881 L65.4587081,14.7553803 L65.496816,14.8376933 L66.5226808,15.2492587 L66.5226808,17.1836159 L61.1250773,17.1836159 L61.1250773,15.0023195 L62.266028,15.0023195 L62.323952,14.9200064 L62.323952,6.81140668 L62.2858441,6.72909361 L61.0473372,6.21539907 L61.0473372,4.32143627 L66.8313548,4.32143627 C70.8746034,4.32143627 72.1893261,5.14456698 72.1893261,7.96455185 C72.1893261,10.0421947 71.2030935,11.1953399 69.6170426,11.7921097 L71.6291399,14.7553803 L71.7449879,14.8582716 L72.9057546,15.2904152 L72.9057546,17.1836159 L69.2687363,17.1836159 L69.2694985,17.1836159 Z M66.3687249,6.50273267 L65.4594703,6.50273267 L65.4594703,10.3310527 L66.620237,10.4956788 C68.0515699,10.1656644 68.7672363,9.71294246 68.7672363,8.33496067 C68.7672363,6.91429802 68.322136,6.50273267 66.3687249,6.50273267 Z M85.2679586,17.1836159 L73.9514355,17.1836159 L73.9514355,15.0023195 L75.0923861,15.0023195 L75.1503102,14.9200064 L75.1503102,6.81140668 L75.1114401,6.72909361 L73.8736954,6.21539907 L73.8736954,4.32143627 L85.4219145,4.32143627 L85.4219145,9.11693485 L83.1781211,9.11693485 L82.926609,7.65511567 C82.7132047,6.60562401 82.4815086,6.50273267 78.8452525,6.50273267 L78.2843041,6.50273267 L78.2843041,9.89890903 L79.0967647,9.89890903 C79.7537449,9.89890903 79.889409,9.81659596 80.0441271,9.28156099 L80.2575314,8.39593331 L82.0364083,8.39593331 L81.5722541,13.047384 L80.0829972,13.047384 L79.8695929,12.1205998 C79.715637,11.6686401 79.5799729,11.5855648 79.0967647,11.5855648 L78.2843041,11.5855648 L78.2843041,15.0023195 L78.8452525,15.0023195 C82.3656606,15.0023195 82.5203787,14.9200064 82.8694471,13.7470451 L83.2749152,12.4086956 L85.6353187,12.4086956 L85.2671964,17.1836159 L85.2679586,17.1836159 Z M99.2352674,12.6769752 L97.9967605,12.6769752 L97.9388365,12.7592883 L97.9388365,14.3026584 L99.1186572,14.6936455 L99.1186572,16.4008795 C97.358072,17.0182276 95.4625849,17.5128682 93.1608675,17.5128682 C88.6923348,17.5128682 87.2213697,15.269837 87.2213697,11.0711081 C87.2213697,5.45400316 89.8713933,4.03334051 93.5670978,4.03334051 C94.7857886,4.03334051 95.3078668,4.21854493 95.9267392,4.4243276 L98.0356306,3.82755783 L98.0356306,8.6634508 L95.9465553,8.6634508 L95.385607,6.72909361 C94.7080484,6.42041959 94.166154,6.25655561 93.2378455,6.25655561 C91.2638561,6.25655561 90.4712117,7.59338087 90.4712117,10.4126036 C90.4712117,14.4467062 91.0321601,15.2492587 93.4893577,15.2492587 C94.1280461,15.2492587 94.6699405,15.1463674 95.0952247,14.9817412 L95.0952247,12.8827579 L95.0571168,12.8004448 L93.4123797,12.3888795 L93.4123797,10.4949166 L99.2352674,10.4949166 L99.2352674,12.6769752 L99.2352674,12.6769752 Z M107.359872,17.1836159 L107.359872,15.0023195 L108.307235,15.0023195 L108.365159,14.9200064 L108.055723,13.2120102 L104.187008,13.2120102 L103.87681,14.7553803 L103.914918,14.8376933 L105.096263,15.2904152 L105.096263,17.1836159 L100.162814,17.1836159 L100.162814,15.0023195 L101.303764,15.0023195 L101.401321,14.9200064 L104.24417,5.49439754 L104.24417,4.69184509 L108.519877,4.0135244 L111.730849,14.7553803 L111.788773,14.8582716 L113.104258,15.2904152 L113.104258,17.1836159 L107.35911,17.1836159 L107.359872,17.1836159 Z M106.276084,6.48291656 L105.986464,6.48291656 L104.805881,11.2768908 L107.397218,11.2768908 L106.276084,6.48291656 Z M123.18075,9.38369018 L122.831681,7.42875472 C122.696779,6.75043404 122.619039,6.46157613 121.458272,6.46157613 L120.80053,6.46157613 L120.80053,14.7553803 L120.838638,14.8376933 L122.580169,15.2904152 L122.580169,17.1836159 L115.984453,17.1836159 L115.984453,15.0023195 L117.608612,15.0023195 L117.666536,14.9200064 L117.666536,6.46157613 L117.105588,6.46157613 C116.080485,6.46157613 115.964637,6.72909361 115.828973,7.26412858 L115.210101,9.38369018 L112.849697,9.38369018 L113.217819,4.32143627 L125.423781,4.32143627 L125.423781,9.38369018 L123.179988,9.38369018 L123.18075,9.38369018 Z M138.346171,17.1836159 L127.028886,17.1836159 L127.028886,15.0023195 L128.170599,15.0023195 L128.228523,14.9200064 L128.228523,6.81140668 L128.190415,6.72909361 L126.951908,6.21539907 L126.951908,4.32143627 L138.500127,4.32143627 L138.500127,9.11693485 L136.256334,9.11693485 L136.004821,7.65511567 C135.792179,6.60562401 135.559721,6.50273267 131.923465,6.50273267 L131.361754,6.50273267 L131.361754,9.89890903 L132.174977,9.89890903 C132.832719,9.89890903 132.967621,9.81659596 133.12234,9.28156099 L133.335744,8.39593331 L135.115383,8.39593331 L134.650466,13.047384 L133.16121,13.047384 L132.947805,12.1205998 C132.793849,11.6686401 132.658185,11.5855648 132.174977,11.5855648 L131.361754,11.5855648 L131.361754,15.0023195 L131.923465,15.0023195 C135.443873,15.0023195 135.598591,14.9200064 135.946897,13.7470451 L136.353128,12.4086956 L138.712769,12.4086956 L138.345409,17.1836159 L138.346171,17.1836159 Z" id="Shape" fill="#FFFFFF"></path>
        </g>
    </g>
</svg>