<svg width="20" height="20" viewBox="0 0 20 20" fill="none" xmlns="http://www.w3.org/2000/svg">
<path d="M1.5625 18.4375V1.5625" stroke="black" stroke-width="1.5" stroke-linecap="round" stroke-linejoin="round"/>
<path d="M1.5625 14.281L3.928 13.5535C4.90788 13.2518 5.94086 13.1627 6.95794 13.292C7.97502 13.4213 8.9528 13.7662 9.826 14.3035C10.6781 14.8287 11.6303 15.1708 12.6218 15.3079C13.6133 15.445 14.6226 15.3742 15.5853 15.1L17.8255 14.4595C18.0018 14.4091 18.157 14.3027 18.2674 14.1562C18.3778 14.0098 18.4375 13.8314 18.4375 13.648V4.85274C18.4374 4.72219 18.407 4.59344 18.3487 4.4766C18.2904 4.35977 18.2059 4.25804 18.1017 4.17941C17.9974 4.10077 17.8764 4.04737 17.7481 4.0234C17.6197 3.99942 17.4876 4.00553 17.362 4.04124L15.5853 4.54899C14.6229 4.82388 13.6138 4.89542 12.6223 4.75907C11.6307 4.62271 10.6785 4.28145 9.826 3.75699C8.9528 3.21968 7.97502 2.87484 6.95794 2.7455C5.94086 2.61617 4.90788 2.70532 3.928 3.00699L1.5625 3.73374" stroke="black" stroke-width="1.5" stroke-linecap="round" stroke-linejoin="round"/>
</svg>
