<svg width="20" height="20" viewBox="0 0 20 20" fill="none" xmlns="http://www.w3.org/2000/svg">
<path d="M17.8 9.39999H10.6C9.93725 9.39999 9.39999 9.93725 9.39999 10.6V17.8C9.39999 18.4627 9.93725 19 10.6 19H17.8C18.4627 19 19 18.4627 19 17.8V10.6C19 9.93725 18.4627 9.39999 17.8 9.39999Z" stroke="black" stroke-width="1.5" stroke-linecap="round" stroke-linejoin="round"/>
<path d="M11.8 11.8H16.6" stroke="black" stroke-width="1.5" stroke-linecap="round" stroke-linejoin="round"/>
<path d="M11.8 14.2H16.6" stroke="black" stroke-width="1.5" stroke-linecap="round" stroke-linejoin="round"/>
<path d="M11.8 16.6H13.6" stroke="black" stroke-width="1.5" stroke-linecap="round" stroke-linejoin="round"/>
<path d="M5.19999 5.8C6.52547 5.8 7.59998 4.72548 7.59998 3.4C7.59998 2.07452 6.52547 1 5.19999 1C3.8745 1 2.79999 2.07452 2.79999 3.4C2.79999 4.72548 3.8745 5.8 5.19999 5.8Z" stroke="black" stroke-width="1.5" stroke-linecap="round" stroke-linejoin="round"/>
<path d="M7.9944 8.06401C7.38944 7.52533 6.64164 7.17303 5.84107 7.04957C5.0405 6.92611 4.22131 7.03674 3.48217 7.36814C2.74303 7.69954 2.11547 8.23757 1.67508 8.91743C1.23469 9.59729 1.00025 10.39 1 11.2V13H2.8L3.4 19H7L7.2072 16.932" stroke="black" stroke-width="1.5" stroke-linecap="round" stroke-linejoin="round"/>
<path d="M13.6 5.2C14.7598 5.2 15.7 4.2598 15.7 3.1C15.7 1.9402 14.7598 1 13.6 1C12.4402 1 11.5 1.9402 11.5 3.1C11.5 4.2598 12.4402 5.2 13.6 5.2Z" stroke="black" stroke-width="1.5" stroke-linecap="round" stroke-linejoin="round"/>
<path d="M16.72 7.59998C16.4336 7.10421 16.033 6.68391 15.5516 6.37396C15.0702 6.06401 14.5219 5.87336 13.952 5.81782C13.3822 5.76228 12.8073 5.84346 12.2751 6.05463C11.7429 6.26579 11.2687 6.60084 10.892 7.03198" stroke="black" stroke-width="1.5" stroke-linecap="round" stroke-linejoin="round"/>
</svg>
