<svg width="20" height="20" viewBox="0 0 20 20" fill="none" xmlns="http://www.w3.org/2000/svg">
<path d="M17.8 1H2.2C1.53726 1 1 1.53726 1 2.2V17.8C1 18.4627 1.53726 19 2.2 19H17.8C18.4627 19 19 18.4627 19 17.8V2.2C19 1.53726 18.4627 1 17.8 1Z" stroke="black" stroke-width="1.5" stroke-linecap="round" stroke-linejoin="round"/>
<path d="M10.6 13H15.4" stroke="black" stroke-width="1.5" stroke-linecap="round" stroke-linejoin="round"/>
<path d="M4.60001 13H7.00001" stroke="black" stroke-width="1.5" stroke-linecap="round" stroke-linejoin="round"/>
<path fill-rule="evenodd" clip-rule="evenodd" d="M10.6 13C10.6 13.356 10.4945 13.704 10.2967 14C10.099 14.2959 9.81788 14.5267 9.48902 14.6629C9.16016 14.7992 8.79828 14.8349 8.44913 14.7655C8.09999 14.6961 7.77926 14.5247 7.52749 14.2731C7.27572 14.0214 7.10423 13.7008 7.03469 13.3517C6.96514 13.0026 7.00067 12.6407 7.13679 12.3117C7.2729 11.9828 7.50349 11.7016 7.79939 11.5038C8.0953 11.3059 8.44323 11.2002 8.7992 11.2C9.03565 11.1999 9.2698 11.2464 9.48828 11.3368C9.70676 11.4272 9.90528 11.5598 10.0725 11.7269C10.2397 11.8941 10.3724 12.0926 10.4629 12.311C10.5534 12.5294 10.6 12.7636 10.6 13V13Z" stroke="black" stroke-width="1.5" stroke-linecap="round" stroke-linejoin="round"/>
<path d="M11.8 7H4.60001" stroke="black" stroke-width="1.5" stroke-linecap="round" stroke-linejoin="round"/>
<path fill-rule="evenodd" clip-rule="evenodd" d="M15.4 7.00001C15.4 6.64404 15.2944 6.29606 15.0967 6.00007C14.8989 5.70408 14.6179 5.47337 14.289 5.33711C13.9601 5.20084 13.5983 5.16515 13.2491 5.23454C12.9 5.30393 12.5792 5.47528 12.3275 5.72694C12.0757 5.97859 11.9042 6.29925 11.8347 6.64836C11.7651 6.99747 11.8007 7.35937 11.9368 7.68829C12.0729 8.01721 12.3035 8.29839 12.5994 8.49627C12.8953 8.69415 13.2432 8.79985 13.5992 8.80001C14.0767 8.80001 14.5346 8.6104 14.8723 8.27285C15.21 7.93531 15.3998 7.47748 15.4 7.00001V7.00001Z" stroke="black" stroke-width="1.5" stroke-linecap="round" stroke-linejoin="round"/>
</svg>
