<svg width="20" height="18" viewBox="0 0 20 18" fill="none" xmlns="http://www.w3.org/2000/svg">
<path d="M17.3125 6.75V4.5C17.3125 4.20163 17.194 3.91548 16.983 3.7045C16.772 3.49353 16.4859 3.375 16.1875 3.375H7.1875V2.25C7.1875 1.95163 7.06897 1.66548 6.858 1.4545C6.64702 1.24353 6.36087 1.125 6.0625 1.125H2.6875C2.38913 1.125 2.10298 1.24353 1.892 1.4545C1.68103 1.66548 1.5625 1.95163 1.5625 2.25V15.6C1.56673 15.9063 1.68113 16.2009 1.88476 16.4298C2.08839 16.6587 2.36764 16.8067 2.6714 16.8465C2.97516 16.8864 3.28313 16.8156 3.53895 16.647C3.79477 16.4784 3.98133 16.2234 4.0645 15.9285L5.8285 7.563C5.89615 7.32864 6.03814 7.12261 6.23307 6.97597C6.42801 6.82933 6.66532 6.75003 6.90925 6.75H17.3125ZM17.3125 6.75C17.4849 6.74994 17.6551 6.78953 17.8098 6.8657C17.9645 6.94187 18.0997 7.05259 18.2048 7.1893C18.3099 7.32602 18.3821 7.48506 18.416 7.65416C18.4499 7.82325 18.4444 7.99786 18.4 8.1645L16.75 16.0395C16.6862 16.2792 16.5449 16.491 16.3483 16.6421C16.1516 16.7932 15.9105 16.8751 15.6625 16.875H2.83525" stroke="black" stroke-width="1.5" stroke-linecap="round" stroke-linejoin="round"/>
</svg>
