<svg width="20" height="20" viewBox="0 0 20 20" fill="none" xmlns="http://www.w3.org/2000/svg">
<path d="M8.30124 18.2673C6.78448 17.9554 5.3828 17.2321 4.24968 16.1767C3.11655 15.1213 2.29569 13.7745 1.87697 12.2837C1.45825 10.7929 1.45783 9.21559 1.87575 7.72457C2.29367 6.23354 3.11381 4.88626 4.24637 3.83026C5.37892 2.77425 6.78022 2.05026 8.2968 1.73755C9.81339 1.42484 11.3868 1.53547 12.8447 2.05733C14.3026 2.5792 15.5888 3.49217 16.5624 4.69627C17.5361 5.90036 18.1596 7.34916 18.3647 8.884" stroke="black" stroke-width="1.5" stroke-linecap="round" stroke-linejoin="round"/>
<path d="M7.96675 18.1915C6.826 16.5168 6.0625 13.4755 6.0625 10C6.0625 6.52451 6.826 3.48402 7.96675 1.80927" stroke="black" stroke-width="1.5" stroke-linecap="round" stroke-linejoin="round"/>
<path d="M1.58124 9.43826H10.5625" stroke="black" stroke-width="1.5" stroke-linecap="round" stroke-linejoin="round"/>
<path d="M3.24927 4.93826H16.75" stroke="black" stroke-width="1.5" stroke-linecap="round" stroke-linejoin="round"/>
<path d="M2.53601 13.9383H8.87501" stroke="black" stroke-width="1.5" stroke-linecap="round" stroke-linejoin="round"/>
<path d="M12.0333 1.80927C12.9174 3.27961 13.4797 4.92069 13.6833 6.62427" stroke="black" stroke-width="1.5" stroke-linecap="round" stroke-linejoin="round"/>
<path d="M14.5 12.8133C15.5873 12.8133 16.4688 11.9318 16.4688 10.8445C16.4688 9.7572 15.5873 8.87576 14.5 8.87576C13.4127 8.87576 12.5312 9.7572 12.5312 10.8445C12.5312 11.9318 13.4127 12.8133 14.5 12.8133Z" stroke="black" stroke-width="1.5" stroke-linecap="round" stroke-linejoin="round"/>
<path d="M10.5625 18.4375V17.3125C10.5625 16.2682 10.9773 15.2667 11.7158 14.5283C12.4542 13.7898 13.4557 13.375 14.5 13.375C15.0171 13.3749 15.5292 13.4767 16.0069 13.6745C16.4847 13.8724 16.9188 14.1624 17.2845 14.528C17.6501 14.8937 17.9401 15.3278 18.138 15.8056C18.3358 16.2833 18.4376 16.7954 18.4375 17.3125V18.4375" stroke="black" stroke-width="1.5" stroke-linecap="round" stroke-linejoin="round"/>
</svg>
