<svg width="20" height="20" viewBox="0 0 20 20" fill="none" xmlns="http://www.w3.org/2000/svg">
<path d="M18.6111 9.61115C18.6111 8.93174 18.0604 8.38098 17.381 8.38098C16.7016 8.38098 16.1508 8.93174 16.1508 9.61115V12.0715C16.1508 12.7509 16.7016 13.3016 17.381 13.3016C18.0604 13.3016 18.6111 12.7509 18.6111 12.0715V9.61115Z" stroke="black" stroke-width="1.5" stroke-linecap="round" stroke-linejoin="round"/>
<path d="M3.84918 9.61115C3.84918 8.93174 3.29842 8.38098 2.61902 8.38098C1.93962 8.38098 1.38885 8.93174 1.38885 9.61115V12.0715C1.38885 12.7509 1.93962 13.3016 2.61902 13.3016C3.29842 13.3016 3.84918 12.7509 3.84918 12.0715V9.61115Z" stroke="black" stroke-width="1.5" stroke-linecap="round" stroke-linejoin="round"/>
<path d="M16.1508 10.2262V7.15082C16.1461 5.52099 15.4965 3.95926 14.344 2.80679C13.1916 1.65432 11.6298 1.00476 10 1V1C8.37017 1.00476 6.80845 1.65432 5.65597 2.80679C4.5035 3.95926 3.85394 5.52099 3.84918 7.15082V10.2262" stroke="black" stroke-width="1.5" stroke-linecap="round" stroke-linejoin="round"/>
<path d="M16.1508 9.15533V12.2307C16.1461 13.8606 15.4965 15.4223 14.344 16.5748C13.1916 17.7272 11.6298 18.3768 10 18.3816" stroke="black" stroke-width="1.5" stroke-linecap="round" stroke-linejoin="round"/>
<rect x="8.42285" y="16.7688" width="3.15432" height="2.23119" rx="1.11559" fill="black"/>
</svg>
