<?xml version="1.0" encoding="UTF-8"?>
<svg width="150px" height="25px" viewBox="0 0 150 25" version="1.1" xmlns="http://www.w3.org/2000/svg" xmlns:xlink="http://www.w3.org/1999/xlink">
    <title>panasonic</title>
    <g id="ðŸ-Logos" stroke="none" stroke-width="1" fill="none" fill-rule="evenodd">
        <g id="panasonic" transform="translate(0.000000, 1.000000)" fill="#0041C0" fill-rule="nonzero">
            <path d="M0,22.9988239 L0,-0.277038137 L9.72188731,-0.277038137 C13.0013664,-0.242737716 16.1642955,-0.075270955 18.3626718,2.89272429 C18.9775741,3.72602275 19.8275862,5.261471 19.8275862,7.83803791 C19.8275862,11.0784188 18.4209469,13.0274898 17.4563942,13.9354421 C15.7282373,15.6726576 13.4133108,15.8502127 11.1305361,15.953114 L6.88248533,15.953114 L6.88248533,22.9968063 L0,22.9988239 Z M9.51691986,10.5578595 C10.6603167,10.5275944 11.9483964,10.4670643 12.7682662,9.62771281 C13.1697354,9.21265322 13.3908696,8.65466288 13.3831686,8.07612318 C13.3691279,7.50755923 13.1621123,6.96086158 12.796399,6.52655123 C11.7916566,5.44104379 10.1840688,5.56412177 8.87388474,5.56412177 L6.96889318,5.56412177 L6.96889318,10.5578595 L9.51691986,10.5578595" id="path23367"></path>
            <path d="M30.2352628,23.3633659 L29.9787762,21.8037712 C29.1231684,22.4982782 27.5529224,23.8608929 24.7296123,23.8608929 C24.2440499,23.8608929 22.13342,23.7918483 20.6767329,22.5348312 C20.0502009,21.9682597 18.9655172,20.6076757 18.9655172,18.3556047 C18.9655172,17.8235554 19.1084449,16.9178532 19.934684,15.7908023 C21.1094317,14.1662245 22.5034655,13.723527 24.3008294,13.2889524 L27.3258045,12.8990537 C27.6908968,12.7873446 28.0623049,12.6991781 28.4378989,12.6350598 C28.5240471,12.6005376 29.0096094,12.531493 29.266096,12.3324822 C29.5225826,12.1334714 29.7222897,11.3719505 29.7222897,11.0043898 C29.7222897,10.3423743 28.8940926,9.80017146 27.6116598,9.80017146 C26.4701967,9.80017146 25.9278548,10.2286539 25.6419996,10.6611977 C25.4990719,10.8927001 25.4462083,11.0896801 25.4129238,11.6237601 L19.6781975,11.5872071 C19.934684,10.2286539 20.1931285,9.13409453 21.1329266,8.00704364 C22.3076742,6.64442895 24.1579017,5.78340268 27.7898298,5.78340268 C28.4750993,5.78340268 31.2709986,5.4848865 33.324849,6.9124843 C34.1024151,7.41734637 34.7103932,8.15929704 35.0654334,9.03661986 C35.6939234,10.4296954 35.5216271,12.1172256 35.5216271,13.5793457 L35.5216271,18.2500071 C35.4942163,21.1681551 35.6939234,21.7022351 36.2068966,23.3593045 L30.2352628,23.3633659 Z M29.6361415,15.8496933 C28.8099023,16.1482095 27.9523366,16.4162648 27.090855,16.714781 L26.4643229,16.9178532 C26.149099,16.9848671 25.1799322,17.2021544 25.1799322,18.4632329 C25.1799322,19.0298045 25.4931982,20.0553192 26.7462623,20.0553192 C27.1988835,20.0358765 27.6483422,19.9678221 28.0874325,19.852247 C29.2288957,19.5212393 29.3150438,18.7515955 29.6283099,18.4165263 L29.6283099,15.8395397" id="path23369"></path>
            <path d="M48.3056939,22.9908251 L48.3056939,14.8200671 C48.3056939,15.7939191 48.5591118,11.6205534 47.7137406,11.2206142 C47.2646637,10.9620197 46.7613224,10.8206167 46.2473986,10.8086768 C45.5142277,10.8246744 44.6998082,11.1906188 44.4154384,11.8645163 C44.1059203,12.6863914 43.9917856,13.4402768 44.0285408,15.1520166 L44.0285408,22.9988239 L37.9310345,22.9988239 L37.9310345,6.08339508 L43.6822675,6.08339508 L43.7673849,8.04709659 C44.5566561,7.04724857 45.4871448,5.75744462 48.8686299,5.75744462 C51.3505781,5.75744462 53.2386384,6.65130875 54.0008267,9.24891392 C54.1691272,9.90481422 54.2542447,10.5387179 54.3103448,11.886513 L54.3103448,22.9908251 L48.3134319,22.9908251" id="path23371"></path>
            <path d="M82.7732973,11.1442227 C82.6557794,10.4869566 82.1916832,9.39899749 80.5962279,9.39899749 C80.0799906,9.38280546 79.5687493,9.50674187 79.1143069,9.75824852 C78.9708952,9.82152569 78.7378512,10.2522187 78.7378512,10.7461889 C78.7779484,11.0633443 78.9607948,11.342901 79.2318248,11.5014325 C79.6821297,11.706317 80.162927,11.8319108 80.6539909,11.8729308 L83.1258511,12.5301969 C84.8667099,12.9833431 86.3765165,13.3017701 87.5955161,14.5509839 C88.0610471,15.0158623 88.4096199,15.5895037 88.611349,16.222726 C88.9021561,17.11473 88.7567526,17.8128201 88.7567526,18.1108351 C88.7567526,20.1520342 87.7986827,21.3767536 87.2469459,21.8972594 C86.0518484,23.0158365 84.1695697,23.8608929 80.7157377,23.8608929 C77.841528,23.8608929 76.0429061,23.0872785 74.9673183,22.4483831 C72.6747227,21.0848622 72.5591966,18.5701049 72.4137931,17.7903669 L78.389281,17.7699549 C78.4470441,18.3619026 78.5346846,18.8048428 78.9987808,19.2294122 C79.3772284,19.5927456 79.7835615,19.8417719 80.8571575,19.8417719 C82.1339201,19.8417719 82.858946,19.2110414 82.8888234,18.6374645 C82.9288251,18.374712 82.8773527,18.1059126 82.7434199,17.8781384 C82.4526128,17.3862094 81.6698239,17.1780071 80.5384648,16.8799921 C80.5384648,16.8799921 77.0547554,16.1125012 76.7938257,15.9839057 C76.009045,15.6144487 72.8460201,14.8857406 72.8460201,11.2687358 C72.8221554,9.86306776 73.4053452,8.51836698 74.4394835,7.59457751 C75.5130795,6.63929634 77.2838158,5.75744462 80.4488325,5.75744462 C81.1459728,5.75744462 84.1058311,5.72483916 86.312778,7.27002686 C86.9084092,7.67963506 87.4133119,8.21304771 87.794699,8.83562654 C88.3165583,9.72150694 88.4041988,10.7808893 88.4619618,11.1401403 L82.7732973,11.1401403" id="path23373"></path>
            <path d="M104.635635,21.4197657 C103.621719,22.4714847 101.536234,23.8608929 98.0889213,23.8608929 C96.9875307,23.8608929 93.945784,23.7957962 91.7151697,21.0983506 C90.7867411,19.9489866 89.6575175,18.0469417 89.6575175,14.6151237 C89.6317512,13.4494726 89.8185043,12.2891157 90.2082128,11.1934772 C91.4547326,7.43414131 94.8443915,5.72535229 98.4070125,5.75790066 C99.3632741,5.75790066 102.347367,5.85554574 104.492494,8.09324565 C105.564064,9.2120956 106.925891,11.2504368 106.89607,14.8714421 C106.89607,15.7563507 106.838416,19.1169691 104.635635,21.4197657 Z M100.001444,11.0307353 C99.4507491,10.5038587 98.6097956,10.3980766 98.3195374,10.3980766 C97.7993971,10.4210705 97.300886,10.6175362 96.9000556,10.9575015 C96.1485653,11.5840575 95.5899177,12.5340628 95.5899177,14.6720834 C95.5899177,16.3503583 95.9656628,19.1474832 98.2837522,19.1474832 C98.9497556,19.1474832 99.5879259,18.9684672 99.9934922,18.4782075 C100.544187,17.8516515 101.122716,16.7226302 101.094883,14.7473515 C101.094883,14.6497064 101.122716,12.2045107 99.9934922,11.020564" id="path23381"></path>
            <path d="M125.862069,6.01789289 L131.896552,6.01789289 L131.896552,22.9988239 L125.862069,22.9988239 L125.862069,6.01789289 Z M125.862069,-0.277038137 L131.896552,-0.277038137 L131.896552,4.14000169 L125.862069,4.14000169 L125.862069,-0.277038137 Z" id="path23383"></path>
            <path d="M143.980909,12.3635326 C143.513738,10.3616877 142.519244,10.2615955 141.408459,10.2615955 C140.504192,10.2615955 140.205443,10.5618722 139.918724,10.8111215 C139.130749,11.4685902 138.866085,12.2850289 138.866085,14.3182752 C138.866085,14.4713574 138.779869,17.1895487 140.299679,18.2218726 C140.736775,18.504486 140.941288,18.5221493 141.466605,18.5221493 C141.866307,18.5425782 142.265636,18.4755324 142.635536,18.3258901 C143.249074,18.0452393 143.892688,17.5408529 144.008979,16.1199355 L150,16.0747959 C149.853686,17.0468277 149.558292,17.9916685 149.123803,18.8773787 C147.632063,21.7859415 144.594447,22.9988239 141.526756,22.9988239 C140.632447,22.9936657 139.740984,22.8996331 138.866085,22.7181731 C136.442007,22.1293952 134.308659,20.4631538 133.374316,18.0864537 C132.942864,16.9242446 132.73485,15.6939204 132.760778,14.4576193 C132.760778,13.7079088 132.788848,11.7688669 133.869558,9.82982505 C134.230528,9.1637912 134.686199,8.55124774 135.222951,8.01050136 C137.502667,5.8202476 140.891162,5.75744462 141.709213,5.75744462 C144.865126,5.75744462 146.822032,6.91537448 147.78645,7.79069095 C148.348156,8.403773 148.802714,9.10333957 149.131823,9.86122654 C149.489278,10.6591479 149.734133,11.5009742 149.859648,12.3635326 L143.980909,12.3635326" id="path23385"></path>
            <path d="M71.7332709,18.3573576 L71.7332709,13.6918768 C71.7332709,12.2354354 71.7332709,10.2759335 71.1348807,8.88643164 C70.743776,7.98984794 70.4504474,7.49287282 69.623261,6.93301512 C67.5719167,5.51308619 64.5506328,5.77678728 63.8661996,5.77678728 C60.2484809,5.77678728 58.3907335,6.76668059 57.227197,8.12575542 C56.2865902,9.25358469 56.0871268,10.3570723 55.8309532,11.7161471 L61.5586817,11.7161471 C61.5565448,11.3795916 61.6351722,11.0477732 61.787478,10.7505955 C62.1003618,10.3225883 62.5559988,9.78098686 63.696069,9.78098686 C64.9788925,9.78098686 65.8041234,10.4584958 65.8041234,11.1218055 C65.8041234,11.4849016 65.7767461,12.0792433 65.5205725,12.2760048 C65.1985071,12.47748 64.8536786,12.6369082 64.4939226,12.7506668 C64.2084162,12.8013785 63.8388222,12.8906312 63.3831852,13.0143679 L60.3912342,13.407891 C58.594108,13.8379267 57.1978642,14.219279 56.0304166,15.8420549 C55.4400851,16.598856 55.1362308,17.5530777 55.1758528,18.5257206 C55.1758528,20.7793507 56.1164596,22.0795999 56.7402716,22.6435145 C58.1932257,23.9011658 60.2739027,23.8607455 60.7882054,23.8607455 C63.6080704,23.8607455 65.0903573,22.5745465 65.974254,21.8808098 L66.2304276,23.5035857 L72.4137931,23.5035857 C72.0676654,22.3676426 71.703938,21.7793863 71.7332709,18.3573576 Z M64.1810388,19.9375357 C63.7699034,20.0323908 63.3476247,20.0645085 62.9275482,20.0328737 C62.0983631,19.96596 61.4370134,19.287658 61.3631294,18.428354 C61.3631294,17.1686742 62.3311135,16.9637988 62.6459528,16.8988877 L63.3010532,16.71024 C64.1282397,16.412055 64.9828035,16.1605247 65.8080345,15.8623396 L65.8373673,18.0530871 C65.5811937,18.5460053 65.2956873,19.6068951 64.1849499,19.9375357" id="path23387"></path>
            <path d="M118.112643,22.9589041 L118.112643,14.7513848 C118.112643,15.7234329 118.394108,11.6176773 117.545831,11.2045069 C117.102335,10.9565671 116.608178,10.8197912 116.103567,10.8053085 C115.367876,10.8212764 114.519599,11.186543 114.26531,11.8591923 C113.925612,12.679545 113.756733,13.2384228 113.783909,14.943 L113.727616,22.9988239 L107.758621,22.972876 L107.758621,6.08279133 L113.500503,6.08279133 L113.585913,8.04285552 C114.377896,7.04485949 115.311583,5.75744462 118.733807,5.75744462 C121.195168,5.75744462 123.091658,6.83328434 123.854525,9.42607801 C124.025345,10.0807634 124.048639,10.5079057 124.137931,11.8512083 L124.137931,22.9648921 L118.120408,22.9648921" id="path23389"></path>
        </g>
    </g>
</svg>