<?xml version="1.0" encoding="UTF-8"?>
<svg width="150px" height="28px" viewBox="0 0 150 28" version="1.1" xmlns="http://www.w3.org/2000/svg" xmlns:xlink="http://www.w3.org/1999/xlink">
    <title>rakuten-kobo</title>
    <g id="ðŸ-Logos" stroke="none" stroke-width="1" fill="none" fill-rule="evenodd">
        <g id="rakuten-kobo" fill="#BF2026" fill-rule="nonzero">
            <polygon id="Path" points="96.797529 0.154244719 100.111997 0.154244719 100.111997 11.9629334 104.703468 6.53925867 108.674372 6.53925867 103.419291 12.6767636 109.147868 20.736947 105.18055 20.736947 100.172977 13.5771224 100.111997 13.5771224 100.111997 20.736947 96.797529 20.736947"></polygon>
            <path d="M108.850259,13.6305699 C108.850259,8.96735751 111.031088,6.19818653 115.120725,6.19818653 C119.209585,6.19818653 121.379534,8.98601036 121.379534,13.6305699 C121.379534,18.2759067 119.202591,21.0559585 115.120725,21.0559585 C111.038083,21.0559585 108.850259,18.2937824 108.850259,13.6305699 M115.120725,18.7243523 C117.498964,18.7243523 117.857254,16.2854922 117.857254,13.6305699 C117.857254,10.9764249 117.498964,8.53367876 115.120725,8.53367876 C112.742487,8.53367876 112.36943,10.9725389 112.36943,13.6305699 C112.36943,16.288601 112.72772,18.7243523 115.120725,18.7243523 M126.498964,8.25 L126.555699,8.25 C127.314137,6.95711092 128.712266,6.17525286 130.210881,6.20595855 C133.615026,6.20595855 135.104145,9.10025907 135.104145,13.638342 C135.104145,17.5841969 133.730052,21.0637306 129.106477,21.0637306 C125.375907,21.0637306 123.173316,18.9435233 123.173316,14.7069948 L123.173316,0.15388601 L126.484197,0.15388601 L126.484197,8.25 L126.498964,8.25 Z M129.135233,18.7321244 C131.258549,18.7321244 131.614508,15.9621762 131.614508,13.638342 C131.614508,11.0696891 131.348705,8.3253886 129.135233,8.3253886 C127.137824,8.3253886 126.512953,11.2523316 126.512953,13.638342 C126.512953,17.1854922 127.047668,18.7321244 129.135233,18.7321244 M136.790674,13.6305699 C136.790674,8.96735751 138.966839,6.19818653 143.053368,6.19818653 C147.138342,6.19818653 149.316062,8.98601036 149.316062,13.6305699 C149.316062,18.2759067 147.138342,21.0559585 143.053368,21.0559585 C138.967617,21.0559585 136.789896,18.2937824 136.789896,13.6305699 M143.053368,18.7243523 C145.438601,18.7243523 145.796891,16.2854922 145.796891,13.6305699 C145.796891,10.9764249 145.438601,8.53367876 143.053368,8.53367876 C140.667358,8.53367876 140.309067,10.9725389 140.309067,13.6305699 C140.309067,16.288601 140.667358,18.7243523 143.052591,18.7243523" id="Shape"></path>
            <polygon id="Path" points="73.4420088 23.5348745 18.3622957 23.5348745 22.7493025 27.9254683"></polygon>
            <path d="M20.2670984,17.5049223 C18.3660622,17.5049223 16.9702073,15.6287565 16.9702073,13.265285 C16.9702073,10.9010363 18.3660622,9.02487047 20.2670984,9.02487047 C22.1681347,9.02487047 23.4955959,10.8979275 23.4955959,13.265285 C23.4955959,15.6326425 22.1541451,17.5049223 20.2670984,17.5049223 L20.2670984,17.5049223 Z M23.4629534,5.79015544 L23.4629534,6.45777202 C22.5294535,5.79295494 21.4131246,5.43324292 20.2670984,5.42797927 C16.407513,5.42797927 13.4766839,8.94715026 13.4766839,13.2699482 C13.4766839,17.5911917 16.4067358,21.1041451 20.2670984,21.1041451 C21.4116094,21.102972 22.5278024,20.7481898 23.4629534,20.088342 L23.4629534,20.7520725 L26.8562176,20.7520725 L26.8562176,5.79015544 L23.4637306,5.79015544 L23.4629534,5.79015544 Z M50.6354922,5.79015544 L50.6354922,14.5717617 C50.6354922,16.2178756 49.5054404,17.6098446 47.8585492,17.6098446 C46.2124352,17.6098446 45.0792746,16.2186528 45.0792746,14.5709845 L45.0792746,5.79015544 L41.6852332,5.79015544 L41.6852332,14.5717617 C41.6852332,18.1585492 44.1497409,21.1033679 47.7551813,21.1033679 C48.7817376,21.0864641 49.7802578,20.7657043 50.6246114,20.1816062 L50.6246114,20.7380829 L54.0178756,20.7380829 L54.0178756,5.78937824 L50.6354922,5.78937824 L50.6354922,5.79015544 Z M82.2443005,20.7380829 L82.2443005,11.9556995 C82.2443005,10.3095855 83.3743523,8.91683938 85.0243523,8.91683938 C86.6751295,8.91683938 87.8044041,10.3095855 87.8044041,11.9556995 L87.8044041,20.7373057 L91.1945596,20.7373057 L91.1945596,11.9556995 C91.1945596,8.36891192 88.730829,5.42331606 85.1284974,5.42331606 C84.1020672,5.44169767 83.1038928,5.76261668 82.2590674,6.34585492 L82.2590674,5.78937824 L78.8658031,5.78937824 L78.8658031,20.7373057 L82.2450777,20.7373057 L82.2443005,20.7380829 Z" id="Shape"></path>
            <path d="M3.70181347,5.60984456 L6.01554404,5.60984456 C7.0744505,5.57102969 8.06996268,6.11381148 8.6109391,7.02492839 C9.15191551,7.93604529 9.15191551,9.06991326 8.6109391,9.98103016 C8.06996268,10.8921471 7.0744505,11.4349289 6.01554404,11.396114 L3.70181347,11.396114 L3.70181347,5.60984456 Z M3.70181347,20.7373057 L3.70181347,14.9471503 L6.21217617,14.9471503 L10.5528497,20.7373057 L14.9937824,20.7373057 L9.74611399,13.7487047 C12.0318003,12.127039 13.0051666,9.21259808 12.1527255,6.54285921 C11.3002845,3.87312034 8.81807013,2.06203784 6.01554404,2.06502221 L0.15388601,2.06502221 L0.15388601,20.7365285 L3.70181347,20.7365285 L3.70181347,20.7373057 Z M63.1725389,17.2181347 C62.8375648,17.4481865 62.4419689,17.5733161 62.034715,17.5764249 C61.4829016,17.5764249 60.4391192,17.1536269 60.4391192,15.7437824 L60.4391192,9.32642487 L63.3373057,9.32642487 L63.3373057,5.79015544 L60.438342,5.79015544 L60.438342,2.06502591 L57.0341969,2.06502591 L57.0341969,5.79015544 L55.2411917,5.79015544 L55.2411917,9.32642487 L57.0349741,9.32642487 L57.0349741,15.7834197 C57.0349741,19.119171 59.5453368,21.1134715 62.0782383,21.1134715 C63.2461639,21.0828176 64.387529,20.758317 65.3968912,20.1699482 L63.1725389,17.2181347 L63.1725389,17.2181347 Z" id="Shape"></path>
            <polygon id="Path" points="35.2897568 12.7951375 41.1080112 5.78955759 36.3515345 5.78955759 32.2837784 10.9980072 32.2837784 0.832204065 28.7899561 0.832204065 28.7899561 20.736947 32.2837784 20.736947 32.2837784 14.5958549 37.284177 20.736947 42.0370666 20.736947"></polygon>
            <path d="M73.9694301,11.3354922 L67.8715026,11.3354922 C68.5888601,7.83419689 73.3196891,7.63367876 73.9694301,11.3354922 Z M71.0238342,5.40932642 C67.0997409,5.40932642 64.280829,8.86010363 64.280829,13.265285 C64.280829,17.8927461 67.8170984,21.1173575 71.3611399,21.1173575 C73.1549223,21.1173575 75.4437824,20.5033679 77.3696891,17.7707254 L74.3743523,16.0414508 C72.057513,19.4564767 68.1940415,17.7240933 67.7494819,14.3082902 L77.5204663,14.3082902 C78.3559585,8.92849741 74.8841969,5.40932642 71.0246114,5.40932642 L71.0238342,5.40932642 Z" id="Shape"></path>
        </g>
    </g>
</svg>