<?xml version="1.0" encoding="UTF-8"?>
<svg width="146px" height="100px" viewBox="0 0 146 100" version="1.1" xmlns="http://www.w3.org/2000/svg" xmlns:xlink="http://www.w3.org/1999/xlink">
    <title>Salesforce Copy-200</title>
    <g id="ðŸ-Logos" stroke="none" stroke-width="1" fill="none" fill-rule="evenodd">
        <g id="Salesforce-Copy">
            <path d="M78.7422353,3.88870129 C88.2855318,3.88870129 96.5546912,9.09206192 101.008511,16.8446554 C104.967439,15.1318713 109.246069,14.2458841 113.572594,14.2429747 C130.747997,14.2429747 144.690265,28.03119 144.690265,45.0435573 C144.690265,62.057304 130.747997,75.8455219 113.572594,75.8455219 C111.451862,75.8455219 109.438008,75.6371127 107.422749,75.2202918 C103.552553,82.0357283 96.0779563,86.666304 87.5950257,86.666304 C84.0440641,86.666304 80.6506129,85.8340385 77.6298346,84.4303733 C73.6527577,93.5328037 64.4807286,99.9341768 53.772998,99.9341768 C42.5871178,99.9341768 33.0986676,93.0138505 29.4408256,83.2848086 C27.8502761,83.5967342 26.2062857,83.8051431 24.5102622,83.8051431 C11.2036496,83.8051431 0.442477876,73.0892594 0.442477876,59.9248948 C0.442477876,51.0791818 5.26616059,43.3790338 12.47637,39.2163453 C10.9912947,35.8872987 10.1967227,32.1924979 10.1967227,28.2906676 C10.1967227,13.0987868 22.7607991,0.819132597 38.2401784,0.819132597 C47.2532919,0.819132597 55.3101071,5.03426865 60.4530244,11.590227 C65.1177923,6.85613489 71.5854656,3.88870129 78.7422353,3.88870129 Z" id="Vector" fill="#00A1E0"></path>
            <path d="M27.7643359,39.6379053 C29.344386,39.6379053 30.8713486,40.0481991 31.9778027,40.7161185 C32.0825806,40.7679163 32.1887554,40.8701486 32.1356679,41.024179 C32.0825805,41.1782094 31.6089846,42.4636136 31.5558972,42.617644 C31.4860453,42.7884859 31.363106,42.8225634 31.1870792,42.7198763 C30.2398874,42.2059873 28.7129246,41.795694 27.4486052,41.795694 C26.2904606,41.795694 25.5528247,42.361381 25.5528247,43.1833307 L25.5528247,43.1833307 L25.5528247,43.2337651 C25.5528247,44.1593105 26.8157472,44.5696034 28.2910194,45.0330576 L28.2910194,45.0330576 L28.5536621,45.1352912 C30.5025302,45.7514127 32.5561765,46.5747253 32.5561765,48.8347463 L32.5561765,48.8347463 L32.5561765,48.8865442 C32.5561765,51.3019587 30.7134833,52.8436249 27.7643359,52.8436249 C26.3421511,52.8436249 24.9730537,52.6377972 23.4991786,51.8676453 C23.182051,51.7122518 22.9194079,51.6086559 22.6553677,51.4041908 C22.6553677,51.352393 22.4975024,51.3005954 22.6022803,51.0961303 L22.6022803,51.0961303 L23.1303606,49.452231 C23.1820511,49.1428071 23.3930038,49.2464029 23.4977816,49.2982007 C23.657044,49.4004333 23.7632189,49.5026656 23.9727746,49.6062613 C25.7106899,50.684474 27.2893429,50.6844738 27.7643359,50.6844738 C29.0286553,50.6844738 29.8179819,50.0165543 29.8179819,49.1428068 L29.8179819,49.1428068 L29.8179819,49.0923725 C29.8179819,48.1150292 28.6067499,47.756533 27.1845652,47.3448766 L27.1845652,47.3448766 L26.8688345,47.2426443 C24.9199664,46.7287553 22.8663204,45.9572407 22.8663204,43.5431892 L22.8663204,43.5431892 L22.8663204,43.4913913 C22.8663204,41.2300071 24.762101,39.6379053 27.4486052,39.6379053 L27.4486052,39.6379053 Z M70.8433992,39.6379053 C72.4234493,39.6379053 73.950411,40.0481991 75.0554681,40.7161185 C75.161643,40.7679163 75.2664194,40.8701486 75.213332,41.024179 C75.1616415,41.1782094 74.6866519,42.4636136 74.6349615,42.617644 C74.5641782,42.7884859 74.4412389,42.8225634 74.2661435,42.7198763 C73.3175546,42.2059873 71.7905893,41.795694 70.5262699,41.795694 C69.3681253,41.795694 68.6318877,42.361381 68.6318877,43.1833307 L68.6318877,43.1833307 L68.6318877,43.2337651 C68.6318877,44.1593105 69.8948088,44.5696034 71.370081,45.0330576 L71.370081,45.0330576 L71.6327238,45.1352912 C73.5815919,45.7514127 75.6352402,46.5747253 75.6352402,48.8347463 L75.6352402,48.8347463 L75.6352402,48.8865442 C75.6352402,51.3019587 73.7911494,52.8436249 70.8433992,52.8436249 C69.4212144,52.8436249 68.0521213,52.6377972 66.5768491,51.8676453 C66.2611185,51.7122518 65.9984744,51.6086559 65.7344342,51.4041908 C65.7344342,51.352393 65.5765688,51.3005954 65.6813467,51.0961303 L65.6813467,51.0961303 L66.2080311,49.452231 C66.2611186,49.194605 66.5251587,49.2464029 66.5768491,49.2982007 C66.7347144,49.4004333 66.8408876,49.5026656 67.0504433,49.6062613 C68.7897557,50.684474 70.3684063,50.6844738 70.8433992,50.6844738 C72.1063216,50.6844738 72.8970469,50.0165543 72.8970469,49.1428068 L72.8970469,49.1428068 L72.8970469,49.0923725 C72.8970469,48.1150292 71.6858119,47.756533 70.2636271,47.3448766 L70.2636271,47.3448766 L69.9478994,47.2426443 C67.9990314,46.7287553 65.9439894,45.9572407 65.9439894,43.5431892 L65.9439894,43.5431892 L65.9439894,43.4913913 C65.9439894,41.2300071 67.8411627,39.6379053 70.5262699,39.6379053 L70.5262699,39.6379053 Z M91.8549775,39.7405559 C92.8566535,39.7405559 93.7521524,39.8945861 94.4883912,40.2544446 C95.2260272,40.5625054 95.8574914,41.0763945 96.3841746,41.6420813 C96.8591674,42.206405 97.2265881,42.926122 97.4906282,43.697637 L97.4906282,43.697637 L97.5818832,43.9911961 C97.778156,44.6870137 97.8594461,45.4570589 97.8594461,46.2657184 C97.8594461,47.1912638 97.7532713,48.0650116 97.4906282,48.8351635 C97.2796755,49.6066784 96.8591674,50.325033 96.3841746,50.8907198 C95.8574914,51.4564065 95.2260272,51.970295 94.4883912,52.2783558 C93.7521524,52.6382144 92.8566535,52.7923043 91.8549775,52.7923043 C90.9510856,52.7960011 90.0557692,52.6211948 89.22296,52.2783558 C88.4853241,51.970295 87.8538599,51.4564065 87.3271766,50.8907198 C86.8521838,50.325033 86.4833661,49.6066784 86.220723,48.8351635 C85.9566829,48.0650116 85.8519052,47.1912638 85.8519052,46.2657184 C85.8519052,45.3415362 85.9566829,44.4677888 86.220723,43.697637 C86.4316757,42.926122 86.8521838,42.206405 87.3271766,41.6420813 C87.8538599,41.0763945 88.4853241,40.6143032 89.22296,40.2544446 C89.9591989,39.8945861 90.8546984,39.7405559 91.8549775,39.7405559 Z M91.9080624,41.8983438 C90.8030056,41.8983438 90.0653708,42.258203 89.5386876,43.029718 C89.0120044,43.7998698 88.747967,44.8794451 88.747967,46.2657184 C88.747967,47.6533549 89.0120044,48.7329306 89.5386876,49.5030825 C90.0639738,50.2745974 90.8030056,50.6344559 91.9080624,50.6344559 C92.9614289,50.6344559 93.7521564,50.2745974 94.2774425,49.5030825 C94.8041257,48.7329306 95.0681632,47.6533549 95.0681632,46.2657184 C95.0681632,44.8794451 94.8041257,43.7998698 94.2774425,43.029718 C93.8038467,42.258203 93.0145163,41.8983438 91.9080624,41.8983438 Z M117.344242,50.1198235 C116.975376,50.2762902 116.585311,50.3800445 116.186094,50.4278842 C115.732549,50.4914759 115.275174,50.5256282 114.816992,50.5301166 C113.60576,50.5301166 112.710257,50.1702582 112.025709,49.5023385 C111.34116,48.8344188 110.972345,47.7030451 110.972345,46.2145383 C110.972345,44.8786989 111.288077,43.8509202 111.920935,43.0794048 C112.499309,42.3092525 113.447896,41.8975957 114.659129,41.8975957 C115.659408,41.8975957 116.450132,42.0011913 117.239458,42.2574544 C117.379165,42.3265183 117.467179,42.2751748 117.503502,42.103424 C117.713058,41.537737 117.870926,41.1274437 118.081878,40.4595239 C118.134966,40.2536956 117.977091,40.2018976 117.924004,40.2018976 C117.388875,40.0338014 116.844007,39.8967972 116.292264,39.7916046 C115.765581,39.6880086 115.132723,39.6880086 114.448174,39.6880086 C113.394808,39.6880086 112.499308,39.8420388 111.709981,40.2018976 C110.920654,40.5617564 110.23471,41.0238479 109.709424,41.589535 C109.165404,42.1863738 108.753101,42.8860753 108.498185,43.6450918 C108.217581,44.4740375 108.075142,45.3415494 108.076288,46.2145383 C108.076288,48.2182974 108.602969,49.8104 109.709424,50.9922089 C110.814481,52.1753809 112.447621,52.7915024 114.554355,52.7915024 C115.741307,52.7895432 116.918372,52.5808982 118.030184,52.175381 C118.030184,52.175381 118.188045,52.071785 118.134958,51.8659566 L117.65997,50.2738539 L117.661366,50.2738539 L117.344242,50.1198235 Z M129.140832,41.3332717 C128.615546,40.7675846 128.088856,40.3559285 127.562173,40.1514633 C126.877624,39.8420392 126.086902,39.6880086 125.191401,39.6880086 C124.138034,39.6880086 123.190844,39.8420388 122.453207,40.2018976 C121.663881,40.5617564 121.031019,41.0238481 120.557424,41.641333 C120.03074,42.2574548 119.663319,42.9253747 119.45097,43.7473248 C119.188327,44.5692749 119.082152,45.3925879 119.082152,46.3167706 C119.082152,47.2423165 119.188327,48.1160648 119.45097,48.8862171 C119.71501,49.6563694 120.083834,50.3760862 120.662208,50.9417733 C121.188891,51.5060973 121.926521,51.9695524 122.768935,52.2776133 C123.611349,52.5856743 124.613028,52.741068 125.771173,52.741068 C128.193637,52.741068 129.457952,52.2258156 129.931548,51.9177546 C130.036326,51.8659568 130.089416,51.7637241 129.984638,51.506098 L129.457956,50.0162275 L129.140832,49.8621972 C128.562459,50.0680255 127.720038,50.4796822 125.718083,50.4796822 C124.453763,50.4796822 123.454887,50.1198235 122.875116,49.5023385 C122.242257,48.8862167 121.979613,48.0124686 121.926526,46.8306597 L130.247286,46.8306597 C130.386986,46.83066 130.474997,46.7625051 130.51132,46.626195 C130.458233,46.626195 130.72088,45.0831637 130.194196,43.2334351 L130.194196,43.2334351 C129.98464,42.4632828 129.45796,41.6931304 129.140832,41.3332717 Z M122.611071,43.0303334 C123.137755,42.258818 123.87539,41.8485244 124.980447,41.8485244 C126.086901,41.8485244 126.771455,42.258818 127.299535,43.0303334 C127.666956,43.5442227 127.771733,44.2121418 127.824821,44.9304962 L121.926526,44.9304962 C122.031303,44.1603439 122.242253,43.5442227 122.611071,43.0303334 Z M62.6278391,41.3332717 C62.1011558,40.7675846 61.5744736,40.3559285 61.0491873,40.1514633 C60.3646386,39.8420392 59.5739143,39.6880086 58.6784129,39.6880086 C57.6250461,39.6880086 56.6764586,39.8420388 55.9402195,40.2018976 C55.1494959,40.5617564 54.5180349,41.0238481 54.043042,41.641333 C53.5177557,42.2574548 53.1489371,42.9253747 52.9379843,43.7473248 C52.6739441,44.5692749 52.5691663,45.3925879 52.5691663,46.3167706 C52.5691663,47.2423165 52.6739441,48.1160648 52.9379843,48.8862171 C53.2006275,49.6563694 53.5694464,50.3760862 54.1492172,50.9417733 C54.6759005,51.5060973 55.4135359,51.9695524 56.2559498,52.2776133 C57.0983638,52.5856743 58.1000385,52.741068 59.256786,52.741068 C61.6792501,52.741068 62.9449675,52.2258156 63.4171664,51.9177546 C63.5233413,51.8659568 63.5764289,51.7637241 63.470254,51.506098 L62.9435695,50.0162275 L62.6278391,49.8621972 C62.0480683,50.0680255 61.205656,50.4796822 59.2050974,50.4796822 C57.9407779,50.4796822 56.9404969,50.1198235 56.3607261,49.5023385 C55.7292649,48.8862167 55.4666224,48.0124686 55.413535,46.8306597 L63.7342931,46.8306597 C63.8739984,46.83066 63.9615469,46.7625051 63.9969385,46.626195 C63.9438511,46.626195 64.2064945,45.0831637 63.6812081,43.2334351 L63.6812081,43.2334351 C63.4716524,42.4632828 62.9435698,41.6931304 62.6278391,41.3332717 Z M56.0980833,43.0303334 C56.6247667,42.258818 57.3610072,41.8485244 58.4674614,41.8485244 C59.5739156,41.8485244 60.2584648,42.258818 60.7851482,43.0303334 C61.1008788,43.5442227 61.2587426,44.2121418 61.31183,44.9304962 L55.413535,44.9304962 L55.413535,44.9304962 C55.5183128,44.1603439 55.7292652,43.5442227 56.0980833,43.0303334 Z M39.4561757,44.4679879 C38.7185397,44.4679879 38.033992,44.5702207 37.4025308,44.7256143 C36.7790375,44.8754603 36.1893401,45.1365727 35.6632174,45.4957667 C35.1379311,45.8556255 34.7691136,46.3177163 34.4519859,46.8316055 C34.1362554,47.3454948 34.031478,48.013415 34.031478,48.6813348 C34.031478,49.4010524 34.1362558,50.0171734 34.400296,50.5310627 C34.6629391,51.044952 35.0317563,51.4566097 35.5053522,51.8164685 C35.9803451,52.1245294 36.5587198,52.3807918 37.1915781,52.5348223 C37.8230392,52.6888527 38.5606742,52.7406506 39.4030881,52.7406506 C40.245502,52.7406506 41.0879166,52.6888533 41.9317275,52.5361859 C42.7210539,52.3807923 43.7213331,52.2267618 44.0370637,52.1245292 C44.2130904,52.0899973 44.4063473,52.0386538 44.6168344,51.9704988 C44.7565387,51.9359669 44.8263909,51.8500915 44.8263909,51.7128725 L44.8263909,44.3139575 C44.8263909,42.6700572 44.407279,41.4882482 43.5103805,40.7167328 C42.6162762,39.9970152 41.3519572,39.585358 39.7188198,39.585358 C39.0873586,39.585358 38.0870792,39.6889543 37.5073084,39.79255 C36.3133065,40.0324558 35.4531967,40.3405167 34.9269791,40.7167328 C34.8217354,40.7857964 34.8040396,40.8884833 34.8738915,41.0247935 L35.4536622,42.5664613 L35.716305,42.7204917 C35.7516965,42.7204915 35.8043182,42.7036799 35.8741701,42.6700567 C36.9275368,42.1220899 38.1387691,41.8481066 39.507867,41.8481069 C40.4033683,41.8481069 41.0879161,42.0021372 41.5615119,42.361996 C42.0365048,42.7204917 42.2460615,43.2343812 42.2460615,44.3139575 L42.2460615,44.6738163 L40.772186,44.5197859 L40.772186,44.5197859 C40.4564555,44.5197859 39.982859,44.4679879 39.4561757,44.4679879 Z M36.9792277,49.7595473 C36.8227594,49.5032842 36.7165849,49.1434254 36.7165849,48.6826971 C36.7165849,47.9616164 36.980625,47.4477283 37.4542208,47.0878695 C37.9459784,46.6771212 38.7534665,46.4890129 39.876685,46.5235448 C40.6841729,46.5235448 41.4390388,46.5916997 42.1412826,46.7280095 L42.1412826,50.4288303 C41.4390383,50.5651403 40.6846378,50.6678272 39.8780812,50.736891 C38.7539313,50.7714229 37.9459778,50.6001266 37.4542208,50.223002 L37.4542208,50.223002 C37.1384902,49.9667389 37.0854026,49.9149408 36.9792277,49.7595473 Z M107.654216,40.0484355 C107.208024,39.926418 106.748284,39.8577592 106.285114,39.8439699 C105.231747,39.792172 104.653376,39.9462028 104.126693,40.2024659 C103.60001,40.4082942 103.020242,40.8199505 102.704511,41.230244 L102.704511,40.2556262 C102.704511,40.1015958 102.599729,39.9979999 102.440467,39.9979999 L100.335136,39.9979999 C100.175874,39.9979999 100.071092,40.1015958 100.071092,40.2556262 L100.071092,52.3313427 C100.071092,52.4853732 100.175874,52.5876067 100.335136,52.5876067 L102.493557,52.5876067 C102.651423,52.5876067 102.757602,52.4853732 102.757602,52.3313427 L102.757602,46.2655413 C102.757602,45.4435911 102.862374,44.6216408 103.020239,44.1595494 C103.178104,43.6456601 103.442144,43.234004 103.757875,42.9777409 C104.073605,42.66968 104.389341,42.4638508 104.758159,42.3616182 C105.126977,42.2580225 105.548882,42.2062255 105.864613,42.2062255 C106.144952,42.2062255 106.442986,42.240757 106.758716,42.3098202 C106.826121,42.3083088 106.891705,42.2881655 106.947842,42.2517304 C107.003979,42.2152953 107.04836,42.1640644 107.07584,42.1039918 C107.285396,41.6923352 107.707298,40.5636877 107.760386,40.3564962 L107.760386,40.3564962 C107.812076,40.152031 107.707303,40.1002334 107.654216,40.0484355 Z M86.4318118,34.5510469 C86.0666531,34.4860954 85.6965123,34.4514396 85.325358,34.4474512 C83.7983954,34.4474512 82.6402496,34.8591078 81.7964387,35.681058 C80.9540248,36.5030082 80.4273396,37.7366151 80.1116091,39.3805155 L80.0068355,39.9462032 L78.1110518,39.9462032 C77.9704174,39.9462029 77.8824044,40.0316238 77.8470127,40.2024659 L77.5312797,41.8981634 C77.5312797,42.0521939 77.5843713,42.1557898 77.7953241,42.1557898 L79.6380175,42.1557898 L77.7939225,52.2781824 C77.6711878,52.9535464 77.5131202,53.6223409 77.3203309,54.2819419 C77.1624657,54.7958312 76.9515109,55.1543268 76.7419552,55.4133161 C76.5310024,55.6695792 76.3200499,55.8754082 76.0043193,55.9776408 C75.6829902,56.0868344 75.3442175,56.1389998 75.0040406,56.1316699 C74.7930879,56.1316699 74.5290454,56.0798719 74.3194897,56.0798719 C74.1085369,56.0294371 74.0023618,55.9776407 73.8444965,55.9258428 C73.7047947,55.8576868 73.5995521,55.9090298 73.5287689,56.0798719 C73.4756814,56.2352654 72.9489986,57.5711046 72.8973082,57.7251351 C72.8442207,57.8791655 72.8973092,58.0331958 73.0020871,58.0331958 C73.2661272,58.1354284 73.4239924,58.1872257 73.739723,58.2376605 C74.2147159,58.3412565 74.5821324,58.3412565 74.9509504,58.3412565 C75.7402768,58.3412565 76.4248272,58.2390241 77.0045979,58.0331958 C77.5927906,57.8189453 78.1174078,57.4658312 78.5315584,57.0054176 C79.0065513,56.4915284 79.3222841,55.9258417 79.5849273,55.2061241 C79.8489674,54.4877696 80.1116104,53.562224 80.3225632,52.4840107 L82.2183469,42.1557898 L84.95654,42.1557898 C85.0971744,42.1557897 85.1851874,42.0699142 85.2205791,41.8981634 L85.5363121,40.2024659 C85.5363121,40.0484354 85.4832205,39.9462032 85.2722677,39.9462032 L82.6402497,39.9462032 C82.6402497,39.8944053 82.7981132,38.970222 83.0607563,38.096474 C83.1669312,37.7366152 83.4295757,37.4285542 83.6405284,37.2227259 C83.8500841,37.0182606 84.0610392,36.862867 84.3250793,36.8110691 C84.5877225,36.7088365 84.9048493,36.7088366 85.2191828,36.7088366 C85.48462,36.7088366 85.6941727,36.7606345 85.9037284,36.7606345 C86.1691657,36.8110692 86.2739462,36.8628671 86.3256366,36.8628671 C86.5896768,36.9650998 86.6427642,36.8628671 86.6944546,36.7606345 L87.3273116,35.0649362 C87.4851768,34.8591079 87.3273141,34.80731 87.2742266,34.7555121 L87.2742266,34.7555121 C87.0019852,34.6573299 86.7194699,34.5887599 86.4318118,34.5510469 Z M49.882503,52.5344451 L47.6709916,52.5344451 C47.5131263,52.5344451 47.4083488,52.4322128 47.4083488,52.2781824 L47.4083488,35.0131383 C47.4083488,34.8591079 47.5131263,34.7555121 47.6709916,34.7555121 L49.882503,34.7555121 C50.0417653,34.7555121 50.146542,34.8591079 50.146542,35.0131383 L50.146542,52.2781824 C50.146542,52.4322128 50.0417653,52.5344451 49.882503,52.5344451 Z" id="Vector" fill="#FFFFFF"></path>
        </g>
    </g>
</svg>