<svg xmlns="http://www.w3.org/2000/svg" width="20" height="20" viewBox="0 0 20 20" fill="none"><mask id="mask0_140_91" style="mask-type:luminance" maskUnits="userSpaceOnUse" x="1" y="0" width="18" height="20"><path d="M18.5001 0H1.6001V20H18.5001V0Z" fill="white"></path></mask><g mask="url(#mask0_140_91)"><path d="M8.60029 12.3008C8.40029 12.3008 8.20029 12.2008 8.00029 12.1008L5.40029 9.50078C5.10029 9.20078 5.10029 8.60078 5.40029 8.30078C5.80029 8.00078 6.30029 8.00078 6.60029 8.30078L8.60029 10.3008L13.8003 5.40078C14.1003 5.10078 14.7003 5.10078 15.0003 5.40078C15.3003 5.70078 15.3003 6.30078 15.0003 6.60078L9.30029 12.1008C9.00029 12.3008 8.80029 12.3008 8.60029 12.3008Z" fill="black"></path><path d="M10.0001 20C9.9001 20 9.7001 20 9.6001 19.9L4.2001 16.9C2.6001 16 1.6001 14.3 1.6001 12.4V0.8C1.6001 0.4 1.9001 0 2.4001 0H17.6001C18.1001 0 18.4001 0.4 18.4001 0.8V12.4C18.4001 14.3 17.4001 16 15.7001 16.9L10.3001 19.9C10.3001 20 10.1001 20 10.0001 20ZM3.2001 1.7V12.5C3.2001 13.8 3.9001 14.9 5.0001 15.5L10.0001 18.2L15.0001 15.5C16.1001 14.9 16.8001 13.7 16.8001 12.5V1.7H3.2001Z" fill="black"></path></g></svg>