<svg xmlns="http://www.w3.org/2000/svg" width="185" height="30" viewBox="0 0 185 30" fill="none"><g clip-path="url(#clip0_1412_188594)"><path fill-rule="evenodd" clip-rule="evenodd" d="M20.4173 25.833C20.8373 25.833 21.2573 25.721 21.6323 25.497L26.0953 22.837C26.9919 22.3008 28.0406 22.0758 29.0783 22.197C34.5003 22.842 38.3123 23.9 39.4353 24.237C39.6673 24.307 39.9163 24.227 40.0703 24.03C40.3332 23.6837 40.5313 23.2928 40.6553 22.876C40.8233 22.343 40.8453 21.903 40.8293 21.599C40.824 21.4731 40.78 21.3519 40.7032 21.252C40.6264 21.1521 40.5206 21.0784 40.4003 21.041C38.6403 20.506 30.8653 18.333 20.4173 18.333C9.96826 18.333 2.19326 20.506 0.433264 21.041C0.312948 21.0784 0.207143 21.1521 0.130345 21.252C0.0535456 21.3519 0.00950803 21.4731 0.00426398 21.599C-0.011736 21.903 0.011264 22.343 0.178264 22.876C0.345264 23.417 0.580264 23.794 0.764264 24.03C0.836617 24.1248 0.936105 24.1954 1.04952 24.2324C1.16294 24.2694 1.28492 24.271 1.39926 24.237C2.52226 23.9 6.33326 22.842 11.7553 22.197C12.793 22.0758 13.8416 22.3008 14.7383 22.837L19.2013 25.497C19.5773 25.721 19.9973 25.833 20.4173 25.833V25.833ZM12.4773 11.604C12.6554 11.9115 12.9206 12.1594 13.2394 12.3165C13.5582 12.4735 13.9164 12.5326 14.2688 12.4864C14.6212 12.4402 14.952 12.2908 15.2195 12.0568C15.4871 11.8229 15.6794 11.515 15.7723 11.172C15.8913 10.73 15.8403 10.242 15.5923 9.813L11.5253 2.8C11.3953 2.575 11.1413 2.483 10.8803 2.502C10.5593 2.528 10.1003 2.694 9.56526 3.002C9.03026 3.309 8.65626 3.622 8.47326 3.886C8.32626 4.101 8.27926 4.366 8.40926 4.591L12.4763 11.604H12.4773ZM8.98026 16.425C9.1839 16.5431 9.40888 16.6197 9.64225 16.6506C9.87561 16.6814 10.1128 16.6658 10.3401 16.6046C10.5674 16.5435 10.7804 16.438 10.9668 16.2942C11.1532 16.1505 11.3093 15.9713 11.4263 15.767C11.6644 15.3541 11.7292 14.8637 11.6064 14.4032C11.4837 13.9426 11.1833 13.5495 10.7713 13.31L3.75726 9.243C3.53326 9.113 3.26726 9.16 3.05226 9.307C2.78826 9.49 2.47626 9.863 2.16826 10.399C1.86026 10.934 1.69526 11.392 1.66926 11.713C1.65026 11.974 1.74226 12.228 1.96626 12.358L8.98026 16.425ZM21.6673 9.018C21.6673 9.52 21.4803 9.973 21.1793 10.302C21.0307 10.4679 20.849 10.6008 20.6459 10.6922C20.4429 10.7837 20.223 10.8316 20.0003 10.833C19.7776 10.8314 19.5577 10.7833 19.3547 10.6919C19.1517 10.6005 18.97 10.4677 18.8213 10.302C18.5037 9.95014 18.3295 9.49199 18.3333 9.018V0.811001C18.3333 0.549001 18.4943 0.341 18.7133 0.225C18.9833 0.0850004 19.4273 0 20.0003 0C20.5733 0 21.0173 0.0860004 21.2873 0.225C21.5063 0.34 21.6673 0.549001 21.6673 0.811001V9.018ZM27.5243 11.604C27.3461 11.9115 27.0809 12.1594 26.7621 12.3165C26.4433 12.4735 26.0851 12.5326 25.7327 12.4864C25.3804 12.4402 25.0496 12.2908 24.782 12.0568C24.5144 11.8229 24.3221 11.515 24.2293 11.172C24.1093 10.73 24.1593 10.242 24.4083 9.813L28.4753 2.8C28.6053 2.575 28.8593 2.483 29.1203 2.502C29.4413 2.528 29.9003 2.694 30.4353 3.002C30.9703 3.309 31.3433 3.622 31.5273 3.886C31.6743 4.101 31.7213 4.366 31.5913 4.591L27.5243 11.604" fill="#2A68A4"></path><mask id="mask0_1412_188594" style="mask-type:alpha" maskUnits="userSpaceOnUse" x="29" y="9" width="61" height="21"><path d="M29.2617 9.2168H89.9047V29.9998H29.2617V9.2168Z" fill="white"></path></mask><g mask="url(#mask0_1412_188594)"><path fill-rule="evenodd" clip-rule="evenodd" d="M31.9067 16.3099C31.7062 16.4259 31.4848 16.5011 31.2552 16.5313C31.0256 16.5615 30.7923 16.5461 30.5687 16.4859C30.2325 16.3966 29.9305 16.2095 29.7009 15.9483C29.4712 15.687 29.3243 15.3635 29.2788 15.0187C29.2333 14.6739 29.2912 14.3233 29.4451 14.0114C29.5991 13.6996 29.8422 13.4404 30.1437 13.2669L37.0457 9.29194C37.2677 9.16494 37.5277 9.21094 37.7397 9.35494C37.9997 9.53294 38.3067 9.89794 38.6097 10.4209C38.9127 10.9439 39.0757 11.3919 39.1017 11.7059C39.1197 11.9609 39.0297 12.2089 38.8087 12.3359L31.9067 16.3099ZM75.9667 10.8479H79.2847C79.4067 10.8479 79.5147 10.9219 79.5597 11.0349L82.8667 19.4869L86.0747 11.0389C86.0961 10.9831 86.1339 10.935 86.1832 10.9011C86.2325 10.8672 86.2909 10.849 86.3507 10.8489H89.6087C89.8217 10.8489 89.9647 11.0659 89.8797 11.2609L81.7667 29.8139C81.7438 29.8665 81.706 29.9112 81.6581 29.9426C81.6101 29.9741 81.554 29.9909 81.4967 29.9909L78.6267 30.0009C78.5779 30.0012 78.5298 29.9893 78.4867 29.9663C78.4436 29.9434 78.4069 29.9101 78.3798 29.8694C78.3527 29.8288 78.3362 29.7821 78.3316 29.7335C78.3271 29.6849 78.3347 29.6359 78.3537 29.5909L81.1227 23.1119L75.6967 11.2649C75.6763 11.22 75.6675 11.1706 75.6711 11.1213C75.6747 11.0721 75.6906 11.0245 75.7174 10.983C75.7442 10.9415 75.7809 10.9074 75.8243 10.8838C75.8677 10.8602 75.9163 10.8479 75.9657 10.8479" fill="#2A68A4"></path></g><path fill-rule="evenodd" clip-rule="evenodd" d="M117.67 17.883C117.67 20.218 119.062 22.015 121.276 22.015C123.49 22.015 124.933 20.462 124.933 18.057C124.933 15.651 123.54 13.819 121.186 13.819C118.96 13.819 117.67 15.623 117.67 17.883V17.883ZM124.843 13.059V11.43C124.843 11.263 124.973 11.127 125.136 11.127H128.041C128.202 11.127 128.333 11.263 128.333 11.43V24.403C128.334 24.4422 128.327 24.4811 128.313 24.5175C128.298 24.554 128.277 24.5873 128.25 24.6155C128.223 24.6438 128.191 24.6664 128.155 24.6821C128.119 24.6978 128.08 24.7062 128.041 24.707H125.136C125.097 24.7064 125.058 24.698 125.022 24.6823C124.986 24.6667 124.954 24.6441 124.926 24.6159C124.899 24.5876 124.878 24.5543 124.864 24.5178C124.849 24.4812 124.842 24.4422 124.843 24.403V22.695C124.399 23.4087 123.778 23.9957 123.041 24.3995C122.304 24.8032 121.475 25.0101 120.634 25C116.378 25 114.167 21.63 114.167 17.857C114.167 12.944 117.452 10.833 120.531 10.833C122.554 10.833 123.961 11.823 124.843 13.059V13.059ZM130.833 23.875V11.407C130.833 11.246 130.966 11.115 131.129 11.115H134.061C134.224 11.115 134.357 11.245 134.357 11.407V13.1C135.055 11.911 136.337 10.833 138.541 10.833C140.813 10.833 143.333 11.937 143.333 17.007V23.875C143.333 23.9528 143.301 24.0272 143.246 24.082C143.191 24.1367 143.116 24.1673 143.038 24.167H140.105C140.027 24.1673 139.953 24.1367 139.897 24.082C139.842 24.0272 139.811 23.9528 139.81 23.875V17.058C139.81 15.834 139.506 13.741 137.31 13.741C135.114 13.741 134.357 15.643 134.357 17.404V23.874C134.357 23.9127 134.349 23.951 134.334 23.9867C134.319 24.0224 134.297 24.0548 134.27 24.082C134.242 24.1092 134.21 24.1307 134.174 24.1453C134.138 24.1599 134.1 24.1673 134.061 24.167H131.129C131.09 24.1673 131.052 24.1599 131.016 24.1454C130.981 24.1309 130.948 24.1094 130.921 24.0823C130.893 24.0552 130.871 24.023 130.856 23.9874C130.841 23.9518 130.833 23.9136 130.833 23.875V23.875ZM146.667 23.875V11.407C146.667 11.246 146.799 11.115 146.962 11.115H149.895C150.058 11.115 150.19 11.245 150.19 11.407V13.1C150.888 11.911 152.17 10.833 154.374 10.833C156.646 10.833 159.167 11.937 159.167 17.007V23.875C159.167 23.9136 159.159 23.9517 159.144 23.9873C159.129 24.0229 159.108 24.0551 159.08 24.0823C159.053 24.1094 159.02 24.1308 158.985 24.1454C158.949 24.1599 158.911 24.1673 158.872 24.167H155.938C155.9 24.1673 155.861 24.1599 155.826 24.1454C155.79 24.1308 155.757 24.1094 155.73 24.0823C155.703 24.0551 155.681 24.0229 155.666 23.9873C155.651 23.9517 155.643 23.9136 155.643 23.875V17.058C155.643 15.834 155.339 13.741 153.143 13.741C150.948 13.741 150.19 15.643 150.19 17.404V23.874C150.19 23.9126 150.182 23.9508 150.167 23.9865C150.152 24.0221 150.131 24.0544 150.103 24.0816C150.076 24.1088 150.043 24.1304 150.008 24.145C149.972 24.1597 149.934 24.1672 149.895 24.167H146.962C146.884 24.1673 146.81 24.1367 146.754 24.082C146.699 24.0272 146.668 23.9528 146.667 23.875V23.875ZM176.97 11.114H179.91C180.077 11.114 180.213 11.244 180.213 11.406V13.983C180.806 11.42 183.088 10.548 184.765 10.913C184.904 10.943 185 11.062 185 11.198V14.043C185 14.228 184.823 14.364 184.635 14.329C181.545 13.747 180.294 15.345 180.294 17.595V23.875C180.293 23.9142 180.285 23.9529 180.269 23.9889C180.253 24.0248 180.231 24.0572 180.202 24.0844C180.174 24.1115 180.14 24.1328 180.104 24.1469C180.067 24.1611 180.028 24.168 179.989 24.167H176.97C176.891 24.1684 176.815 24.1384 176.758 24.0836C176.701 24.0289 176.669 23.9539 176.667 23.875V11.405C176.667 11.245 176.803 11.114 176.97 11.114V11.114ZM55.9781 13.754L53.8111 13.033C53.0571 12.781 51.7551 12.061 51.7551 10.9C51.7551 9.74003 52.5891 9.02003 54.2491 9.02003C55.7811 9.02003 56.6271 9.74103 57.1791 10.884C57.2531 11.039 57.4491 11.102 57.6031 11.016L60.0561 9.65303C60.1203 9.61904 60.169 9.56175 60.1923 9.49292C60.2155 9.4241 60.2115 9.34899 60.1811 9.28303C59.4411 7.71303 57.7131 5.83303 54.2821 5.83303C50.4581 5.83303 48.0741 8.02203 48.0741 10.886C48.0741 13.751 50.0401 15.236 52.6941 16.106L54.8801 16.821C56.4431 17.333 57.1651 18.01 57.1651 18.951C57.1651 19.893 56.5551 20.993 54.1101 20.993C51.8841 20.993 51.0911 19.86 50.6481 18.78C50.6309 18.7411 50.6057 18.7062 50.5742 18.6776C50.5426 18.649 50.5055 18.6273 50.4651 18.614C50.4247 18.6006 50.3819 18.5958 50.3395 18.6C50.2972 18.6041 50.2562 18.6171 50.2191 18.638L47.6511 20.065C47.5888 20.0984 47.541 20.1536 47.517 20.2201C47.493 20.2866 47.4945 20.3596 47.5211 20.425C48.5021 22.777 51.2091 24.167 54.2561 24.167C57.8231 24.167 60.8331 22.413 60.8331 18.887C60.8331 15.36 56.8981 14.062 55.9781 13.755V13.754ZM75.5021 20.409C75.4804 20.3728 75.4514 20.3415 75.417 20.317C75.3826 20.2925 75.3436 20.2754 75.3022 20.2668C75.2609 20.2581 75.2182 20.2581 75.1769 20.2668C75.1356 20.2754 75.0965 20.2925 75.0621 20.317C73.8961 21.152 72.5151 21.168 71.4891 19.594L69.5631 16.641L74.1311 11.059C74.1667 11.0151 74.1891 10.9619 74.1955 10.9057C74.2019 10.8495 74.1921 10.7927 74.1674 10.7418C74.1426 10.691 74.1038 10.6483 74.0555 10.6187C74.0073 10.5892 73.9516 10.574 73.8951 10.575H70.3201C70.2725 10.575 70.2255 10.5861 70.183 10.6074C70.1405 10.6288 70.1035 10.6598 70.0751 10.698L66.1201 16.024V5.29803C66.1198 5.25855 66.1118 5.2195 66.0964 5.18314C66.081 5.14678 66.0586 5.11381 66.0305 5.08612C66.0023 5.05844 65.969 5.03658 65.9324 5.02181C65.8958 5.00703 65.8566 4.99963 65.8171 5.00003H62.8041C62.7645 4.9995 62.7253 5.0068 62.6885 5.02152C62.6518 5.03623 62.6183 5.05807 62.5901 5.08576C62.5618 5.11346 62.5393 5.14648 62.5239 5.18291C62.5084 5.21934 62.5004 5.25846 62.5001 5.29803V23.582C62.5005 23.6215 62.5087 23.6605 62.5242 23.6968C62.5397 23.7332 62.5622 23.766 62.5904 23.7936C62.6187 23.8212 62.6521 23.843 62.6888 23.8576C62.7254 23.8723 62.7646 23.8796 62.8041 23.879H65.8171C65.8565 23.8794 65.8956 23.8721 65.9321 23.8573C65.9687 23.8426 66.002 23.8209 66.0301 23.7933C66.0582 23.7657 66.0807 23.7329 66.0961 23.6966C66.1116 23.6604 66.1197 23.6214 66.1201 23.582V17.639L68.8981 21.931C69.9301 23.526 71.4041 24.167 72.9701 24.167C74.4631 24.167 75.4241 23.773 76.5731 22.683C76.6219 22.6373 76.6536 22.5764 76.6633 22.5103C76.6729 22.4442 76.6598 22.3767 76.6261 22.319L75.5021 20.409V20.409ZM96.5711 16.857L94.5531 16.107C93.8231 15.835 93.1931 15.443 93.1931 14.857C93.1931 14.27 93.7261 13.619 94.8231 13.619C95.7791 13.619 96.3631 14.003 96.6851 14.661C96.703 14.6984 96.7284 14.7316 96.7597 14.7586C96.791 14.7856 96.8276 14.8059 96.8672 14.8181C96.9067 14.8303 96.9483 14.8342 96.9895 14.8296C97.0306 14.8249 97.0703 14.8118 97.1061 14.791L99.2131 13.567C99.2826 13.5265 99.3333 13.4601 99.3541 13.3824C99.3748 13.3047 99.3641 13.2219 99.3241 13.152C98.7471 12.142 97.5991 10.833 94.8491 10.833C91.4711 10.833 89.7371 12.798 89.7371 14.965C89.7371 17.132 91.5011 18.153 93.1141 18.809L95.2831 19.69C95.8461 19.919 96.5171 20.272 96.5171 20.926C96.5171 21.58 95.7821 22.148 94.6241 22.148C93.5581 22.148 92.3671 21.711 91.8741 20.485C91.8583 20.4447 91.834 20.4084 91.8029 20.3784C91.7717 20.3483 91.7344 20.3254 91.6936 20.3112C91.6527 20.2969 91.6093 20.2917 91.5662 20.2958C91.5232 20.2999 91.4815 20.3133 91.4441 20.335L89.3191 21.569C89.2561 21.6054 89.2082 21.6631 89.184 21.7316C89.1598 21.8002 89.1609 21.8752 89.1871 21.943C89.8151 23.565 91.6571 25 94.6241 25C97.8521 25 100 23.265 100 20.829C100 18.393 98.3901 17.534 96.5701 16.857H96.5711ZM108.439 14.088C109.758 14.088 110.741 14.498 111.645 15.175C111.679 15.2003 111.717 15.2181 111.758 15.2272C111.799 15.2364 111.842 15.2366 111.883 15.2278C111.924 15.2191 111.962 15.2017 111.996 15.1767C112.03 15.1517 112.058 15.1198 112.078 15.083L113.294 12.923C113.332 12.8561 113.343 12.7776 113.326 12.7028C113.309 12.628 113.265 12.5622 113.202 12.518C111.939 11.643 110.382 10.833 108.27 10.833C106.186 10.833 104.241 11.425 102.855 12.848C101.469 14.27 100.833 15.953 100.833 17.957C100.833 20.381 101.803 21.912 102.868 23.006C103.933 24.099 105.836 25 108.27 25C110.468 25 112.1 24.07 113.2 23.305C113.262 23.2606 113.305 23.1949 113.322 23.1206C113.338 23.0462 113.327 22.9684 113.289 22.902L112.082 20.756C112.062 20.7191 112.035 20.687 112.002 20.6617C111.968 20.6364 111.93 20.6187 111.889 20.6096C111.848 20.6006 111.806 20.6005 111.765 20.6094C111.724 20.6183 111.686 20.6359 111.652 20.661C110.725 21.3573 109.599 21.7373 108.439 21.745C107.002 21.745 104.382 20.902 104.382 17.917C104.382 14.932 106.99 14.088 108.439 14.088V14.088ZM167.994 13.752C169.664 13.752 171.191 14.793 171.422 16.671H164.427C164.88 14.635 166.327 13.752 167.994 13.752V13.752ZM168.56 21.988C167.389 21.988 166.289 21.706 165.486 21.035C164.682 20.365 164.311 19.683 164.311 18.87H174.708C174.748 18.869 174.787 18.8601 174.823 18.8438C174.86 18.8275 174.892 18.8042 174.919 18.7751C174.947 18.7461 174.968 18.7119 174.982 18.6747C174.995 18.6374 175.002 18.5978 175 18.558C174.939 15.351 173.94 13.84 172.969 12.833C171.966 11.793 170.256 10.833 168.02 10.833C165.785 10.833 164.04 11.688 162.873 12.899C161.707 14.111 160.833 15.642 160.833 17.977C160.833 20.312 161.739 21.843 162.848 22.995C163.957 24.145 165.753 25 168.34 25C170.798 25 172.846 24.099 174.341 22.336C174.37 22.3019 174.391 22.262 174.403 22.2191C174.414 22.1761 174.417 22.1311 174.41 22.0871C174.403 22.0431 174.387 22.0012 174.362 21.9641C174.337 21.9269 174.305 21.8956 174.267 21.872L172.197 20.63C172.144 20.5975 172.082 20.5834 172.02 20.5899C171.958 20.5964 171.9 20.6232 171.855 20.666C170.961 21.5038 169.785 21.9755 168.56 21.988V21.988Z" fill="#2A68A4"></path></g><defs><clipPath id="clip0_1412_188594"><rect width="185" height="29.9998" fill="white"></rect></clipPath></defs></svg>