<?xml version="1.0" encoding="UTF-8"?>
<svg width="146px" height="26px" viewBox="0 0 146 26" version="1.1" xmlns="http://www.w3.org/2000/svg" xmlns:xlink="http://www.w3.org/1999/xlink">
    <title>TuneCore</title>
    <g id="ðŸ-Logos" stroke="none" stroke-width="1" fill="none" fill-rule="evenodd">
        <g id="TuneCore" transform="translate(0.000000, 0.000000)" fill="#000000" fill-rule="nonzero">
            <path d="M70.0225197,15.2437795 L53.4566929,15.2437795 C53.5950702,16.8836501 54.3339897,18.4147078 55.5317323,19.5433071 C58.3425197,22.3368504 63.6479528,22.1011811 65.6482677,18.1465354 C65.7475083,17.9579462 65.9236435,17.8216511 66.1311024,17.7729134 C67.2807087,17.7441732 68.430315,17.7729134 69.6431496,17.7729134 C68.5855118,21.0952756 66.5737008,23.3485039 63.2455906,24.3084252 C60.4571703,25.1773731 57.4316444,24.830785 54.9119653,23.3537694 C52.3922862,21.8767539 50.6118539,19.4061281 50.007874,16.5485827 C48.6973228,10.7488189 52.3990551,4.93755906 58.1011024,3.81669291 C62.8892126,2.86826772 67.6715748,5.79401575 69.35,10.7143307 C69.8471897,12.1708237 70.0750781,13.7056615 70.0225197,15.2437795 Z M65.889685,11.9501575 C65.6425197,9.36929134 62.4925984,6.86314961 59.681811,6.97811024 C56.8710236,7.09307087 53.8590551,9.66818898 53.7958268,11.9501575 L65.889685,11.9501575 Z" id="Shape"></path>
            <path d="M34.9020472,24.2509449 L31.3267717,24.2509449 L31.3267717,4.19606299 L34.8100787,4.19606299 L34.8100787,5.92047244 C35.1204724,5.68480315 35.3101575,5.54110236 35.4940945,5.39165354 C38.4672463,3.02814743 42.6943922,3.08826042 45.5991339,5.53535433 C47.2282247,6.99799123 48.1443077,9.09429109 48.1110236,11.2833858 C48.1914961,15.513937 48.1110236,19.7444882 48.1455118,23.9750394 C48.1367944,24.0698844 48.1214286,24.1640003 48.0995276,24.2566929 L44.6047244,24.2566929 L44.6047244,23.4577165 C44.6047244,19.8249606 44.6047244,16.1922047 44.6047244,12.5364567 C44.6159733,11.9594193 44.577511,11.3824849 44.4897638,10.8120472 C44.0759055,8.51283465 42.5871654,7.11606299 40.4316535,7.00110236 C37.9082677,6.85740157 35.8332283,8.15070866 35.1951969,10.3694488 C35.0057396,11.054445 34.9128742,11.7625437 34.9192913,12.4732283 C34.9192913,16.1289764 34.9192913,19.7847244 34.9192913,23.4404724 L34.9020472,24.2509449 Z" id="Path"></path>
            <path d="M12.5594488,4.16732283 L16.0944882,4.16732283 L16.0944882,4.96629921 C16.0944882,8.80598425 16.0944882,12.6399213 16.0944882,16.4623622 C16.0992221,17.2458626 16.2352264,18.0230302 16.4968504,18.7615748 C16.9925481,20.2465917 18.3425189,21.2801276 19.9054331,21.3711811 C21.7670314,21.7061596 23.6562135,20.9469139 24.7682677,19.4168504 C25.4276133,18.4931371 25.7649113,17.378236 25.728189,16.243937 L25.728189,4.19606299 L29.3149606,4.19606299 L29.3149606,24.2394488 L25.8661417,24.2394488 L25.8661417,22.5495276 C25.6017323,22.7564567 25.4465354,22.8714173 25.2913386,22.997874 C22.5923918,25.1225664 18.8582979,25.3493611 15.9220472,23.5669291 C13.8875273,22.2903965 12.6372181,20.0709896 12.599685,17.6694488 C12.4559843,13.1859843 12.5594488,8.70826772 12.5594488,4.16732283 Z" id="Path"></path>
            <path d="M2.62110236,7.6103937 L0,7.6103937 L0,4.1615748 L2.59811024,4.1615748 L2.59811024,0 L6.19062992,0 L6.19062992,4.11559055 L10.6683465,4.11559055 L10.6683465,7.6103937 L6.3688189,7.6103937 C6.27685039,7.71385827 6.24811024,7.73110236 6.24811024,7.74834646 C6.24811024,11.0534646 6.13889764,14.3643307 6.28834646,17.6637008 C6.38606299,19.8766929 7.77133858,20.9343307 10.0130709,20.9515748 L10.7200787,20.9515748 L10.7200787,24.2049606 C6.69645669,24.8889764 3.2476378,22.7851969 2.78204724,18.4569291 C2.49464567,15.6576378 2.66133858,12.8123622 2.62685039,9.99007874 C2.61535433,9.19685039 2.62110236,8.45535433 2.62110236,7.6103937 Z" id="Path"></path>
            <path d="M126.600394,15.1288189 C127.879844,15.954987 128.63585,17.3885671 128.594961,18.9110236 C128.635197,20.6756693 128.594961,22.440315 128.594961,24.2451969 L126.744094,24.2451969 C126.744094,22.7564567 126.744094,21.2964567 126.744094,19.8307087 C126.750113,19.396082 126.72128,18.9616724 126.657874,18.5316535 C126.556799,17.3733601 125.606916,16.4728215 124.444882,16.433622 C123.168819,16.3186614 121.875512,16.3301575 120.593701,16.3129134 C119.007244,16.3129134 117.426535,16.3129134 115.74811,16.3129134 L115.74811,24.2509449 L113.839764,24.2509449 L113.839764,4.16732283 C114.012205,4.16732283 114.207638,4.12708661 114.414567,4.12708661 C117.035669,4.12708661 119.656772,4.09259843 122.277874,4.16732283 C123.402989,4.16482109 124.522376,4.32750028 125.600236,4.65015748 C128.123622,5.49511811 129.365197,7.69086614 129.18126,10.6511024 C129.043307,12.6456693 128.600709,13.4331496 126.600394,15.1288189 Z M115.765354,5.84574803 L115.765354,14.4677953 C118.334724,14.4677953 120.85811,14.5482677 123.375748,14.4390551 C124.842878,14.4499687 126.202307,13.6703281 126.93378,12.3985039 C128.439764,9.68543307 126.968268,6.45503937 123.916063,6.11015748 C121.23748,5.81700787 118.512913,5.92047244 115.765354,5.84574803 Z" id="Shape"></path>
            <path d="M102.17126,4.12133858 C107.294767,4.15377729 111.555994,8.07171799 112.017638,13.1744882 C112.402756,17.0544094 111.31063,20.3997638 108.269921,22.8886614 C102.52189,27.5848031 93.9975591,24.463622 92.4111024,17.1406299 C91.3477165,12.2145669 93.4055118,7.47244094 97.5843307,5.22496063 C98.9942326,4.47209568 100.573205,4.09219256 102.17126,4.12133858 Z M93.8538583,14.6 C93.9228346,15.2150394 93.9630709,15.8358268 94.0722835,16.4451181 C94.5378187,19.2519916 96.4352677,21.6120219 99.0766614,22.6695194 C101.718055,23.7270169 104.719922,23.3284565 106.993858,21.6183465 C110.287945,18.9752764 111.301527,14.3974277 109.431024,10.6108661 C107.976772,7.73685039 105.602835,6.10440945 102.360945,6.01244094 C97.6073228,5.84574803 93.9055906,9.68543307 93.8538583,14.6 Z" id="Shape"></path>
            <polygon id="Path" points="145.683858 22.446063 145.683858 24.2509449 131.37126 24.2509449 131.37126 4.18456693 145.689606 4.18456693 145.689606 5.90897638 133.291102 5.90897638 133.291102 13.1514961 144.517008 13.1514961 144.517008 14.9448819 133.279606 14.9448819 133.279606 22.446063"></polygon>
            <path d="M91.1982677,18.3534646 C90.0650184,21.9368569 86.9469796,24.5308849 83.2172101,24.9932428 C79.4874407,25.4556007 75.8303824,23.7014422 73.8564567,20.5032283 C69.9477953,14.5080315 72.8965354,6.34007874 79.6044882,4.51220472 C84.5420472,3.16716535 89.9049606,6.11015748 91.1005512,10.9040157 C90.6027276,10.9300106 90.1038866,10.9300106 89.606063,10.9040157 C89.4011588,10.8564891 89.2270393,10.7222282 89.1289764,10.5361417 C87.5218635,7.07791251 83.660952,5.27599211 79.9781102,6.26535433 C76.3683465,7.14480315 73.7414961,10.6683465 73.735748,14.5655118 C73.6305773,18.678555 76.4840004,22.2774016 80.5126772,23.1128346 C83.8258934,23.76574 87.1789232,22.1893503 88.7898425,19.2214173 C89.0098912,18.5906143 89.6659691,18.223112 90.3188189,18.3649606 C90.6118944,18.3808634 90.905708,18.3770227 91.1982677,18.3534646 Z" id="Path"></path>
        </g>
    </g>
</svg>