<svg width="126" height="32" viewBox="0 0 126 32" fill="none" xmlns="http://www.w3.org/2000/svg">
<path fill-rule="evenodd" clip-rule="evenodd" d="M33.3023 28.8107H39.1792V12.915C39.1792 9.07464 36.1099 5.9609 32.3231 5.9609C30.4058 5.9609 28.6742 6.76123 27.4304 8.04744C27.7454 7.98316 28.0716 7.9485 28.4052 7.9485C31.1097 7.9485 33.3023 10.1718 33.3023 12.915V28.8107ZM23.5075 18.8759V12.915C23.5075 7.97686 27.4546 3.97393 32.3231 3.97393C33.3607 3.97393 34.3523 4.16551 35.2768 4.49951C33.4116 2.93098 31.0172 1.9876 28.4052 1.9876C22.455 1.9876 17.6306 6.87971 17.6306 12.915V18.8759C17.6306 21.6197 15.4387 23.8436 12.7335 23.8436C12.3993 23.8436 12.0737 23.8089 11.7587 23.744C13.0032 25.0302 14.7341 25.8306 16.6515 25.8306C20.4377 25.8306 23.5075 22.7168 23.5075 18.8759ZM1.95958 18.8759C1.95958 24.9118 6.78273 29.8045 12.7335 29.8045C15.3455 29.8045 17.74 28.8605 19.6051 27.292C18.6806 27.626 17.689 27.8175 16.6515 27.8175C11.783 27.8175 7.83583 23.814 7.83583 18.8759V2.98077H1.95958V18.8759ZM15.6723 12.915C15.6723 5.78256 21.3727 0 28.4052 0C35.1333 0 40.6287 5.29669 41.0928 12.0006C41.1226 12.3018 41.1381 12.6068 41.1381 12.915V30.7977H31.3433V12.915C31.3433 11.2696 30.028 9.93484 28.4052 9.93484C26.7824 9.93484 25.4665 11.2696 25.4665 12.915V18.8759C25.4665 19.1853 25.4509 19.4903 25.4211 19.7909C24.9564 26.4948 19.4616 31.7908 12.7335 31.7908C5.70105 31.7908 0 26.0095 0 18.8759V0.993169H9.79541V18.8759C9.79541 20.5225 11.1107 21.8566 12.7335 21.8566C14.3564 21.8566 15.6723 20.5225 15.6723 18.8759V12.915ZM81.656 20.1747C81.8643 19.927 82.0197 19.6441 82.1248 19.326C82.228 19.0023 82.279 18.6779 82.279 18.3516C82.2822 18.0222 82.2293 17.7041 82.1229 17.3898C82.0197 17.0773 81.8643 16.7994 81.6579 16.5624C81.4484 16.3217 81.1923 16.1261 80.8859 15.9772C80.5827 15.8275 80.2305 15.7527 79.8311 15.7527C79.4432 15.7527 79.0935 15.8263 78.7896 15.9753C78.4839 16.1261 78.2253 16.3267 78.008 16.57C77.7991 16.8177 77.6297 17.0949 77.5093 17.413C77.3934 17.7261 77.3354 18.0417 77.336 18.3698C77.3392 18.6993 77.3953 19.0211 77.5093 19.3348C77.6297 19.6479 77.7991 19.927 78.01 20.1747C78.2253 20.4199 78.4851 20.6148 78.7896 20.7663C79.0941 20.9166 79.4412 20.9914 79.8285 20.9914C80.2292 20.9914 80.5827 20.9166 80.8859 20.7663C81.1897 20.6148 81.4471 20.4187 81.656 20.1747ZM82.707 13.4374C83.3071 13.7247 83.8205 14.1151 84.2415 14.6054C84.6683 15.097 84.9919 15.6678 85.2199 16.3135C85.4492 16.9635 85.562 17.6419 85.562 18.3516C85.562 19.0614 85.4499 19.7441 85.2276 20.3985C85.0052 21.0542 84.6848 21.6313 84.2644 22.1261C83.8396 22.6253 83.3243 23.0264 82.7172 23.3269C82.107 23.6255 81.4127 23.7764 80.6369 23.7764C79.9464 23.7764 79.2922 23.6349 78.6743 23.3564C78.059 23.076 77.5845 22.6768 77.2513 22.1588H77.2105L77.2118 23.4884H74.0753V8.01576L77.4825 8.0145L77.4794 14.3797H77.5239C77.8131 14.0415 78.2202 13.724 78.7508 13.4374C79.2756 13.1507 79.9209 13.0067 80.6795 13.008C81.4254 13.0067 82.1006 13.1507 82.707 13.4374ZM121.786 23.7764L121.785 8.0145H125.525L125.523 23.7764H121.786ZM113.38 16.6346C113.256 16.8776 113.185 17.1277 113.172 17.3885H117.621C117.621 16.8535 117.449 16.3909 117.109 16.0044C116.762 15.6186 116.246 15.4244 115.557 15.4244C115.218 15.4244 114.911 15.4764 114.623 15.5799C114.347 15.6827 114.1 15.8255 113.887 16.0044C113.68 16.1846 113.508 16.3972 113.38 16.6346ZM117.664 13.4743C118.312 13.7269 118.868 14.0968 119.334 14.5791C119.795 15.0614 120.159 15.6478 120.416 16.3376C120.68 17.0242 120.81 17.8099 120.81 18.6913V19.1032C120.81 19.2428 120.802 19.3722 120.79 19.496L113.169 19.4953C113.2 19.7885 113.286 20.0474 113.433 20.2835C113.583 20.5151 113.774 20.722 114.004 20.8915C114.236 21.0628 114.496 21.1954 114.784 21.2963C115.072 21.3922 115.373 21.4378 115.681 21.4378C116.229 21.4378 116.691 21.3395 117.077 21.1409C117.455 20.941 117.763 20.6833 118.005 20.3666L120.41 21.8522C119.917 22.5566 119.265 23.0948 118.455 23.4743C117.65 23.8538 116.709 24.0435 115.641 24.0435C114.854 24.0435 114.109 23.921 113.402 23.6805C112.7 23.4413 112.085 23.0872 111.557 22.6252C111.029 22.1645 110.615 21.5978 110.312 20.9219C110.01 20.2492 109.857 19.4757 109.857 18.6063C109.857 17.7667 110.003 17.0077 110.301 16.3249C110.596 15.6433 110.998 15.0646 111.503 14.588C112.01 14.1121 112.61 13.7453 113.3 13.4832C113.985 13.2223 114.733 13.0904 115.537 13.0904C116.309 13.0916 117.02 13.2192 117.664 13.4743ZM93.0266 19.6299C93.0296 20.2854 92.8545 20.8016 92.506 21.1808C92.1551 21.5646 91.658 21.7539 91.0021 21.7539C90.8432 21.7539 90.679 21.7379 90.5074 21.7001C90.3383 21.6688 90.1837 21.61 90.0545 21.5249C89.9252 21.4437 89.8165 21.3292 89.7289 21.1923C89.6444 21.0542 89.5997 20.8873 89.6003 20.6922C89.6015 20.3903 89.6921 20.1434 89.8769 19.9548C90.0617 19.7648 90.2966 19.6235 90.5757 19.5269C90.8608 19.4291 91.1778 19.3651 91.5402 19.3286C91.8996 19.2935 92.2602 19.2768 92.6147 19.2768L93.0272 19.2762L93.0266 19.6299ZM95.7367 16.1212C95.5718 15.4343 95.3151 14.8671 94.9575 14.4142C94.6024 13.964 94.1422 13.6314 93.5696 13.4165C92.9976 13.1984 92.3018 13.0904 91.4744 13.0904C90.6687 13.091 89.8884 13.2381 89.1177 13.5272C88.3488 13.8188 87.6796 14.2607 87.1004 14.8421L88.7348 16.6956C89.0361 16.4026 89.4028 16.1513 89.831 15.9454C90.2562 15.7362 90.6959 15.6307 91.1579 15.6307C91.658 15.6288 92.0754 15.7541 92.4196 15.9952C92.7572 16.2396 92.9294 16.6195 92.9294 17.1324V17.3C92.2215 17.3 91.4937 17.3415 90.743 17.4234C89.9959 17.5084 89.3146 17.6735 88.7021 17.9248C88.097 18.1723 87.5981 18.5247 87.2085 18.9846C86.8195 19.4438 86.6287 20.0469 86.6305 20.7958C86.6287 21.4072 86.7374 21.9208 86.9615 22.3384C87.1856 22.7541 87.47 23.0867 87.8197 23.3368C88.1694 23.5881 88.5512 23.7685 88.9721 23.8779C89.3901 23.9891 89.799 24.0422 90.1934 24.0435C90.7834 24.0422 91.3294 23.9265 91.8386 23.6898C92.3435 23.4545 92.721 23.1225 92.9704 22.6915H93.0272L93.0266 23.7947H95.9801L95.9789 18.5688C95.9801 17.6242 95.8991 16.8081 95.7367 16.1212ZM105.352 19.326C105.247 19.6441 105.091 19.927 104.883 20.1747C104.674 20.4187 104.417 20.6148 104.113 20.7663C103.81 20.9166 103.456 20.9914 103.056 20.9914C102.668 20.9914 102.321 20.9166 102.017 20.7663C101.713 20.6148 101.452 20.4199 101.237 20.1747C101.027 19.927 100.857 19.6479 100.736 19.3348C100.622 19.0211 100.566 18.6993 100.564 18.3698C100.562 18.0417 100.62 17.7261 100.736 17.413C100.857 17.0949 101.027 16.8177 101.236 16.57C101.452 16.3267 101.711 16.1261 102.017 15.9753C102.321 15.8263 102.67 15.7527 103.058 15.7527C103.457 15.7527 103.81 15.8275 104.113 15.9772C104.419 16.1261 104.676 16.3217 104.886 16.5624C105.091 16.7994 105.247 17.0773 105.351 17.3898C105.456 17.7041 105.509 18.0222 105.506 18.3516C105.506 18.6779 105.456 19.0023 105.352 19.326ZM107.469 14.6054C107.047 14.1151 106.535 13.7247 105.935 13.4374C105.328 13.1507 104.653 13.0067 103.907 13.008C103.148 13.0067 102.503 13.1507 101.978 13.4374C101.447 13.724 101.041 14.0415 100.752 14.3797H100.706L100.71 8.0145L97.3024 8.01576V23.4884H100.439L100.438 22.1588H100.479C100.812 22.6768 101.286 23.076 101.901 23.3564C102.519 23.6349 103.173 23.7764 103.864 23.7764C104.64 23.7764 105.334 23.6255 105.944 23.3269C106.552 23.0264 107.067 22.6253 107.491 22.1261C107.913 21.6313 108.232 21.0542 108.455 20.3985C108.677 19.7441 108.789 19.0614 108.789 18.3516C108.789 17.6419 108.676 16.9635 108.448 16.3135C108.219 15.6678 107.895 15.097 107.469 14.6054ZM57.834 18.9117C57.929 18.5489 57.9768 18.1649 57.9768 17.759V8.81595H61.4401L61.4376 18.0491C61.4376 18.9458 61.2936 19.7576 61.0024 20.4928C60.7144 21.2242 60.2979 21.8539 59.7615 22.3762C59.219 22.9024 58.5659 23.3115 57.8086 23.6061C57.0444 23.8936 56.1952 24.0435 55.2641 24.0435C54.3236 24.0435 53.4688 23.8936 52.7146 23.6042C51.9579 23.3102 51.3167 22.9011 50.7915 22.3762C50.2651 21.8539 49.861 21.2242 49.576 20.4941C49.2936 19.7576 49.1521 18.9458 49.1521 18.0491V8.81595H52.5929V17.759C52.5929 18.1649 52.6451 18.5476 52.7438 18.9104C52.8462 19.2732 53.0002 19.5967 53.2106 19.883C53.4204 20.1712 53.6954 20.3976 54.0418 20.5648C54.3851 20.7321 54.7973 20.817 55.2858 20.8163C55.7725 20.817 56.1853 20.7334 56.5286 20.5661C56.8756 20.3989 57.1543 20.1712 57.3679 19.883C57.5857 19.5987 57.7409 19.2732 57.834 18.9117ZM71.6715 14.5126C71.2375 14.0529 70.7143 13.6999 70.1082 13.4567C69.5014 13.2147 68.5752 13.0904 67.8514 13.0904H67.8508C67.127 13.0904 66.2014 13.2147 65.5947 13.4567C64.988 13.6999 64.4654 14.0529 64.0307 14.5126C63.5929 14.9754 63.2532 15.534 63.0096 16.1932C62.773 16.8259 62.7744 17.5428 62.776 18.3475L62.7761 18.4446V23.242H66.1964V17.8514C66.2305 16.9981 66.9537 16.3151 67.8514 16.3164C68.7486 16.3151 69.4717 16.9981 69.5065 17.8514V23.242H72.9261V18.4446L72.9263 18.3581C72.9284 17.5491 72.9303 16.8287 72.6926 16.1932C72.449 15.534 72.1093 14.9754 71.6715 14.5126Z" fill="white"/>
</svg>
