<svg xmlns="http://www.w3.org/2000/svg" width="150" height="34" viewBox="0 0 150 34" fill="none"><g clip-path="url(#clip0_4125_420375)"><g clip-path="url(#clip1_4125_420375)"><path fill-rule="evenodd" clip-rule="evenodd" d="M16.8193 0C26.1282 0 33.6388 7.54584 33.6388 16.8195C33.6388 26.0931 26.1282 33.6742 16.8193 33.6742C7.51046 33.6742 -0.00012207 26.1283 -0.00012207 16.8195C-0.00012207 7.51058 7.54572 0 16.8193 0ZM16.8193 3.20874C24.3652 3.20874 30.4653 9.30888 30.4653 16.8547C30.4653 21.8618 27.7502 26.2694 23.6952 28.6319C24.5415 25.67 24.8941 22.6375 24.753 19.1467C25.6346 19.3935 26.1282 19.5346 27.0098 19.8166C25.9872 17.2426 24.8941 14.9154 23.4484 12.5529C22.179 14.9859 20.4512 17.2779 18.7234 19.0762L21.5443 18.8999C19.1113 23.2369 15.691 25.3526 11.3539 25.952C10.3666 21.0508 11.1071 13.0465 16.643 9.30888L17.2072 11.9887C18.3003 10.2609 20.416 7.96897 22.0027 6.38223C19.4992 5.39492 16.6078 5.07757 13.7869 5.60649C14.2453 5.99436 14.8095 6.48801 15.2679 6.87588C9.02668 9.52045 5.60637 13.8575 3.34967 18.8999C3.24388 18.2299 3.20862 17.5247 3.20862 16.8547C3.20862 9.30888 9.30876 3.20874 16.8193 3.20874Z" fill="black"></path><path d="M48.6602 25.0001C48.6602 25.2469 48.6602 25.4938 48.6602 25.7406C47.9903 25.7406 47.3556 25.7406 46.6856 25.7406C46.6856 26.199 46.6856 26.6926 46.6856 27.151H48.8718C48.8718 27.3979 48.8718 27.6447 48.8718 27.8915H45.8394V22.9902H48.8365C48.8365 23.2371 48.8365 23.4839 48.8365 23.7307C48.0961 23.7307 47.3908 23.7307 46.6504 23.7307V24.9648C47.3203 25.0001 47.9903 25.0001 48.6602 25.0001ZM42.4191 27.8562H39.4219V22.9902C39.704 22.9902 39.986 22.9902 40.2681 22.9902V27.1158H42.4543C42.4191 27.3626 42.4191 27.6094 42.4191 27.8562ZM58.4628 23.0255L57.3344 24.3302C57.1934 24.2596 57.0523 24.2244 56.9113 24.1538L57.3344 23.0255C57.687 23.0255 58.0749 23.0255 58.4628 23.0255ZM60.4726 23.907C60.3669 23.9775 60.2963 24.1186 60.2963 24.3654C60.2963 24.7885 60.4374 24.9296 60.8253 25.0001L61.601 25.0706C62.3767 25.1412 62.8351 25.5643 62.8351 26.4105V26.6926C62.8351 26.9042 62.7999 27.1158 62.7293 27.2921C62.6588 27.4684 62.553 27.6094 62.412 27.7152C62.2357 27.8562 62.0241 27.8915 61.8126 27.9268C61.601 27.962 61.3542 27.962 61.1426 27.962H59.5559C59.5559 27.6799 59.5559 27.3979 59.5559 27.1158H61.2836C61.3542 27.1158 61.4247 27.1158 61.4952 27.1158C61.8478 27.1158 62.0594 27.0452 62.0241 26.5163C62.0241 26.2695 61.9536 26.1285 61.8831 26.0579C61.7773 25.9874 61.6363 25.9522 61.46 25.9169L60.649 25.8464C60.3669 25.8111 60.0495 25.7406 59.8379 25.529C59.6264 25.3175 59.4853 25.0001 59.4853 24.4712C59.4853 24.4007 59.4853 24.3301 59.4853 24.2244C59.5206 23.6955 59.6969 23.3781 60.0143 23.2018C60.3316 23.0255 60.7547 22.9902 61.1779 22.9902H62.6236C62.6236 23.2723 62.6236 23.5544 62.6236 23.8365H61.0721C60.79 23.8365 60.5784 23.8365 60.4726 23.907ZM70.3104 27.8562V22.9902H72.4261C72.6024 22.9902 72.8492 23.0608 73.0608 23.2018C73.2724 23.3428 73.4134 23.5897 73.4134 23.9775V24.577C73.4134 25.0001 73.2018 25.2117 73.0608 25.3527C73.2018 25.4585 73.4134 25.7053 73.4134 26.0932V26.8689C73.4134 27.3979 72.955 27.8562 72.4261 27.8562H70.3104ZM72.4966 25.8111C72.4614 25.7758 72.3556 25.7053 72.2851 25.7053H71.1214V27.0805H72.2851C72.3556 27.0805 72.4261 27.0452 72.4966 26.9747C72.5319 26.9395 72.5671 26.8689 72.5671 26.7632V26.0227C72.6024 25.9874 72.5671 25.8816 72.4966 25.8111ZM72.5319 23.8365C72.4614 23.766 72.3908 23.7307 72.2851 23.7307H71.1214V24.9648H72.3203C72.3908 24.9648 72.4614 24.9296 72.5319 24.8591C72.6024 24.7885 72.6377 24.6828 72.6377 24.6122V24.0481C72.6024 24.0128 72.5671 23.907 72.5319 23.8365ZM103.033 25.0001H105.007C105.007 25.2469 105.007 25.4938 105.007 25.7406H103.033V27.151H105.219C105.219 27.3979 105.219 27.6447 105.219 27.8915H102.222V22.9902C103.209 22.9902 104.231 22.9902 105.219 22.9902C105.219 23.2371 105.219 23.4839 105.219 23.7307H103.033V25.0001ZM98.4134 27.8562H95.6983V22.9902C95.9804 22.9902 96.2625 22.9902 96.5446 22.9902V27.1158H98.4134C98.4134 27.3626 98.4134 27.6094 98.4134 27.8562ZM92.4543 23.766H91.2202V27.8562C90.9381 27.8562 90.656 27.8562 90.3739 27.8562V23.766H89.1398C89.1398 23.5191 89.1398 23.2723 89.1398 23.0255H92.4543C92.4543 23.2723 92.4543 23.5191 92.4543 23.766ZM85.8605 23.766H84.6264V27.8562C84.3443 27.8562 84.0622 27.8562 83.7801 27.8562V23.766H82.546C82.546 23.5191 82.546 23.2723 82.546 23.0255H85.8605C85.8605 23.2723 85.8605 23.5191 85.8605 23.766ZM77.3626 26.8337L77.1158 27.8915H76.2343L77.5742 23.0255C77.9268 23.0255 78.2794 23.0255 78.6673 23.0255L80.0072 27.8915C79.7251 27.8915 79.4078 27.8915 79.1257 27.8915L78.8436 26.8337H77.3626ZM77.5389 26.0932H78.5968L78.0678 23.9775L77.5389 26.0932ZM55.1482 23.766C54.7251 23.766 54.3372 23.766 53.9141 23.766V27.8562C53.632 27.8562 53.3499 27.8562 53.0679 27.8562V23.766C52.6447 23.766 52.2569 23.766 51.8337 23.766C51.8337 23.5191 51.8337 23.2723 51.8337 23.0255H55.1482C55.1482 23.2723 55.1482 23.5191 55.1482 23.766Z" fill="black"></path><path d="M42.9127 9.73232L44.1116 16.5729H46.7914L49.7533 5.81836H47.144L45.522 12.8L44.3937 5.81836H43.23H42.5954H41.4317L40.3034 12.8L38.6814 5.81836H36.0721L39.034 16.5729H41.7138L42.9127 9.73232Z" fill="black"></path><path d="M51.4106 16.5729L51.9043 14.3515H54.6193L55.113 16.5729H57.546L54.5841 5.81836H51.9043L48.9776 16.5729H51.4106ZM53.2794 8.46293L54.1962 12.5179H52.3627L53.2794 8.46293Z" fill="black"></path><path d="M61.1073 12.5532H62.5883L64.034 16.573H66.7138L64.8097 12.0948C65.6207 11.8127 66.1496 11.1075 66.1496 10.2612V7.8635C66.1496 6.8762 65.4797 6.13572 64.5982 5.92415C64.034 5.78311 63.4698 5.81837 62.8704 5.81837H58.8154V16.573H61.1073V12.5532ZM61.1073 7.89877H63.0467C63.4698 7.89877 63.8577 8.11033 63.8577 8.60398V9.66181C63.8577 10.1907 63.5051 10.4376 63.0467 10.4376H61.1073V7.89877Z" fill="black"></path><path d="M73.0255 16.6789C74.1538 16.6789 74.8238 16.3616 75.388 15.9385V10.2262H71.7561V12.2713H73.096C73.096 12.9765 73.096 13.576 73.096 14.3165C72.8844 14.3517 72.6376 14.387 72.3908 14.387H71.474C70.1693 14.387 69.852 13.4702 69.852 12.4829V9.80305C69.852 8.78049 70.3104 8.04001 71.5445 8.04001H75.2117V5.74805H71.4035C69.2878 5.74805 67.7716 7.01744 67.56 9.20362C67.56 9.37992 67.5248 9.55623 67.5248 9.73253V12.8355C67.5248 15.0922 69.0763 16.6789 71.1919 16.6789H73.0255Z" fill="black"></path><path d="M78.5615 16.5729L79.0552 14.3515H81.7703L82.2639 16.5729H84.6969L81.735 5.81836H79.0552L76.1285 16.5729H78.5615ZM80.3951 8.46293L81.3119 12.5179H79.4783L80.3951 8.46293Z" fill="black"></path><path d="M93.618 9.97915V16.5729H95.8394V5.81836H92.948L90.7971 13.8226L88.6814 5.81836H85.79V16.5729H87.9762V9.97915L89.6335 16.5729H91.9607L93.618 9.97915Z" fill="black"></path><path d="M100.035 16.5729V5.81836H97.7434V16.5729H100.035Z" fill="black"></path><path d="M109.873 16.5729V5.81836H107.652V12.2358L104.196 5.81836H101.94V16.5729H104.126V10.1555L107.617 16.5729H109.873Z" fill="black"></path><path d="M132.758 16.5729V5.81836H130.536V12.2358L127.081 5.81836H124.824V16.5729H127.01V10.1555L130.501 16.5729H132.758Z" fill="black"></path><path d="M140.938 9.97915H136.813V7.89875H141.361V5.81836H134.521V16.5729H141.361V14.4925H136.813V12.0243H140.938V9.97915Z" fill="black"></path><path d="M150 7.89875V5.81836H142.525V7.89875H145.134V16.5729H147.426V7.89875H150Z" fill="black"></path><path d="M116.714 16.6789C117.842 16.6789 118.512 16.3616 119.076 15.9385V10.2262H115.444V12.2713H116.784C116.784 12.9765 116.784 13.576 116.784 14.3165C116.573 14.3517 116.326 14.387 116.079 14.387H115.162C113.858 14.387 113.54 13.4702 113.54 12.4829V9.80305C113.54 8.78049 113.999 8.04001 115.233 8.04001H118.9V5.74805H115.092C112.976 5.74805 111.46 7.01744 111.248 9.20362C111.248 9.37992 111.213 9.55623 111.213 9.73253V12.8355C111.213 15.0922 112.765 16.6789 114.88 16.6789H116.714Z" fill="black"></path><path fill-rule="evenodd" clip-rule="evenodd" d="M120.91 14.5625H123.131V16.7487H120.91V14.5625Z" fill="black"></path></g></g><defs><clipPath id="clip0_4125_420375"><rect width="150" height="33.6742" fill="white"></rect></clipPath><clipPath id="clip1_4125_420375"><rect width="150" height="33.6742" fill="white"></rect></clipPath></defs></svg>