<?xml version="1.0" encoding="UTF-8"?>
<svg width="121px" height="100px" viewBox="0 0 121 100" version="1.1" xmlns="http://www.w3.org/2000/svg" xmlns:xlink="http://www.w3.org/1999/xlink">
    <title>Zendesk Copy-100</title>
    <g id="ðŸ-Logos" stroke="none" stroke-width="1" fill="none" fill-rule="evenodd">
        <g id="Zendesk-Copy" fill="#02363D">
            <g id="Logo" transform="translate(20.754717, 0.369959)">
                <path d="M30.4608696,13.0464952 C28.8036119,14.7515306 26.8309275,16.10252 24.657727,17.0207681 C22.4845265,17.9390161 20.1542555,18.4061669 17.8026505,18.3950068 C7.9844158,18.3770402 0.0243427289,10.1524958 0,0 L35.7351273,0 C35.7284749,4.88927624 33.8329427,9.57809779 30.4608696,13.0464952 Z M59.4909295,42.4149324 C69.1671649,42.4149324 77.085311,50.3755058 77.3584906,60.3773585 L41.6220091,60.3773585 C41.8951886,50.3768877 49.8146941,42.4149324 59.4909295,42.4149324 Z" id="Vector"></path>
                <path d="M35.9553548,60.3773585 L0,60.3773585 L35.9553548,16.4665523 L35.9553548,60.3773585 Z" id="Vector" fill-rule="nonzero"></path>
                <path d="M41.4031358,43.9108062 L77.3584906,0 L41.4031358,0 L41.4031358,43.9108062 Z" id="Vector" fill-rule="nonzero"></path>
            </g>
            <path d="M80.367613,85.7044333 C78.043879,85.5931231 76.0195226,87.2572137 75.7130177,89.5348987 L84.7242584,89.5348987 C84.5874004,87.2906067 82.6400254,85.577818 80.367613,85.7044333 Z M85.2617094,94.3810698 L87.5141659,96.7825846 C86.6419112,97.6621543 85.5889455,98.351765 84.4243717,98.806171 C83.2597979,99.260577 82.0099367,99.4695024 80.7568012,99.4192404 C75.2511196,99.4192404 71.6999398,95.8100069 71.6999398,90.93462 C71.6761652,89.8100986 71.8846882,88.6924269 72.3130695,87.6482612 C72.7414507,86.6040955 73.3809154,85.654831 74.1933215,84.8570881 C74.9995417,84.0655794 75.96327,83.4435587 77.0251361,83.0293446 C78.0870023,82.6151305 79.2245202,82.4174914 80.367613,82.4486096 C85.8276752,82.4486096 88.9312157,86.5587396 88.6632022,92.2452995 L75.6987587,92.2452995 C76.075118,94.6704706 78.3147426,96.3763052 80.7853139,96.1202917 L80.7853139,96.1202917 C82.4534126,96.13599 84.0610441,95.511374 85.2617094,94.3810698 Z" id="Vector"></path>
            <path d="M0.230096645,85.7004044 L9.59215414,85.7004044 L0,96.0948226 L0,99.4265631 L14.1509434,99.4265631 L14.1509434,96.1715897 L4.4437416,96.1715897 L14.0215143,85.7771715 L14.0215143,82.445431 L0.230096645,82.445431 L0.230096645,85.7004044 Z" id="Vector" fill-rule="nonzero"></path>
            <path d="M106.603774,99.4265631 L109.823004,99.4265631 L109.823004,95.3889487 L112.384697,92.5429848 L117.097111,99.4265631 L120.754717,99.4265631 L114.672409,90.5522102 L120.604024,83.9209853 L116.672447,83.9209853 L109.823004,91.6036777 L109.823004,76.7850536 L106.603774,76.7850536 L106.603774,99.4265631 Z" id="Vector" fill-rule="nonzero"></path>
            <path d="M42.9186158,82.445431 C39.0684662,82.445431 35.8490566,85.1674076 35.8490566,89.6950455 L35.8490566,99.4123535 L39.149937,99.4123535 L39.149937,90.1596057 C39.0934533,89.5830396 39.1540212,89.0000923 39.327416,88.4514438 C39.5008108,87.9027954 39.7828557,87.4016618 40.1538667,86.9830138 C40.9028719,86.1405634 41.9567332,85.7058425 43.0276792,85.7981853 C45.4757437,85.7981853 46.6991196,87.4376245 46.6991196,90.1596057 L46.6991196,99.4265631 L50,99.4265631 L50,89.7092551 C50,85.1958238 46.7819037,82.4582153 42.9317541,82.4582153" id="Vector" fill-rule="nonzero"></path>
            <g id="wordmark" transform="translate(16.037736, 75.841657)">
                <path d="M8.18870134,10.1686857 C5.99381822,10.0598569 4.08305786,11.6868457 3.79220218,13.9137536 L12.3037702,13.9137536 L12.3037702,13.9137536 C12.1758476,11.7194942 10.3364551,10.044893 8.18870134,10.1686857 Z M12.8114209,18.6518845 L14.9389762,20.9998656 C14.115088,21.8598269 13.1205131,22.5340665 12.0205148,22.9783423 C10.9205166,23.4226181 9.73995948,23.6268884 8.55631028,23.5777469 C3.35457204,23.5777469 0.00165263589,20.0489743 0.00165263589,15.2822757 C-0.0201504444,14.1915807 0.173973196,13.1074763 0.572624917,12.0936211 C0.971276638,11.079766 1.56642095,10.156596 2.32311191,9.37831651 C3.07383202,8.60547466 3.9721282,7.99474963 4.96351143,7.583187 C5.95489466,7.17162436 7.01870073,6.96780197 8.09040231,6.98408398 C13.2477043,6.98408398 16.1791522,11.0039454 15.9260001,16.5637333 L3.79354895,16.5637333 C4.14903923,18.9348395 6.26312894,20.6026396 8.59805364,20.3523335 L8.58458779,20.3523335 L8.58324133,20.3523335 C10.158844,20.3676818 11.6773325,19.7569905 12.8114209,18.6518845 Z M44.4419756,10.3564146 C41.728669,10.4094686 39.5634108,12.6853494 39.5876488,15.4577617 C39.6132333,18.2315342 41.8188899,20.4666045 44.5321965,20.4666045 C45.1957028,20.4681849 45.8526276,20.3337279 46.4632038,20.0713739 C47.07378,19.8090199 47.6253091,19.4242257 48.0844068,18.9402818 C48.5470078,18.4525898 48.9085679,17.8764957 49.1478878,17.2457824 C49.3872077,16.6150691 49.4994699,15.942431 49.47809,15.2673109 L49.47809,15.2673109 C49.4013364,12.4948987 47.1539354,10.304721 44.4419756,10.3564146 Z M36.7629,12.1190892 C37.1373895,11.1142628 37.7078314,10.1956569 38.4403857,9.41776667 C39.1674145,8.64570192 40.0428335,8.03173792 41.0129998,7.61349415 C41.983166,7.19525037 43.0276478,6.98153526 44.0824479,6.98544424 C45.0694386,6.97353039 46.0468954,7.18153186 46.9452674,7.5946464 C47.8436393,8.00776094 48.6408445,8.61583376 49.2801474,9.37559534 L49.2801474,0 L52.63441,0 L52.63441,23.2621431 L49.2949565,23.2621431 L49.2949565,21.0583601 C48.6688169,21.8501545 47.8731327,22.4882292 46.9677301,22.9246013 C46.0623276,23.3609734 45.0707724,23.5842866 44.0676337,23.5777469 C43.0179555,23.5677666 41.9810133,23.3443685 41.0186219,22.9208753 C40.0562305,22.4973822 39.1880966,21.8824642 38.4659716,21.1127757 C37.7385012,20.3374403 37.1702351,19.4242232 36.793977,18.4258361 C36.4177188,17.4274489 36.2409197,16.3636623 36.2737812,15.2958783 L36.2603153,15.2673109 C36.2175029,14.194493 36.3884105,13.1239157 36.7629,12.1190892 Z M73.6312306,19.8762086 L76.5909538,18.2927498 C76.982133,19.014956 77.5623631,19.6145846 78.2681827,20.0260552 C78.9740023,20.4375259 79.7782297,20.6449926 80.5929127,20.625766 C82.4673159,20.625766 83.4112534,19.646308 83.4112534,18.5226513 C83.4112534,17.3989947 81.6782347,16.9527969 79.705533,16.4630676 C77.042049,15.8862753 74.293736,15.0224465 74.293736,11.7099719 C74.293736,9.18922618 76.6475095,6.86981418 80.3397609,6.89838172 C81.5650331,6.82184458 82.7890659,7.06687489 83.8928649,7.60965337 C84.996664,8.15243186 85.9426723,8.97449198 86.6389375,9.99591959 L83.8206019,11.5657739 C83.4384807,10.9850162 82.9151168,10.5131441 82.3006638,10.1953836 C81.6862108,9.87762312 81.0012666,9.72462548 80.3114834,9.75105452 C78.5205664,9.75105452 77.619721,10.6434508 77.619721,11.6664409 C77.619721,12.689431 79.0295639,13.1070611 81.3119731,13.6389615 C83.8771585,14.2157538 86.7924528,15.0809422 86.7924528,18.3934168 C86.7924528,20.5971988 84.9193935,23.5491789 80.4663393,23.5219717 C79.095646,23.617737 77.7259987,23.3211067 76.5146122,22.6661323 C75.3032258,22.011158 74.2991929,21.0243847 73.6177622,19.8190738" id="Vector"></path>
            </g>
        </g>
    </g>
</svg>